<?xml version="1.0" encoding="UTF-8"?>
<svg id="Layer_2" data-name="Layer 2" xmlns="http://www.w3.org/2000/svg" xmlns:xlink="http://www.w3.org/1999/xlink" viewBox="0 0 683.92 733.56">
  <defs>
    <style>
      .cls-1 {
        fill: url(#linear-gradient-12);
      }

      .cls-1, .cls-2, .cls-3, .cls-4, .cls-5, .cls-6, .cls-7, .cls-8, .cls-9, .cls-10, .cls-11, .cls-12, .cls-13, .cls-14, .cls-15, .cls-16, .cls-17, .cls-18 {
        stroke-width: 0px;
      }

      .cls-2 {
        fill: url(#linear-gradient-17);
      }

      .cls-3 {
        fill: url(#linear-gradient);
      }

      .cls-4 {
        fill: url(#linear-gradient-6);
      }

      .cls-5 {
        fill: url(#linear-gradient-15);
      }

      .cls-6 {
        fill: url(#linear-gradient-11);
      }

      .cls-7 {
        fill: url(#linear-gradient-5);
      }

      .cls-8 {
        fill: url(#linear-gradient-13);
      }

      .cls-19 {
        stroke: #adbdbf;
      }

      .cls-19, .cls-20, .cls-21, .cls-22, .cls-23 {
        fill: none;
      }

      .cls-9 {
        fill: url(#linear-gradient-16);
      }

      .cls-10 {
        fill: url(#linear-gradient-14);
      }

      .cls-11 {
        fill: url(#linear-gradient-2);
      }

      .cls-12 {
        fill: url(#linear-gradient-7);
      }

      .cls-13 {
        fill: url(#linear-gradient-3);
      }

      .cls-14 {
        fill: url(#linear-gradient-9);
      }

      .cls-20 {
        stroke: #eea100;
      }

      .cls-15 {
        fill: url(#linear-gradient-8);
      }

      .cls-21 {
        stroke: #6f539a;
      }

      .cls-16 {
        fill: url(#linear-gradient-18);
      }

      .cls-22 {
        stroke: #00b1ae;
      }

      .cls-17 {
        fill: url(#linear-gradient-10);
      }

      .cls-18 {
        fill: url(#linear-gradient-4);
      }

      .cls-23 {
        stroke: #ffa100;
      }
    </style>
    <linearGradient id="linear-gradient" x1="548.85" y1="265.76" x2="401.86" y2="58.78" gradientUnits="userSpaceOnUse">
      <stop offset="0" stop-color="#3a6c8c"/>
      <stop offset="1" stop-color="#75cbdd"/>
    </linearGradient>
    <linearGradient id="linear-gradient-2" x1="404.77" y1="43.36" x2="548.78" y2="316.38" xlink:href="#linear-gradient"/>
    <linearGradient id="linear-gradient-3" x1="198.72" y1="125.48" x2="549.75" y2="149.48" xlink:href="#linear-gradient"/>
    <linearGradient id="linear-gradient-4" x1="289.33" y1="707.33" x2="536" y2="456.66" xlink:href="#linear-gradient"/>
    <linearGradient id="linear-gradient-5" x1="364.58" y1="229.51" x2="583.6" y2="262.51" xlink:href="#linear-gradient"/>
    <linearGradient id="linear-gradient-6" x1="520.99" y1="285.55" x2="374" y2="78.56" xlink:href="#linear-gradient"/>
    <linearGradient id="linear-gradient-7" x1="561.33" y1="590.78" x2="72.28" y2="587.78" xlink:href="#linear-gradient"/>
    <linearGradient id="linear-gradient-8" x1="561.38" y1="582.13" x2="72.33" y2="579.13" xlink:href="#linear-gradient"/>
    <linearGradient id="linear-gradient-9" x1="322.26" y1="739.73" x2="568.92" y2="489.06" xlink:href="#linear-gradient"/>
    <linearGradient id="linear-gradient-10" x1="244.32" y1="508.32" x2="463.34" y2="445.32" xlink:href="#linear-gradient"/>
    <linearGradient id="linear-gradient-11" x1="266.32" y1="684.68" x2="512.98" y2="434.02" xlink:href="#linear-gradient"/>
    <linearGradient id="linear-gradient-12" x1="561.36" y1="584.98" x2="72.31" y2="581.98" xlink:href="#linear-gradient"/>
    <linearGradient id="linear-gradient-13" x1="268.3" y1="52.21" x2="64.28" y2="400.25" xlink:href="#linear-gradient"/>
    <linearGradient id="linear-gradient-14" x1="275.87" y1="56.64" x2="71.85" y2="404.68" xlink:href="#linear-gradient"/>
    <linearGradient id="linear-gradient-15" x1="193.34" y1="292.75" x2="523.38" y2="172.73" xlink:href="#linear-gradient"/>
    <linearGradient id="linear-gradient-16" x1="197.86" y1="138.01" x2="548.9" y2="162.01" xlink:href="#linear-gradient"/>
    <linearGradient id="linear-gradient-17" x1="136.61" y1="136.73" x2="466.64" y2="16.71" xlink:href="#linear-gradient"/>
    <linearGradient id="linear-gradient-18" x1="273.19" y1="55.08" x2="69.17" y2="403.11" xlink:href="#linear-gradient"/>
  </defs>
  <g id="Main_layer" data-name="Main layer">
    <line class="cls-19" x1="342.19" y1="44.72" x2="342.19" y2="116.72"/>
    <circle class="cls-19" cx="342.19" cy="116.72" r="5.67"/>
    <line class="cls-19" x1="363.19" y1="34.06" x2="363.19" y2="106.06"/>
    <circle class="cls-19" cx="363.19" cy="106.06" r="5.67"/>
    <line class="cls-19" x1="384.19" y1="26.22" x2="384.19" y2="98.22"/>
    <circle class="cls-19" cx="384.19" cy="98.22" r="5.67"/>
    <line class="cls-19" x1="405.19" y1="34.72" x2="405.19" y2="106.72"/>
    <circle class="cls-19" cx="405.19" cy="106.72" r="5.67"/>
    <line class="cls-19" x1="426.19" y1="26.22" x2="426.19" y2="98.22"/>
    <circle class="cls-19" cx="426.19" cy="98.22" r="5.67"/>
    <line class="cls-19" x1="258.19" y1="26.22" x2="258.19" y2="98.22"/>
    <circle class="cls-19" cx="258.19" cy="98.22" r="5.67"/>
    <line class="cls-19" x1="279.19" y1="34.72" x2="279.19" y2="106.72"/>
    <circle class="cls-19" cx="279.19" cy="106.72" r="5.67"/>
    <line class="cls-19" x1="300.19" y1="26.22" x2="300.19" y2="98.22"/>
    <circle class="cls-19" cx="300.19" cy="98.22" r="5.67"/>
    <line class="cls-19" x1="321.19" y1="34.06" x2="321.19" y2="106.06"/>
    <circle class="cls-19" cx="321.19" cy="106.06" r="5.67"/>
    <line class="cls-19" x1="63.16" y1="205.56" x2="125.52" y2="241.56"/>
    <path class="cls-19" d="m128.35,236.65c2.71,1.56,3.64,5.03,2.07,7.74-1.56,2.71-5.03,3.64-7.74,2.07-2.71-1.56-3.64-5.03-2.07-7.74,1.56-2.71,5.03-3.64,7.74-2.07Z"/>
    <line class="cls-19" x1="64.42" y1="182.04" x2="126.78" y2="218.04"/>
    <path class="cls-19" d="m129.61,213.13c2.71,1.56,3.64,5.03,2.07,7.74-1.56,2.71-5.03,3.64-7.74,2.07-2.71-1.56-3.64-5.03-2.07-7.74,1.56-2.71,5.03-3.64,7.74-2.07Z"/>
    <line class="cls-19" x1="68.14" y1="159.93" x2="130.49" y2="195.93"/>
    <path class="cls-19" d="m133.33,191.03c2.71,1.56,3.64,5.03,2.07,7.74-1.56,2.71-5.03,3.64-7.74,2.07-2.71-1.56-3.64-5.03-2.07-7.74,1.56-2.71,5.03-3.64,7.74-2.07Z"/>
    <line class="cls-19" x1="86" y1="146" x2="148.36" y2="182"/>
    <path class="cls-19" d="m151.19,177.09c2.71,1.57,3.64,5.03,2.07,7.74-1.56,2.71-5.03,3.64-7.74,2.07-2.71-1.56-3.64-5.03-2.07-7.74,1.56-2.71,5.03-3.64,7.74-2.07Z"/>
    <line class="cls-19" x1="89.14" y1="123.56" x2="151.49" y2="159.56"/>
    <path class="cls-19" d="m154.33,154.65c2.71,1.56,3.64,5.03,2.07,7.74-1.56,2.71-5.03,3.64-7.74,2.07-2.71-1.56-3.64-5.03-2.07-7.74,1.56-2.71,5.03-3.64,7.74-2.07Z"/>
    <line class="cls-19" x1="5.14" y1="269.05" x2="67.49" y2="305.05"/>
    <path class="cls-19" d="m70.33,300.14c2.71,1.56,3.64,5.03,2.07,7.74-1.56,2.71-5.03,3.64-7.74,2.07-2.71-1.56-3.64-5.03-2.07-7.74,1.56-2.71,5.03-3.64,7.74-2.07Z"/>
    <line class="cls-19" x1="23" y1="255.12" x2="85.36" y2="291.12"/>
    <path class="cls-19" d="m88.19,286.21c2.71,1.56,3.64,5.03,2.07,7.74-1.56,2.71-5.03,3.64-7.74,2.07-2.71-1.56-3.64-5.03-2.07-7.74,1.56-2.71,5.03-3.64,7.74-2.07Z"/>
    <line class="cls-19" x1="26.14" y1="232.68" x2="88.49" y2="268.68"/>
    <path class="cls-19" d="m91.33,263.77c2.71,1.57,3.64,5.03,2.07,7.74-1.56,2.71-5.03,3.64-7.74,2.07-2.71-1.56-3.64-5.03-2.07-7.74,1.56-2.71,5.03-3.64,7.74-2.07Z"/>
    <line class="cls-19" x1="43.42" y1="218.41" x2="105.78" y2="254.41"/>
    <path class="cls-19" d="m108.61,249.5c2.71,1.56,3.64,5.03,2.07,7.74-1.56,2.71-5.03,3.64-7.74,2.07-2.71-1.56-3.64-5.03-2.07-7.74,1.56-2.71,5.03-3.64,7.74-2.07Z"/>
    <line class="cls-21" x1="62.94" y1="527.61" x2="125.29" y2="491.61"/>
    <path class="cls-21" d="m122.46,486.71c2.71-1.56,6.18-.64,7.74,2.07,1.56,2.71.64,6.18-2.07,7.74-2.71,1.56-6.18.64-7.74-2.07-1.56-2.71-.64-6.18,2.07-7.74Z"/>
    <line class="cls-21" x1="43.2" y1="514.76" x2="105.55" y2="478.76"/>
    <path class="cls-21" d="m102.72,473.85c2.71-1.56,6.18-.64,7.74,2.07,1.56,2.71.64,6.18-2.07,7.74-2.71,1.56-6.18.64-7.74-2.07-1.56-2.71-.64-6.17,2.07-7.74Z"/>
    <line class="cls-21" x1="25.91" y1="500.49" x2="88.27" y2="464.49"/>
    <path class="cls-21" d="m85.43,459.58c2.71-1.56,6.18-.64,7.74,2.07,1.56,2.71.64,6.18-2.07,7.74-2.71,1.56-6.18.64-7.74-2.07-1.56-2.71-.64-6.18,2.07-7.74Z"/>
    <line class="cls-21" x1="22.78" y1="478.05" x2="85.13" y2="442.05"/>
    <path class="cls-21" d="m82.3,437.15c2.71-1.56,6.18-.64,7.74,2.07,1.56,2.71.64,6.18-2.07,7.74-2.71,1.56-6.18.64-7.74-2.07-1.56-2.71-.64-6.18,2.07-7.74Z"/>
    <line class="cls-21" x1="4.91" y1="464.12" x2="67.27" y2="428.12"/>
    <path class="cls-21" d="m64.43,423.21c2.71-1.56,6.18-.64,7.74,2.07,1.56,2.71.64,6.18-2.07,7.74-2.71,1.56-6.18.64-7.74-2.07-1.56-2.71-.64-6.18,2.07-7.74Z"/>
    <line class="cls-21" x1="88.91" y1="609.61" x2="151.27" y2="573.61"/>
    <path class="cls-21" d="m148.43,568.7c2.71-1.56,6.18-.64,7.74,2.07,1.57,2.71.64,6.18-2.07,7.74-2.71,1.56-6.18.64-7.74-2.07-1.56-2.71-.64-6.18,2.07-7.74Z"/>
    <line class="cls-21" x1="85.78" y1="587.17" x2="148.13" y2="551.17"/>
    <path class="cls-21" d="m145.3,546.27c2.71-1.56,6.18-.64,7.74,2.07,1.56,2.71.64,6.18-2.07,7.74-2.71,1.56-6.18.64-7.74-2.07-1.56-2.71-.64-6.18,2.07-7.74Z"/>
    <line class="cls-21" x1="67.91" y1="573.24" x2="130.27" y2="537.24"/>
    <path class="cls-21" d="m127.43,532.33c2.71-1.56,6.18-.64,7.74,2.07,1.57,2.71.64,6.18-2.07,7.74-2.71,1.56-6.18.64-7.74-2.07-1.56-2.71-.64-6.18,2.07-7.74Z"/>
    <line class="cls-21" x1="64.2" y1="551.13" x2="126.55" y2="515.13"/>
    <path class="cls-21" d="m123.72,510.23c2.71-1.56,6.18-.64,7.74,2.07,1.56,2.71.64,6.18-2.07,7.74-2.71,1.56-6.18.64-7.74-2.07-1.56-2.71-.64-6.17,2.07-7.74Z"/>
    <line class="cls-22" x1="341.73" y1="688.84" x2="341.73" y2="616.84"/>
    <path class="cls-22" d="m336.07,616.84c0-3.13,2.54-5.67,5.67-5.67,3.13,0,5.67,2.54,5.67,5.67,0,3.13-2.54,5.67-5.67,5.67-3.13,0-5.67-2.54-5.67-5.67Z"/>
    <line class="cls-22" x1="320.73" y1="699.5" x2="320.73" y2="627.5"/>
    <path class="cls-22" d="m315.07,627.5c0-3.13,2.54-5.67,5.67-5.67,3.13,0,5.67,2.54,5.67,5.67,0,3.13-2.54,5.67-5.67,5.67-3.13,0-5.67-2.54-5.67-5.67Z"/>
    <line class="cls-22" x1="299.73" y1="707.34" x2="299.73" y2="635.34"/>
    <path class="cls-22" d="m294.07,635.34c0-3.13,2.54-5.67,5.67-5.67,3.13,0,5.67,2.54,5.67,5.67,0,3.13-2.54,5.67-5.67,5.67-3.13,0-5.67-2.54-5.67-5.67Z"/>
    <line class="cls-22" x1="278.73" y1="698.84" x2="278.73" y2="626.84"/>
    <path class="cls-22" d="m273.07,626.84c0-3.13,2.54-5.67,5.67-5.67,3.13,0,5.67,2.54,5.67,5.67,0,3.13-2.54,5.67-5.67,5.67-3.13,0-5.67-2.54-5.67-5.67Z"/>
    <line class="cls-22" x1="257.73" y1="707.34" x2="257.73" y2="635.34"/>
    <path class="cls-22" d="m252.07,635.34c0-3.13,2.54-5.67,5.67-5.67,3.13,0,5.67,2.54,5.67,5.67,0,3.13-2.54,5.67-5.67,5.67-3.13,0-5.67-2.54-5.67-5.67Z"/>
    <line class="cls-22" x1="425.73" y1="707.34" x2="425.73" y2="635.34"/>
    <path class="cls-22" d="m420.07,635.34c0-3.13,2.54-5.67,5.67-5.67,3.13,0,5.67,2.54,5.67,5.67,0,3.13-2.54,5.67-5.67,5.67-3.13,0-5.67-2.54-5.67-5.67Z"/>
    <line class="cls-22" x1="404.73" y1="698.84" x2="404.73" y2="626.84"/>
    <path class="cls-22" d="m399.07,626.84c0-3.13,2.54-5.67,5.67-5.67,3.13,0,5.67,2.54,5.67,5.67,0,3.13-2.54,5.67-5.67,5.67-3.13,0-5.67-2.54-5.67-5.67Z"/>
    <line class="cls-22" x1="383.73" y1="707.34" x2="383.73" y2="635.34"/>
    <path class="cls-22" d="m378.07,635.34c0-3.13,2.54-5.67,5.67-5.67,3.13,0,5.67,2.54,5.67,5.67,0,3.13-2.54,5.67-5.67,5.67-3.13,0-5.67-2.54-5.67-5.67Z"/>
    <line class="cls-22" x1="362.73" y1="699.5" x2="362.73" y2="627.5"/>
    <path class="cls-22" d="m357.07,627.5c0-3.13,2.54-5.67,5.67-5.67,3.13,0,5.67,2.54,5.67,5.67,0,3.13-2.54,5.67-5.67,5.67-3.13,0-5.67-2.54-5.67-5.67Z"/>
    <line class="cls-23" x1="620.76" y1="528.01" x2="558.4" y2="492.01"/>
    <path class="cls-23" d="m555.57,496.91c-2.71-1.57-3.64-5.03-2.08-7.74,1.57-2.71,5.03-3.64,7.74-2.07,2.71,1.56,3.64,5.03,2.07,7.74-1.57,2.71-5.03,3.64-7.74,2.07Z"/>
    <line class="cls-23" x1="619.49" y1="551.52" x2="557.14" y2="515.52"/>
    <path class="cls-23" d="m554.31,520.43c-2.71-1.56-3.64-5.03-2.07-7.74,1.57-2.71,5.03-3.64,7.74-2.07,2.71,1.57,3.64,5.03,2.07,7.74-1.56,2.71-5.03,3.64-7.74,2.07Z"/>
    <line class="cls-23" x1="615.78" y1="573.63" x2="553.42" y2="537.63"/>
    <path class="cls-23" d="m550.59,542.54c-2.71-1.57-3.64-5.03-2.08-7.74,1.57-2.71,5.03-3.64,7.74-2.07,2.71,1.56,3.64,5.03,2.07,7.74-1.57,2.71-5.03,3.64-7.74,2.07Z"/>
    <line class="cls-23" x1="597.92" y1="587.57" x2="535.56" y2="551.56"/>
    <path class="cls-23" d="m532.73,556.47c-2.71-1.57-3.64-5.03-2.07-7.74,1.56-2.71,5.03-3.64,7.74-2.07,2.71,1.57,3.64,5.03,2.07,7.74-1.57,2.71-5.03,3.64-7.74,2.07Z"/>
    <line class="cls-23" x1="594.78" y1="610" x2="532.42" y2="574"/>
    <path class="cls-23" d="m529.59,578.91c-2.71-1.57-3.64-5.03-2.08-7.74,1.57-2.71,5.03-3.64,7.74-2.07,2.71,1.57,3.64,5.03,2.07,7.74-1.57,2.71-5.03,3.64-7.74,2.08Z"/>
    <line class="cls-23" x1="678.78" y1="464.51" x2="616.42" y2="428.51"/>
    <path class="cls-20" d="m613.59,433.42c-2.71-1.57-3.64-5.03-2.08-7.74,1.56-2.71,5.03-3.64,7.74-2.07,2.71,1.56,3.64,5.03,2.07,7.74-1.57,2.71-5.03,3.64-7.74,2.07Z"/>
    <line class="cls-23" x1="660.92" y1="478.45" x2="598.56" y2="442.45"/>
    <path class="cls-23" d="m595.73,447.35c-2.71-1.57-3.64-5.03-2.07-7.74,1.56-2.71,5.03-3.64,7.74-2.07,2.71,1.57,3.64,5.03,2.08,7.74-1.57,2.71-5.03,3.64-7.74,2.08Z"/>
    <line class="cls-23" x1="657.78" y1="500.88" x2="595.42" y2="464.88"/>
    <path class="cls-23" d="m592.59,469.79c-2.71-1.57-3.64-5.03-2.08-7.74,1.56-2.71,5.03-3.64,7.74-2.07,2.71,1.56,3.64,5.03,2.07,7.74-1.57,2.71-5.03,3.64-7.74,2.07Z"/>
    <line class="cls-23" x1="640.49" y1="515.15" x2="578.14" y2="479.15"/>
    <path class="cls-23" d="m575.31,484.06c-2.71-1.56-3.64-5.03-2.07-7.74,1.57-2.71,5.03-3.64,7.74-2.07,2.71,1.57,3.64,5.03,2.07,7.74-1.56,2.71-5.03,3.64-7.74,2.07Z"/>
    <line class="cls-19" x1="620.98" y1="205.95" x2="558.63" y2="241.95"/>
    <path class="cls-19" d="m561.46,246.85c-2.71,1.56-6.18.64-7.74-2.07-1.56-2.71-.64-6.18,2.08-7.74,2.71-1.56,6.18-.64,7.74,2.07,1.56,2.71.64,6.18-2.07,7.74Z"/>
    <line class="cls-19" x1="640.72" y1="218.8" x2="578.37" y2="254.8"/>
    <path class="cls-19" d="m581.2,259.71c-2.71,1.56-6.18.64-7.74-2.07-1.56-2.71-.64-6.18,2.07-7.74,2.71-1.56,6.18-.64,7.74,2.08,1.56,2.71.63,6.17-2.07,7.74Z"/>
    <line class="cls-19" x1="658" y1="233.07" x2="595.65" y2="269.07"/>
    <path class="cls-19" d="m598.48,273.98c-2.71,1.56-6.18.64-7.74-2.07-1.56-2.71-.64-6.18,2.08-7.74,2.71-1.56,6.17-.64,7.74,2.07,1.56,2.71.64,6.18-2.07,7.74Z"/>
    <line class="cls-19" x1="661.14" y1="255.51" x2="598.79" y2="291.51"/>
    <path class="cls-19" d="m601.62,296.41c-2.71,1.56-6.18.64-7.74-2.07-1.57-2.71-.64-6.18,2.07-7.74,2.71-1.56,6.18-.63,7.74,2.07,1.56,2.71.64,6.18-2.07,7.74Z"/>
    <line class="cls-19" x1="679" y1="269.44" x2="616.65" y2="305.44"/>
    <path class="cls-19" d="m619.48,310.35c-2.71,1.57-6.18.64-7.74-2.07-1.56-2.71-.64-6.18,2.07-7.74,2.71-1.56,6.18-.63,7.74,2.07,1.56,2.71.64,6.18-2.07,7.74Z"/>
    <line class="cls-19" x1="595" y1="123.95" x2="532.65" y2="159.95"/>
    <path class="cls-19" d="m535.48,164.86c-2.71,1.56-6.18.64-7.74-2.07-1.57-2.71-.64-6.18,2.08-7.74,2.71-1.56,6.17-.64,7.74,2.07,1.56,2.71.64,6.18-2.07,7.74Z"/>
    <line class="cls-19" x1="598.14" y1="146.39" x2="535.79" y2="182.39"/>
    <path class="cls-19" d="m538.62,187.3c-2.71,1.56-6.18.64-7.74-2.07-1.57-2.71-.64-6.18,2.07-7.74,2.71-1.56,6.18-.64,7.74,2.07,1.56,2.71.64,6.18-2.07,7.74Z"/>
    <line class="cls-19" x1="616" y1="160.32" x2="553.65" y2="196.32"/>
    <path class="cls-19" d="m556.48,201.23c-2.71,1.56-6.18.64-7.74-2.07-1.57-2.71-.64-6.18,2.08-7.74,2.71-1.56,6.17-.64,7.74,2.07,1.56,2.71.64,6.18-2.07,7.74Z"/>
    <line class="cls-19" x1="619.72" y1="182.43" x2="557.37" y2="218.43"/>
    <path class="cls-19" d="m560.2,223.33c-2.71,1.56-6.18.64-7.74-2.07-1.56-2.71-.64-6.18,2.07-7.74,2.71-1.57,6.18-.64,7.74,2.08,1.56,2.71.63,6.17-2.07,7.74Z"/>
    <g>
      <path class="cls-3" d="m484.64,147.8c-5,1.02-10,2.18-14.95,3.46,5.31,20.44,9.12,41.07,14.5,60.73,2.69,9.86,5.78,19.52,9.69,29.17,3.91,9.67,8.65,19.31,14.6,29.59l34.18-19.77c-5.62-9.7-10.27-18.6-14.13-27.28-3.86-8.67-6.94-17.11-9.52-25.65-5.17-17.04-8.26-34.57-12.32-53.5-7.39.65-14.72,1.78-22.04,3.27Z"/>
      <path class="cls-11" d="m476.7,101.33c5.31-1.32,10.8-2.5,16.46-3.49-4.4-10.99-10.04-22.15-17.62-33.01-7.58-10.85-17.1-21.41-29.17-30.89-12.05-9.47-26.68-17.87-44.12-23.99C384.83,3.84,364.57,0,341.96,0v39.48c15.8,0,29.91,2.33,42.21,6.17,12.32,3.85,22.86,9.22,31.85,15.53,18,12.68,29.8,28.95,38.34,46.52,7.15-2.26,14.55-4.44,22.33-6.38Z"/>
      <path class="cls-13" d="m341.96,174.61v-39.48c13.76.02,25.7-.66,36.94-2.2,11.22-1.53,21.71-3.9,32.2-6.86,10.48-2.96,20.93-6.5,31.88-10.12,10.95-3.62,22.4-7.31,34.79-10.34,12.51-3.05,25.98-5.41,40.48-5.88,14.48-.47,30.01.96,46.22,5.64,16.18,4.68,33.07,12.65,49.52,25.26,16.41,12.59,32.41,29.88,45.62,52.69l-34.18,19.77c-9.72-16.77-21.11-29.51-32.92-38.94-11.83-9.44-24.09-15.59-36.27-19.4-12.2-3.8-24.34-5.25-36.33-5.19-12,.07-23.86,1.64-35.65,4.08-11.91,2.47-23.73,5.82-35.38,9.36-11.66,3.54-23.13,7.26-34.54,10.56-11.42,3.3-22.75,6.16-34.5,8.11-11.79,1.96-23.97,2.97-37.88,2.95Z"/>
      <path class="cls-18" d="m602.9,380.89c-3.38-3.82-6.9-7.56-10.49-11.22-15.03,14.88-30.95,28.55-45.26,42.98-7.18,7.23-13.98,14.69-20.37,22.84-6.41,8.16-12.37,17.04-18.32,27.32l34.18,19.77c5.61-9.71,11-18.16,16.59-25.82,5.58-7.66,11.35-14.52,17.45-21.01,12.16-12.97,25.77-24.42,40.11-37.44-4.27-6.06-8.93-11.84-13.89-17.43Z"/>
      <path class="cls-7" d="m639.16,350.75c3.79,3.93,7.57,8.1,11.25,12.49,7.31-9.29,14.16-19.74,19.78-31.71,5.62-11.97,10.02-25.48,12.22-40.66,2.19-15.17,2.18-32.03-1.22-50.22-3.4-18.16-10.2-37.67-21.58-57.34l-34.18,19.77c7.94,13.73,12.98,27.13,15.79,39.72,2.82,12.61,3.42,24.43,2.44,35.37-2.01,21.92-10.23,40.26-21.19,56.44,5.53,5.06,11.12,10.38,16.68,16.15Z"/>
      <path class="cls-4" d="m508.47,270.75l34.18-19.77c6.85,11.86,13.39,21.86,20.33,30.81,6.92,8.95,14.21,16.86,22.01,24.47,7.79,7.6,16.08,14.9,24.68,22.58,8.6,7.69,17.52,15.76,26.34,24.97,8.89,9.3,17.69,19.75,25.37,32.04,7.67,12.28,14.23,26.43,18.3,42.83,4.06,16.37,5.61,35.04,2.89,55.65-2.72,20.56-9.76,43.12-22.95,65.93l-34.18-19.77c9.7-16.78,15.07-33.04,17.35-47.99,2.28-14.98,1.48-28.71-1.32-41.17-2.82-12.47-7.65-23.71-13.71-34.06-6.08-10.35-13.4-19.81-21.42-28.79-8.11-9.07-16.93-17.66-25.81-26-8.89-8.35-17.85-16.45-26.4-24.7-8.56-8.26-16.69-16.65-24.24-25.86-7.57-9.22-14.52-19.25-21.41-31.18Z"/>
      <path class="cls-12" d="m460.24,599.87c1.61-4.84,3.09-9.75,4.45-14.69-20.37-5.58-40.13-12.57-59.77-17.78-9.85-2.61-19.7-4.79-29.97-6.25-10.29-1.47-20.99-2.21-32.99-2.2v39.48c11.26,0,21.3.44,30.74,1.45,9.43,1.01,18.26,2.58,26.93,4.64,17.31,4.07,34.02,10.16,52.45,16.08,3.12-6.73,5.79-13.65,8.16-20.73Z"/>
      <path class="cls-15" d="m504.48,616.16c-1.5,5.26-3.21,10.61-5.18,16,11.72,1.66,24.2,2.34,37.38,1.19,13.17-1.15,27.05-4.11,41.27-9.79,14.2-5.68,28.75-14.09,42.78-26.08,14-11.97,27.49-27.56,38.88-47.23l-34.18-19.77c-7.94,13.72-17.04,24.76-26.53,33.47-9.51,8.72-19.43,15.13-29.38,19.75-19.96,9.2-39.94,11.29-59.43,9.93-1.6,7.32-3.4,14.83-5.61,22.53Z"/>
      <path class="cls-14" d="m508.47,462.82l34.18,19.77c-6.87,11.85-12.29,22.52-16.59,33.02-4.31,10.48-7.54,20.77-10.22,31.34-2.69,10.56-4.85,21.39-7.18,32.69-2.34,11.3-4.84,23.06-8.39,35.31-3.59,12.36-8.26,25.22-15.08,38.03-6.82,12.79-15.82,25.55-28.01,37.26-12.17,11.69-27.58,22.34-46.79,30.27-19.16,7.9-42.19,13.04-68.41,13.05v-39.48c19.32-.01,36.06-3.46,50.15-8.95,14.11-5.5,25.61-13.03,35.01-21.69,9.41-8.66,16.74-18.46,22.68-28.88,5.93-10.43,10.48-21.5,14.24-32.93,3.8-11.56,6.78-23.47,9.53-35.34,2.75-11.87,5.26-23.69,8.13-35.24,2.87-11.57,6.11-22.84,10.35-34.03,4.24-11.21,9.51-22.29,16.41-34.2Z"/>
      <path class="cls-17" d="m199.29,585.76c5-1.02,10-2.18,14.95-3.46-5.31-20.44-9.12-41.07-14.5-60.73-2.69-9.86-5.78-19.52-9.69-29.17-3.91-9.67-8.65-19.31-14.6-29.59l-34.18,19.77c5.62,9.7,10.27,18.6,14.13,27.28,3.86,8.67,6.94,17.11,9.52,25.65,5.17,17.04,8.25,34.57,12.32,53.5,7.38-.65,14.72-1.78,22.04-3.27Z"/>
      <path class="cls-6" d="m207.22,632.23c-5.31,1.32-10.8,2.5-16.46,3.49,4.4,10.99,10.04,22.15,17.62,33.01,7.58,10.85,17.1,21.41,29.17,30.89,12.06,9.47,26.68,17.87,44.12,23.99,17.41,6.12,37.68,9.95,60.28,9.95v-39.48c-15.8,0-29.91-2.33-42.21-6.17-12.32-3.85-22.86-9.22-31.85-15.53-18-12.68-29.8-28.95-38.34-46.52-7.15,2.26-14.55,4.44-22.33,6.38Z"/>
      <path class="cls-1" d="m341.96,558.95v39.48c-13.76-.01-25.7.67-36.94,2.2-11.22,1.53-21.71,3.9-32.2,6.86-10.48,2.96-20.93,6.5-31.88,10.12-10.95,3.62-22.4,7.31-34.79,10.34-12.51,3.05-25.98,5.41-40.48,5.88-14.48.47-30.01-.96-46.22-5.65-16.18-4.68-33.07-12.65-49.52-25.26-16.41-12.59-32.41-29.88-45.62-52.69l34.18-19.77c9.72,16.77,21.11,29.51,32.92,38.94,11.83,9.44,24.09,15.59,36.27,19.4,12.2,3.8,24.34,5.25,36.33,5.19,12-.07,23.86-1.64,35.65-4.08,11.91-2.47,23.73-5.82,35.38-9.36,11.66-3.54,23.13-7.26,34.54-10.56,11.42-3.3,22.75-6.16,34.5-8.11,11.79-1.96,23.97-2.97,37.88-2.95Z"/>
      <path class="cls-8" d="m81.01,352.67c3.38,3.82,6.9,7.56,10.49,11.22,15.03-14.88,30.95-28.55,45.26-42.98,7.18-7.23,13.98-14.69,20.37-22.84,6.41-8.16,12.38-17.04,18.32-27.32l-34.18-19.77c-5.61,9.71-11,18.16-16.59,25.82-5.58,7.66-11.35,14.52-17.45,21.01-12.16,12.97-25.77,24.42-40.12,37.44,4.27,6.06,8.93,11.84,13.89,17.43Z"/>
      <path class="cls-10" d="m44.76,382.81c-3.79-3.93-7.57-8.1-11.25-12.49-7.31,9.29-14.16,19.74-19.78,31.71-5.62,11.97-10.02,25.48-12.22,40.66-2.19,15.17-2.18,32.03,1.22,50.22,3.4,18.16,10.2,37.67,21.58,57.34l34.18-19.77c-7.94-13.73-12.98-27.12-15.79-39.72-2.82-12.61-3.42-24.43-2.44-35.37,2.01-21.92,10.22-40.26,21.18-56.44-5.53-5.06-11.12-10.38-16.68-16.15Z"/>
      <path class="cls-5" d="m175.46,462.81l-34.18,19.77c-6.85-11.86-13.39-21.86-20.33-30.81-6.92-8.95-14.21-16.86-22.01-24.47-7.79-7.6-16.08-14.9-24.69-22.58-8.6-7.69-17.52-15.76-26.34-24.97-8.9-9.3-17.69-19.75-25.37-32.05-7.67-12.28-14.23-26.43-18.3-42.83-4.06-16.37-5.61-35.04-2.89-55.65,2.72-20.56,9.77-43.12,22.96-65.93l34.18,19.77c-9.7,16.78-15.07,33.04-17.35,47.99-2.28,14.98-1.48,28.71,1.32,41.17,2.82,12.47,7.64,23.71,13.71,34.06,6.08,10.35,13.4,19.81,21.42,28.8,8.11,9.07,16.93,17.65,25.81,25.99,8.89,8.35,17.85,16.45,26.4,24.7,8.56,8.26,16.69,16.65,24.24,25.86,7.58,9.22,14.52,19.25,21.41,31.18Z"/>
      <path class="cls-9" d="m223.68,133.69c-1.61,4.84-3.09,9.75-4.45,14.69,20.37,5.58,40.13,12.57,59.77,17.78,9.85,2.61,19.7,4.79,29.97,6.25,10.29,1.47,21,2.21,32.99,2.2v-39.48c-11.26,0-21.3-.44-30.74-1.45-9.43-1.01-18.26-2.58-26.93-4.63-17.31-4.07-34.02-10.16-52.46-16.08-3.12,6.73-5.79,13.65-8.16,20.73Z"/>
      <path class="cls-2" d="m179.45,117.4c1.5-5.26,3.21-10.61,5.18-16-11.72-1.66-24.2-2.34-37.38-1.19-13.17,1.15-27.05,4.11-41.27,9.79-14.2,5.68-28.75,14.09-42.78,26.08-14,11.97-27.49,27.56-38.88,47.22l34.18,19.77c7.95-13.72,17.04-24.75,26.53-33.47,9.51-8.72,19.43-15.13,29.38-19.74,19.96-9.2,39.94-11.29,59.43-9.92,1.6-7.32,3.4-14.83,5.61-22.53Z"/>
      <path class="cls-16" d="m175.46,270.75l-34.18-19.77c6.87-11.85,12.29-22.52,16.6-33.02,4.31-10.48,7.54-20.77,10.23-31.34,2.7-10.56,4.85-21.39,7.18-32.69,2.34-11.3,4.84-23.06,8.39-35.31,3.59-12.36,8.26-25.22,15.08-38.03,6.82-12.79,15.82-25.55,28.01-37.26,12.17-11.69,27.58-22.34,46.79-30.27C292.72,5.15,315.74,0,341.96,0v39.48c-19.32.01-36.07,3.46-50.15,8.95-14.11,5.5-25.61,13.04-35.01,21.69-9.41,8.66-16.74,18.46-22.68,28.88-5.93,10.43-10.48,21.5-14.24,32.93-3.8,11.56-6.78,23.47-9.53,35.34-2.75,11.87-5.26,23.69-8.13,35.24-2.87,11.57-6.11,22.84-10.35,34.03-4.24,11.21-9.51,22.29-16.42,34.2Z"/>
    </g>
  </g>
</svg>