<?xml version="1.0" encoding="UTF-8"?>
<svg id="Layer_2" data-name="Layer 2" xmlns="http://www.w3.org/2000/svg" xmlns:xlink="http://www.w3.org/1999/xlink" viewBox="0 0 692.78 742.34">
  <defs>
    <style>
      .cls-1 {
        fill: url(#linear-gradient-15);
      }

      .cls-2 {
        fill: url(#linear-gradient-13);
      }

      .cls-3 {
        fill: url(#linear-gradient-2);
      }

      .cls-4 {
        fill: url(#linear-gradient-10);
      }

      .cls-5 {
        fill: url(#linear-gradient-12);
      }

      .cls-6 {
        fill: #fff;
      }

      .cls-7 {
        fill: url(#linear-gradient-4);
      }

      .cls-8 {
        fill: url(#linear-gradient-3);
      }

      .cls-9 {
        fill: url(#linear-gradient-5);
      }

      .cls-10 {
        fill: url(#linear-gradient-8);
      }

      .cls-11 {
        fill: url(#linear-gradient-14);
      }

      .cls-12 {
        fill: url(#linear-gradient-17);
      }

      .cls-13 {
        fill: url(#linear-gradient-7);
      }

      .cls-14 {
        fill: url(#linear-gradient-9);
      }

      .cls-15 {
        fill: url(#linear-gradient-11);
      }

      .cls-16 {
        fill: url(#linear-gradient-6);
      }

      .cls-17 {
        fill: url(#linear-gradient-16);
      }

      .cls-18 {
        fill: url(#linear-gradient);
      }

      .cls-19 {
        fill: none;
        stroke: #c3c3c3;
      }

      .cls-20 {
        fill: url(#linear-gradient-18);
      }
    </style>
    <linearGradient id="linear-gradient" x1="553.28" y1="270.15" x2="406.29" y2="63.16" gradientUnits="userSpaceOnUse">
      <stop offset="0" stop-color="#3a6c8c"/>
      <stop offset="1" stop-color="#75cbdd"/>
    </linearGradient>
    <linearGradient id="linear-gradient-2" x1="409.2" y1="47.75" x2="553.21" y2="320.77" xlink:href="#linear-gradient"/>
    <linearGradient id="linear-gradient-3" x1="203.15" y1="129.87" x2="554.18" y2="153.87" xlink:href="#linear-gradient"/>
    <linearGradient id="linear-gradient-4" x1="293.76" y1="711.72" x2="540.43" y2="461.05" xlink:href="#linear-gradient"/>
    <linearGradient id="linear-gradient-5" x1="369.01" y1="233.9" x2="588.03" y2="266.9" xlink:href="#linear-gradient"/>
    <linearGradient id="linear-gradient-6" x1="525.42" y1="289.93" x2="378.43" y2="82.95" xlink:href="#linear-gradient"/>
    <linearGradient id="linear-gradient-7" x1="565.76" y1="595.17" x2="76.71" y2="592.17" xlink:href="#linear-gradient"/>
    <linearGradient id="linear-gradient-8" x1="565.81" y1="586.51" x2="76.76" y2="583.51" xlink:href="#linear-gradient"/>
    <linearGradient id="linear-gradient-9" x1="326.69" y1="744.12" x2="573.35" y2="493.45" xlink:href="#linear-gradient"/>
    <linearGradient id="linear-gradient-10" x1="248.75" y1="512.71" x2="467.77" y2="449.71" xlink:href="#linear-gradient"/>
    <linearGradient id="linear-gradient-11" x1="270.75" y1="689.07" x2="517.41" y2="438.4" xlink:href="#linear-gradient"/>
    <linearGradient id="linear-gradient-12" x1="565.79" y1="589.37" x2="76.74" y2="586.37" xlink:href="#linear-gradient"/>
    <linearGradient id="linear-gradient-13" x1="272.73" y1="56.6" x2="68.71" y2="404.63" xlink:href="#linear-gradient"/>
    <linearGradient id="linear-gradient-14" x1="280.29" y1="61.03" x2="76.27" y2="409.07" xlink:href="#linear-gradient"/>
    <linearGradient id="linear-gradient-15" x1="197.77" y1="297.14" x2="527.8" y2="177.12" xlink:href="#linear-gradient"/>
    <linearGradient id="linear-gradient-16" x1="202.29" y1="142.4" x2="553.33" y2="166.4" xlink:href="#linear-gradient"/>
    <linearGradient id="linear-gradient-17" x1="141.04" y1="141.11" x2="471.07" y2="21.1" xlink:href="#linear-gradient"/>
    <linearGradient id="linear-gradient-18" x1="277.62" y1="59.46" x2="73.6" y2="407.5" xlink:href="#linear-gradient"/>
  </defs>
  <g id="HeroGraphicGreys">
    <line class="cls-19" x1="346.61" y1="49.11" x2="346.61" y2="121.11"/>
    <circle class="cls-19" cx="346.61" cy="121.11" r="5.67"/>
    <line class="cls-19" x1="367.61" y1="38.44" x2="367.61" y2="110.44"/>
    <circle class="cls-19" cx="367.61" cy="110.44" r="5.67"/>
    <line class="cls-19" x1="388.61" y1="30.61" x2="388.61" y2="102.61"/>
    <circle class="cls-19" cx="388.61" cy="102.61" r="5.67"/>
    <line class="cls-19" x1="409.61" y1="39.11" x2="409.61" y2="111.11"/>
    <circle class="cls-19" cx="409.61" cy="111.11" r="5.67"/>
    <line class="cls-19" x1="430.61" y1="30.61" x2="430.61" y2="102.61"/>
    <circle class="cls-19" cx="430.61" cy="102.61" r="5.67"/>
    <line class="cls-19" x1="262.61" y1="30.61" x2="262.61" y2="102.61"/>
    <circle class="cls-19" cx="262.61" cy="102.61" r="5.67"/>
    <line class="cls-19" x1="283.61" y1="39.11" x2="283.61" y2="111.11"/>
    <circle class="cls-19" cx="283.61" cy="111.11" r="5.67"/>
    <line class="cls-19" x1="304.61" y1="30.61" x2="304.61" y2="102.61"/>
    <circle class="cls-19" cx="304.61" cy="102.61" r="5.67"/>
    <line class="cls-19" x1="325.61" y1="38.44" x2="325.61" y2="110.44"/>
    <circle class="cls-19" cx="325.61" cy="110.44" r="5.67"/>
    <line class="cls-19" x1="67.59" y1="209.94" x2="129.94" y2="245.94"/>
    <path class="cls-19" d="M132.78,241.04c2.71,1.56,3.64,5.03,2.07,7.74-1.57,2.71-5.03,3.64-7.74,2.07-2.71-1.56-3.64-5.03-2.07-7.74,1.56-2.71,5.03-3.64,7.74-2.07Z"/>
    <line class="cls-19" x1="68.85" y1="186.42" x2="131.21" y2="222.42"/>
    <path class="cls-19" d="M134.04,217.52c2.71,1.56,3.64,5.03,2.07,7.74-1.56,2.71-5.03,3.64-7.74,2.07-2.71-1.56-3.64-5.03-2.07-7.74,1.56-2.71,5.03-3.64,7.74-2.07Z"/>
    <line class="cls-19" x1="72.57" y1="164.32" x2="134.92" y2="200.32"/>
    <path class="cls-19" d="M137.76,195.41c2.71,1.56,3.64,5.03,2.07,7.74-1.57,2.71-5.03,3.64-7.74,2.07-2.71-1.56-3.64-5.03-2.07-7.74,1.56-2.71,5.03-3.64,7.74-2.07Z"/>
    <line class="cls-19" x1="90.43" y1="150.38" x2="152.78" y2="186.38"/>
    <path class="cls-19" d="M155.62,181.48c2.71,1.57,3.64,5.03,2.07,7.74-1.56,2.71-5.03,3.64-7.74,2.07-2.71-1.56-3.64-5.03-2.07-7.74,1.56-2.71,5.03-3.64,7.74-2.07Z"/>
    <line class="cls-19" x1="93.57" y1="127.95" x2="155.92" y2="163.95"/>
    <path class="cls-19" d="M158.76,159.04c2.71,1.56,3.64,5.03,2.07,7.74-1.57,2.71-5.03,3.64-7.74,2.07-2.71-1.56-3.64-5.03-2.07-7.74,1.56-2.71,5.03-3.64,7.74-2.07Z"/>
    <line class="cls-19" x1="9.57" y1="273.44" x2="71.92" y2="309.44"/>
    <path class="cls-19" d="M74.76,304.53c2.71,1.56,3.64,5.03,2.07,7.74-1.57,2.71-5.03,3.64-7.74,2.07-2.71-1.56-3.64-5.03-2.07-7.74,1.56-2.71,5.03-3.64,7.74-2.07Z"/>
    <line class="cls-19" x1="27.43" y1="259.5" x2="89.78" y2="295.5"/>
    <path class="cls-19" d="M92.62,290.6c2.71,1.56,3.64,5.03,2.07,7.74-1.56,2.71-5.03,3.64-7.74,2.07-2.71-1.56-3.64-5.03-2.07-7.74,1.56-2.71,5.03-3.64,7.74-2.07Z"/>
    <line class="cls-19" x1="30.57" y1="237.07" x2="92.92" y2="273.07"/>
    <path class="cls-19" d="M95.76,268.16c2.71,1.57,3.64,5.03,2.07,7.74-1.57,2.71-5.03,3.64-7.74,2.07-2.71-1.56-3.64-5.03-2.07-7.74,1.56-2.71,5.03-3.64,7.74-2.07Z"/>
    <line class="cls-19" x1="47.85" y1="222.8" x2="110.21" y2="258.8"/>
    <path class="cls-19" d="M113.04,253.89c2.71,1.56,3.64,5.03,2.07,7.74-1.56,2.71-5.03,3.64-7.74,2.07-2.71-1.56-3.64-5.03-2.07-7.74,1.56-2.71,5.03-3.64,7.74-2.07Z"/>
    <line class="cls-19" x1="67.36" y1="532" x2="129.72" y2="496"/>
    <path class="cls-19" d="M126.89,491.09c2.71-1.56,6.18-.64,7.74,2.07,1.56,2.71.64,6.18-2.07,7.74-2.71,1.56-6.18.64-7.74-2.07-1.56-2.71-.64-6.18,2.07-7.74Z"/>
    <line class="cls-19" x1="47.63" y1="519.15" x2="109.98" y2="483.15"/>
    <path class="cls-19" d="M107.15,478.24c2.71-1.56,6.18-.64,7.74,2.07,1.56,2.71.64,6.18-2.07,7.74-2.71,1.56-6.18.64-7.74-2.07-1.56-2.71-.64-6.17,2.07-7.74Z"/>
    <line class="cls-19" x1="30.34" y1="504.88" x2="92.7" y2="468.88"/>
    <path class="cls-19" d="M89.86,463.97c2.71-1.56,6.18-.64,7.74,2.07,1.56,2.71.64,6.18-2.07,7.74-2.71,1.56-6.18.64-7.74-2.07-1.56-2.71-.64-6.18,2.07-7.74Z"/>
    <line class="cls-19" x1="27.2" y1="482.44" x2="89.56" y2="446.44"/>
    <path class="cls-19" d="M86.73,441.53c2.71-1.56,6.18-.64,7.74,2.07,1.56,2.71.64,6.18-2.07,7.74-2.71,1.56-6.18.64-7.74-2.07-1.56-2.71-.64-6.18,2.07-7.74Z"/>
    <line class="cls-19" x1="9.34" y1="468.51" x2="71.7" y2="432.51"/>
    <path class="cls-19" d="M68.86,427.6c2.71-1.56,6.18-.64,7.74,2.07,1.56,2.71.64,6.18-2.07,7.74-2.71,1.56-6.18.64-7.74-2.07-1.56-2.71-.64-6.18,2.07-7.74Z"/>
    <line class="cls-19" x1="93.34" y1="614" x2="155.7" y2="578"/>
    <path class="cls-19" d="M152.86,573.09c2.71-1.56,6.18-.64,7.74,2.07,1.57,2.71.64,6.18-2.07,7.74-2.71,1.56-6.18.64-7.74-2.07-1.56-2.71-.64-6.18,2.07-7.74Z"/>
    <line class="cls-19" x1="90.2" y1="591.56" x2="152.56" y2="555.56"/>
    <path class="cls-19" d="M149.73,550.65c2.71-1.56,6.18-.64,7.74,2.07,1.56,2.71.64,6.18-2.07,7.74-2.71,1.56-6.18.64-7.74-2.07-1.56-2.71-.64-6.18,2.07-7.74Z"/>
    <line class="cls-19" x1="72.34" y1="577.62" x2="134.7" y2="541.62"/>
    <path class="cls-19" d="M131.86,536.72c2.71-1.56,6.18-.64,7.74,2.07,1.57,2.71.64,6.18-2.07,7.74-2.71,1.56-6.18.64-7.74-2.07-1.56-2.71-.64-6.18,2.07-7.74Z"/>
    <line class="cls-19" x1="68.63" y1="555.52" x2="130.98" y2="519.52"/>
    <path class="cls-19" d="M128.15,514.61c2.71-1.56,6.18-.64,7.74,2.07,1.56,2.71.64,6.18-2.07,7.74-2.71,1.56-6.18.64-7.74-2.07-1.56-2.71-.64-6.17,2.07-7.74Z"/>
    <line class="cls-19" x1="346.16" y1="693.23" x2="346.16" y2="621.23"/>
    <path class="cls-19" d="M340.5,621.23c0-3.13,2.54-5.67,5.67-5.67,3.13,0,5.67,2.54,5.67,5.67,0,3.13-2.54,5.67-5.67,5.67-3.13,0-5.67-2.54-5.67-5.67Z"/>
    <line class="cls-19" x1="325.16" y1="703.89" x2="325.16" y2="631.89"/>
    <path class="cls-19" d="M319.5,631.89c0-3.13,2.54-5.67,5.67-5.67,3.13,0,5.67,2.54,5.67,5.67,0,3.13-2.54,5.67-5.67,5.67-3.13,0-5.67-2.54-5.67-5.67Z"/>
    <line class="cls-19" x1="304.16" y1="711.73" x2="304.16" y2="639.73"/>
    <path class="cls-19" d="M298.5,639.73c0-3.13,2.54-5.67,5.67-5.67,3.13,0,5.67,2.54,5.67,5.67,0,3.13-2.54,5.67-5.67,5.67-3.13,0-5.67-2.54-5.67-5.67Z"/>
    <line class="cls-19" x1="283.16" y1="703.23" x2="283.16" y2="631.23"/>
    <path class="cls-19" d="M277.5,631.23c0-3.13,2.54-5.67,5.67-5.67,3.13,0,5.67,2.54,5.67,5.67,0,3.13-2.54,5.67-5.67,5.67-3.13,0-5.67-2.54-5.67-5.67Z"/>
    <line class="cls-19" x1="262.16" y1="711.73" x2="262.16" y2="639.73"/>
    <path class="cls-19" d="M256.5,639.73c0-3.13,2.54-5.67,5.67-5.67,3.13,0,5.67,2.54,5.67,5.67,0,3.13-2.54,5.67-5.67,5.67-3.13,0-5.67-2.54-5.67-5.67Z"/>
    <line class="cls-19" x1="430.16" y1="711.73" x2="430.16" y2="639.73"/>
    <path class="cls-19" d="M424.5,639.73c0-3.13,2.54-5.67,5.67-5.67,3.13,0,5.67,2.54,5.67,5.67,0,3.13-2.54,5.67-5.67,5.67-3.13,0-5.67-2.54-5.67-5.67Z"/>
    <line class="cls-19" x1="409.16" y1="703.23" x2="409.16" y2="631.23"/>
    <path class="cls-19" d="M403.5,631.23c0-3.13,2.54-5.67,5.67-5.67,3.13,0,5.67,2.54,5.67,5.67,0,3.13-2.54,5.67-5.67,5.67-3.13,0-5.67-2.54-5.67-5.67Z"/>
    <line class="cls-19" x1="388.16" y1="711.73" x2="388.16" y2="639.73"/>
    <path class="cls-19" d="M382.5,639.73c0-3.13,2.54-5.67,5.67-5.67,3.13,0,5.67,2.54,5.67,5.67,0,3.13-2.54,5.67-5.67,5.67-3.13,0-5.67-2.54-5.67-5.67Z"/>
    <line class="cls-19" x1="367.16" y1="703.89" x2="367.16" y2="631.89"/>
    <path class="cls-19" d="M361.5,631.89c0-3.13,2.54-5.67,5.67-5.67,3.13,0,5.67,2.54,5.67,5.67,0,3.13-2.54,5.67-5.67,5.67-3.13,0-5.67-2.54-5.67-5.67Z"/>
    <line class="cls-19" x1="625.19" y1="532.39" x2="562.83" y2="496.39"/>
    <path class="cls-19" d="M560,501.3c-2.71-1.57-3.64-5.03-2.08-7.74,1.57-2.71,5.03-3.64,7.74-2.07,2.71,1.56,3.64,5.03,2.07,7.74-1.57,2.71-5.03,3.64-7.74,2.07Z"/>
    <line class="cls-19" x1="623.92" y1="555.91" x2="561.57" y2="519.91"/>
    <path class="cls-19" d="M558.74,524.82c-2.71-1.56-3.64-5.03-2.07-7.74,1.57-2.71,5.03-3.64,7.74-2.07,2.71,1.57,3.64,5.03,2.07,7.74-1.56,2.71-5.03,3.64-7.74,2.07Z"/>
    <line class="cls-19" x1="620.21" y1="578.02" x2="557.85" y2="542.02"/>
    <path class="cls-19" d="M555.02,546.92c-2.71-1.57-3.64-5.03-2.08-7.74,1.57-2.71,5.03-3.64,7.74-2.07,2.71,1.56,3.64,5.03,2.07,7.74-1.57,2.71-5.03,3.64-7.74,2.07Z"/>
    <line class="cls-19" x1="602.35" y1="591.95" x2="539.99" y2="555.95"/>
    <path class="cls-19" d="M537.16,560.86c-2.71-1.57-3.64-5.03-2.07-7.74,1.56-2.71,5.03-3.64,7.74-2.07,2.71,1.57,3.64,5.03,2.07,7.74-1.57,2.71-5.03,3.64-7.74,2.07Z"/>
    <line class="cls-19" x1="599.21" y1="614.39" x2="536.85" y2="578.39"/>
    <path class="cls-19" d="M534.02,583.3c-2.71-1.57-3.64-5.03-2.08-7.74,1.57-2.71,5.03-3.64,7.74-2.07,2.71,1.57,3.64,5.03,2.07,7.74-1.57,2.71-5.03,3.64-7.74,2.08Z"/>
    <line class="cls-19" x1="683.21" y1="468.9" x2="620.85" y2="432.9"/>
    <path class="cls-19" d="M618.02,437.81c-2.71-1.57-3.64-5.03-2.08-7.74,1.56-2.71,5.03-3.64,7.74-2.07,2.71,1.56,3.64,5.03,2.07,7.74-1.57,2.71-5.03,3.64-7.74,2.07Z"/>
    <line class="cls-19" x1="665.35" y1="482.83" x2="602.99" y2="446.83"/>
    <path class="cls-19" d="M600.16,451.74c-2.71-1.57-3.64-5.03-2.07-7.74,1.56-2.71,5.03-3.64,7.74-2.07,2.71,1.57,3.64,5.03,2.08,7.74-1.57,2.71-5.03,3.64-7.74,2.08Z"/>
    <line class="cls-19" x1="662.21" y1="505.27" x2="599.85" y2="469.27"/>
    <path class="cls-19" d="M597.02,474.18c-2.71-1.57-3.64-5.03-2.08-7.74,1.56-2.71,5.03-3.64,7.74-2.07,2.71,1.56,3.64,5.03,2.07,7.74-1.57,2.71-5.03,3.64-7.74,2.07Z"/>
    <line class="cls-19" x1="644.92" y1="519.54" x2="582.57" y2="483.54"/>
    <path class="cls-19" d="M579.74,488.45c-2.71-1.56-3.64-5.03-2.07-7.74,1.57-2.71,5.03-3.64,7.74-2.07,2.71,1.57,3.64,5.03,2.07,7.74-1.56,2.71-5.03,3.64-7.74,2.07Z"/>
    <line class="cls-19" x1="625.41" y1="210.34" x2="563.06" y2="246.34"/>
    <path class="cls-19" d="M565.89,251.24c-2.71,1.56-6.18.64-7.74-2.07-1.56-2.71-.64-6.18,2.08-7.74,2.71-1.56,6.18-.64,7.74,2.07,1.56,2.71.64,6.18-2.07,7.74Z"/>
    <line class="cls-19" x1="645.15" y1="223.19" x2="582.79" y2="259.19"/>
    <path class="cls-19" d="M585.63,264.1c-2.71,1.56-6.18.64-7.74-2.07-1.56-2.71-.64-6.18,2.07-7.74,2.71-1.56,6.18-.64,7.74,2.08,1.56,2.71.63,6.17-2.07,7.74Z"/>
    <line class="cls-19" x1="662.43" y1="237.46" x2="600.08" y2="273.46"/>
    <path class="cls-19" d="M602.91,278.37c-2.71,1.56-6.18.64-7.74-2.07-1.56-2.71-.64-6.18,2.08-7.74,2.71-1.56,6.17-.64,7.74,2.07,1.56,2.71.64,6.18-2.07,7.74Z"/>
    <line class="cls-19" x1="665.57" y1="259.9" x2="603.22" y2="295.9"/>
    <path class="cls-19" d="M606.05,300.8c-2.71,1.56-6.18.64-7.74-2.07-1.57-2.71-.64-6.18,2.07-7.74,2.71-1.56,6.18-.63,7.74,2.07,1.56,2.71.64,6.18-2.07,7.74Z"/>
    <line class="cls-19" x1="683.43" y1="273.83" x2="621.08" y2="309.83"/>
    <path class="cls-19" d="M623.91,314.74c-2.71,1.57-6.18.64-7.74-2.07-1.56-2.71-.64-6.18,2.07-7.74,2.71-1.56,6.18-.63,7.74,2.07,1.56,2.71.64,6.18-2.07,7.74Z"/>
    <line class="cls-19" x1="599.43" y1="128.34" x2="537.08" y2="164.34"/>
    <path class="cls-19" d="M539.91,169.25c-2.71,1.56-6.18.64-7.74-2.07-1.57-2.71-.64-6.18,2.08-7.74,2.71-1.56,6.17-.64,7.74,2.07,1.56,2.71.64,6.18-2.07,7.74Z"/>
    <line class="cls-19" x1="602.57" y1="150.78" x2="540.22" y2="186.78"/>
    <path class="cls-19" d="M543.05,191.68c-2.71,1.56-6.18.64-7.74-2.07-1.57-2.71-.64-6.18,2.07-7.74,2.71-1.56,6.18-.64,7.74,2.07,1.56,2.71.64,6.18-2.07,7.74Z"/>
    <line class="cls-19" x1="620.43" y1="164.71" x2="558.08" y2="200.71"/>
    <path class="cls-19" d="M560.91,205.62c-2.71,1.56-6.18.64-7.74-2.07-1.57-2.71-.64-6.18,2.08-7.74,2.71-1.56,6.17-.64,7.74,2.07,1.56,2.71.64,6.18-2.07,7.74Z"/>
    <line class="cls-19" x1="624.15" y1="186.81" x2="561.8" y2="222.82"/>
    <path class="cls-19" d="M564.63,227.72c-2.71,1.56-6.18.64-7.74-2.07-1.56-2.71-.64-6.18,2.07-7.74,2.71-1.57,6.18-.64,7.74,2.08,1.56,2.71.63,6.17-2.07,7.74Z"/>
    <g>
      <g>
        <g>
          <path class="cls-6" d="M481.09,105.79c-3.06.77-6.03,1.5-8.98,2.34-2.92.88-5.83,1.75-8.74,2.63-2.8.87-5.6,1.73-8.42,2.6-2.74.92-5.49,1.84-8.25,2.78-2.65.86-5.32,1.73-8.02,2.61-2.68.94-5.32,1.83-7.94,2.68-2.62.86-5.21,1.62-7.81,2.41-2.62.85-5.22,1.65-7.82,2.37-10.37,2.81-20.85,5.42-31.97,6.73-11.2,1.69-23.07,2.29-36.75,2.2v4.39c13.76.08,25.68-.51,36.93-2.18,2.79-.32,5.55-.74,8.28-1.26,2.77-.54,5.46-1.07,8.08-1.58,2.66-.56,5.31-1.21,7.96-1.93,2.62-.63,5.23-1.28,7.85-2.04,1.31-.37,2.62-.76,3.94-1.17,1.32-.41,2.64-.85,3.94-1.2,2.61-.76,5.23-1.58,7.89-2.45,5.34-1.83,10.63-3.46,16.12-5.32,5.53-1.93,11.05-3.59,16.85-5.39,5.83-1.87,11.72-3.4,17.93-4.95,6.32-1.64,12.72-2.83,19.49-3.91,1.69-.27,3.4-.52,5.13-.76,1.73-.24,3.43-.37,5.18-.54,3.48-.31,7.04-.55,10.68-.69,3.67-.19,7.3-.11,11.04.04,3.74.15,7.55.42,11.45.8,3.82.49,7.71,1.12,11.69,1.89,1.99.38,3.99.8,6.02,1.26,1.99.5,3.98,1.06,6,1.66,4.02,1.2,8.16,2.53,12.29,4.11,4.06,1.65,8.19,3.49,12.38,5.53,1.04.52,2.09,1.04,3.15,1.57,1.02.57,2.05,1.15,3.08,1.73,2.06,1.18,4.13,2.42,6.21,3.71,2.08,1.3,4.19,2.62,6.26,4.05,2.04,1.46,4.08,2.98,6.13,4.56,16.41,12.58,32.41,29.87,45.61,52.68l3.8-2.2c-13.61-23.53-30.12-41.35-47.03-54.29-2.12-1.62-4.19-3.21-6.32-4.68-2.16-1.45-4.31-2.83-6.45-4.16-4.28-2.66-8.47-5.14-12.81-7.19-4.31-2.09-8.49-4.04-12.72-5.68-4.27-1.59-8.48-2.99-12.6-4.23-1.03-.3-2.06-.6-3.08-.89-1.03-.28-2.08-.51-3.12-.75-2.07-.48-4.13-.91-6.16-1.31-2.03-.4-4.04-.76-6.04-1.09-1-.16-1.99-.31-2.97-.46-1.01-.11-2.01-.22-3-.33-7.99-.78-15.52-1.22-23.02-.83-3.72.14-7.34.38-10.89.68-3.58.36-7.13.88-10.56,1.41-3.45.55-6.8,1.11-10.11,1.78-3.34.73-6.6,1.5-9.79,2.29Z"/>
          <path class="cls-6" d="M346.39,179v4.39c13.86.05,26-1.03,37.75-2.95,11.72-1.92,23.04-4.83,34.52-8.24,2.85-.82,5.69-1.6,8.58-2.51,1.46-.47,2.91-.93,4.34-1.38,1.45-.46,2.86-.85,4.31-1.29,2.88-.87,5.79-1.79,8.72-2.74,1.48-.5,2.91-.9,4.37-1.33,1.47-.44,2.93-.88,4.38-1.31,2.93-.87,5.91-1.83,8.86-2.67,3-.82,5.96-1.63,8.87-2.42,6.01-1.7,11.91-3.01,17.95-4.27,5.83-1.28,11.5-2.08,17.33-2.81,5.87-.78,11.58-1.03,17.46-1.09,5.92-.12,11.68.36,17.61,1.13,5.99.7,11.75,2.15,17.73,3.92,1.48.46,3.01.91,4.47,1.46,1.46.55,2.92,1.14,4.39,1.75,2.94,1.23,5.9,2.6,8.88,4.1,2.93,1.55,5.8,3.32,8.72,5.2,1.46.94,2.92,1.93,4.38,2.95,1.48,1.01,2.84,2.16,4.27,3.3,2.83,2.3,5.66,4.76,8.5,7.4,2.72,2.73,5.43,5.64,8.14,8.72,2.77,3.04,5.22,6.49,7.79,10.03,1.27,1.78,2.53,3.61,3.79,5.48,1.18,1.92,2.35,3.9,3.51,5.92l3.8-2.2c-1.21-2.1-2.42-4.15-3.65-6.14-1.3-1.95-2.61-3.84-3.93-5.69-2.64-3.69-5.22-7.23-8.08-10.4-2.82-3.2-5.57-6.25-8.44-9.04-2.93-2.74-5.86-5.3-8.78-7.68-.73-.59-1.46-1.18-2.19-1.76-.74-.57-1.51-1.1-2.26-1.63-1.51-1.06-3.02-2.08-4.52-3.07s-3-1.92-4.49-2.83c-.75-.45-1.5-.89-2.24-1.33-.77-.4-1.54-.8-2.3-1.2-6.16-3.1-12.09-5.77-18.29-7.56-3.06-.94-6.09-1.76-9.1-2.46-3.03-.68-6.13-1.15-9.15-1.57-3.03-.41-6.03-.73-9.02-.96-3.05-.14-6.07-.2-9.07-.19-3,.02-5.96.09-8.93.27-3.01.24-6,.54-8.97.89-2.97.36-5.9.74-8.85,1.21-2.99.53-5.95,1.11-8.9,1.72-2.98.63-5.91,1.23-8.88,1.95-2.93.77-5.9,1.54-8.91,2.33-1.46.39-2.92.79-4.4,1.18-1.46.39-2.91.78-4.4,1.25-2.88.86-5.8,1.74-8.78,2.64-1.43.42-2.88.85-4.33,1.28-1.44.46-2.9.92-4.37,1.39-2.91.93-5.79,1.82-8.64,2.67-1.42.4-2.87.88-4.31,1.35-1.42.44-2.85.89-4.31,1.34-1.43.43-2.85.85-4.27,1.25-.7.2-1.41.39-2.13.59-.71.22-1.43.44-2.16.67-2.87.87-5.72,1.67-8.55,2.37-1.41.32-2.86.77-4.29,1.15-1.43.38-2.87.74-4.29,1.08-1.43.34-2.85.63-4.28.92-1.45.36-2.9.7-4.34,1-1.45.31-2.9.58-4.35.82-.72.12-1.45.23-2.18.35-.73.14-1.47.29-2.21.43-11.77,1.91-23.96,2.91-37.86,2.89Z"/>
        </g>
        <path class="cls-6" d="M509.03,277.37l3.8-2.2c-5.95-10.28-10.7-19.9-14.54-29.62-1.04-2.36-1.97-4.77-2.81-7.22-.21-.62-.41-1.23-.62-1.84-.22-.6-.45-1.19-.67-1.79-.44-1.19-.85-2.4-1.25-3.61-1.5-4.95-3.1-9.67-4.35-14.69-.3-1.27-.66-2.47-1-3.69-.34-1.22-.66-2.45-.98-3.7-.31-1.27-.61-2.52-.91-3.76-.3-1.26-.56-2.55-.89-3.77-.63-2.47-1.22-4.98-1.79-7.52-.28-1.29-.56-2.57-.83-3.84-.27-1.29-.6-2.51-.88-3.78-2.29-10.16-4.58-20.44-7.22-30.66-1.31.36-2.62.71-3.95,1.07,5.48,20.72,9.28,41.67,14.71,61.46.65,2.51,1.3,5.03,2.05,7.48.37,1.23.76,2.44,1.16,3.64.36,1.24.72,2.49,1.11,3.72.76,2.48,1.67,4.84,2.54,7.28.83,2.48,1.74,4.91,2.77,7.29,3.85,9.76,8.59,19.41,14.56,29.72Z"/>
        <path class="cls-6" d="M346.39,43.87v4.39c3.77.08,7.44.25,11.01.48,1.78.12,3.54.26,5.28.41,1.73.21,3.44.48,5.12.74,3.36.53,6.62,1.13,9.78,1.79,1.58.3,3.13.75,4.65,1.18,1.52.43,3.02.87,4.5,1.33,2.95.93,5.8,1.86,8.55,2.93,2.74,1.14,5.38,2.34,7.93,3.57,2.54,1.26,5.01,2.46,7.36,3.88,2.34,1.43,4.6,2.9,6.77,4.39,2.17,1.51,4.26,3.01,6.26,4.61,1.98,1.66,3.88,3.36,5.71,5.07s3.58,3.46,5.26,5.22c1.69,1.75,3.25,3.7,4.78,5.57,1.52,1.89,2.98,3.81,4.38,5.73,1.4,1.92,2.75,3.85,3.99,5.93,2.51,4.08,4.81,8.21,6.95,12.36,1.38-.46,2.73-.87,4.12-1.31-8.56-17.52-20.35-33.82-38.34-46.5-2.25-1.56-4.6-3.08-7.03-4.56-1.22-.73-2.45-1.51-3.73-2.16-1.28-.66-2.58-1.32-3.91-1.96-2.65-1.28-5.4-2.52-8.26-3.71-.72-.29-1.44-.58-2.16-.88-.73-.25-1.47-.51-2.21-.77-1.49-.5-3-.99-4.54-1.47-3.08-.94-6.26-1.87-9.56-2.66-3.3-.69-6.71-1.32-10.23-1.87-1.76-.28-3.55-.54-5.36-.78-1.81-.19-3.66-.31-5.52-.44-3.74-.25-7.58-.42-11.53-.5Z"/>
        <path class="cls-6" d="M547,255.4l3.8-2.2c-.69-1.2-1.35-2.39-1.98-3.58-.6-1.21-1.35-2.31-1.98-3.46-1.3-2.28-2.5-4.55-3.6-6.81-1.16-2.23-2.34-4.38-3.37-6.57-1.06-2.17-1.95-4.41-2.99-6.48-.99-2.11-1.89-4.23-2.73-6.37-.43-1.06-.8-2.15-1.23-3.19-.43-1.03-.84-2.07-1.24-3.11-1.6-4.16-2.87-8.46-4.24-12.57-1.32-4.16-2.33-8.5-3.49-12.66-.55-2.11-1.06-4.25-1.54-6.42-.24-1.1-.47-2.19-.7-3.27-.25-1.08-.5-2.16-.74-3.22-.99-4.3-1.87-8.74-2.74-13.27-.97-4.41-1.89-8.95-2.84-13.62-1.43.09-2.84.16-4.3.33,4.02,18.99,7.11,36.5,12.27,53.54.64,2.14,1.35,4.24,2.08,6.34.67,2.16,1.4,4.31,2.19,6.43.4,1.06.81,2.12,1.24,3.18.22.52.44,1.05.66,1.58.21.54.41,1.08.62,1.63.84,2.17,1.74,4.33,2.73,6.48.5,1.06,1.01,2.14,1.53,3.23.48,1.11.99,2.22,1.51,3.33,1.05,2.22,2.2,4.43,3.42,6.66,1.11,2.3,2.32,4.6,3.64,6.92.64,1.17,1.38,2.29,2.01,3.51.64,1.21,1.31,2.42,2.01,3.63Z"/>
        <path class="cls-6" d="M346.39,0v4.39c22.61.05,42.86,3.96,60.27,10.02,4.35,1.58,8.55,3.19,12.56,4.94,4,1.87,7.83,3.81,11.51,5.8,1.83,1.02,3.65,1.95,5.39,3.07,1.74,1.09,3.45,2.2,5.11,3.31,3.33,2.24,6.53,4.46,9.55,6.82,12.02,9.62,21.6,20.02,29.14,30.95,1.89,2.73,3.67,5.45,5.35,8.16.85,1.34,1.66,2.71,2.42,4.12.77,1.4,1.51,2.79,2.24,4.18,2.89,5.56,5.48,10.94,7.62,16.54,1.51-.24,3-.49,4.53-.73-1.11-2.82-2.28-5.68-3.54-8.57-1.26-2.88-2.68-5.63-4.14-8.49-1.47-2.84-3.04-5.7-4.71-8.58-1.67-2.86-3.52-5.59-5.44-8.41-1.93-2.8-3.97-5.62-6.14-8.42-2.21-2.7-4.55-5.4-7.02-8.1-4.9-5.5-10.51-10.5-16.67-15.53-3.07-2.57-6.38-4.8-9.81-7.13-1.72-1.15-3.48-2.29-5.28-3.42-.9-.56-1.81-1.12-2.73-1.68-.92-.56-1.87-1.05-2.81-1.57-3.8-2.05-7.77-4.05-11.9-5.99-2.06-1-4.19-1.84-6.36-2.69-2.17-.85-4.38-1.68-6.63-2.49C390.89,4.13,369.88.04,346.39,0Z"/>
      </g>
      <g>
        <g>
          <path class="cls-6" d="M643.57,355.14c-4.48-4.53-8.88-8.79-13.14-12.87-4.32-3.9-8.62-7.8-13-11.76-4.28-3.79-8.58-7.48-12.55-11.2-.98-.93-2.03-1.85-3.06-2.77-1.01-.92-2.02-1.84-3.04-2.77-2-1.85-3.94-3.73-5.82-5.63-1.94-1.89-3.92-3.77-5.78-5.71-.94-.97-1.86-1.95-2.76-2.94-.91-.99-1.77-2-2.73-2.99-1.87-1.99-3.67-4.04-5.41-6.16-.89-1.05-1.67-2.15-2.59-3.22-.9-1.07-1.79-2.16-2.66-3.27-6.79-8.95-13.43-18.86-20.23-30.65l-3.8,2.2c.85,1.48,1.72,2.93,2.6,4.34.46.7.87,1.41,1.27,2.12.41.7.82,1.4,1.23,2.1.83,1.38,1.67,2.72,2.53,4.04.87,1.31,1.75,2.58,2.53,3.89,1.62,2.57,3.32,5.03,5.08,7.38,1.68,2.39,3.31,4.72,5.09,6.94.87,1.12,1.78,2.2,2.68,3.28.84,1.1,1.7,2.18,2.58,3.24,1.76,2.13,3.58,4.18,5.48,6.18,1.77,2.04,3.6,4.03,5.5,5.98,1.88,1.95,3.94,3.84,5.79,5.76,7.75,7.61,16.07,14.9,24.67,22.58,2.18,1.96,4.34,3.91,6.5,5.85l3.34,2.99c1.12,1.01,2.16,2.03,3.26,3.07,2.2,2.11,4.39,4.23,6.6,6.35,2.21,2.17,4.55,4.4,6.66,6.7,2.18,2.33,4.39,4.72,6.6,7.2,1.1,1.25,2.21,2.51,3.32,3.78.55.64,1.1,1.29,1.66,1.94.52.66,1.04,1.31,1.57,1.97,2.09,2.66,4.17,5.4,6.23,8.26,2.03,2.85,4.17,5.81,5.99,8.88,1.87,3.07,3.71,6.26,5.5,9.57.89,1.65,1.78,3.34,2.63,5.06.8,1.71,1.58,3.46,2.34,5.24,1.53,3.56,2.98,7.25,4.35,11.08,1.34,3.83,2.39,7.77,3.44,11.87,2.2,8.22,3.29,16.91,4.07,26.25.19,4.62.24,9.39.12,14.31-.04,1.23-.08,2.47-.12,3.72-.08,1.24-.2,2.48-.31,3.73-.24,2.51-.52,5.05-.85,7.63-2.73,20.55-9.76,43.11-22.95,65.92l3.8,2.2c13.61-23.54,20.84-46.8,23.63-67.97.68-5.31,1.24-10.44,1.3-15.53.07-2.53.1-5.02.08-7.47-.04-2.46,0-4.85-.23-7.26-.36-4.79-.87-9.43-1.51-13.91-.17-1.12-.31-2.23-.52-3.33-.23-1.11-.45-2.2-.67-3.3-.46-2.18-.96-4.32-1.48-6.42-1.94-8.39-4.93-16.25-8-23.52-.39-.91-.79-1.81-1.18-2.7-.44-.89-.87-1.78-1.3-2.66-.88-1.76-1.77-3.48-2.68-5.17-1.81-3.38-3.68-6.64-5.59-9.77-4.09-6.27-8.25-12.07-12.58-17.49-4.51-5.41-8.97-10.44-13.48-15.17Z"/>
          <path class="cls-6" d="M512.83,275.17l-3.8,2.2c6.85,11.87,13.78,21.85,21.37,31.03,1.88,2.3,3.94,4.5,5.79,6.73.96,1.11,1.95,2.2,2.97,3.28.99,1.09,2.12,2.13,3.06,3.22,1.96,2.15,4.03,4.26,6.18,6.34,1.11,1.03,2.12,2.08,3.15,3.13,1.04,1.04,2.1,2.08,3.18,3.11,4.45,4.11,8.6,8.24,13.19,12.35.57.52,1.15,1.03,1.71,1.54.55.52,1.09,1.04,1.63,1.55,1.12,1.05,2.22,2.09,3.31,3.11,2.32,2.13,4.58,4.21,6.81,6.26,4.32,4.22,8.85,8.48,13.26,12.85,4.23,4.36,8.56,8.83,12.69,13.42,3.8,4.39,7.53,8.9,11.13,13.59,3.41,4.66,6.63,9.5,9.68,14.55,2.93,5.04,5.47,10.28,7.84,15.81.61,1.39,1.11,2.77,1.6,4.17.49,1.4.97,2.83,1.42,4.27.91,2.88,1.73,5.84,2.47,8.88.68,3.02,1.16,6.1,1.6,9.27.21,1.59.4,3.19.56,4.82.16,1.63.32,3.29.33,4.93.08,3.3.04,6.69-.12,10.18-.1,1.73-.15,3.52-.38,5.27-.21,1.76-.46,3.54-.74,5.35-2.09,14.49-7.39,30.11-16.72,46.27l3.8,2.2c1.21-2.1,2.37-4.18,3.48-6.24.57-1.02,1.09-2.06,1.57-3.11.48-1.05.96-2.09,1.44-3.12.94-2.07,1.83-4.11,2.68-6.14.85-2.02,1.67-4.02,2.32-6.06,1.37-4.04,2.57-7.99,3.61-11.85.96-3.89,1.65-7.74,2.26-11.47.29-1.87.57-3.71.78-5.53.16-1.85.28-3.67.37-5.47.18-3.6.23-7.1.17-10.51-.19-3.45-.51-6.81-.93-10.08-.44-3.27-.88-6.43-1.68-9.57-2.86-12.48-7.65-23.71-13.73-34.06-1.55-2.59-3.15-5.12-4.79-7.6-.82-1.24-1.65-2.47-2.49-3.68-.84-1.21-1.79-2.43-2.69-3.62-1.83-2.39-3.69-4.74-5.58-7.05-1.91-2.31-3.74-4.58-5.84-6.83-2.07-2.27-4.15-4.51-6.24-6.72-1.04-1.09-2.09-2.19-3.14-3.29-.52-.54-1.04-1.09-1.57-1.63-.55-.54-1.1-1.08-1.66-1.62-2.17-2.11-4.37-4.24-6.6-6.42-2.21-2.12-4.28-4.23-6.61-6.31-2.19-2.03-4.42-4.1-6.7-6.22-1.08-1.02-2.16-2.05-3.26-3.1-1.12-1.01-2.25-2.03-3.39-3.07-2.24-2.05-4.42-4.09-6.54-6.15-2.15-2.05-4.44-4.08-6.54-6.15-4.11-4.16-8.59-8.26-12.42-12.59-2.11-2.12-4.12-4.28-6.03-6.5-.47-.56-.94-1.12-1.41-1.68-.49-.55-.99-1.11-1.5-1.67-.99-1.12-1.95-2.25-2.88-3.41-7.58-9.21-14.52-19.24-21.4-31.16Z"/>
        </g>
        <path class="cls-6" d="M509.03,464.97l3.8,2.2c.74-1.29,1.5-2.54,2.28-3.77.79-1.22,1.43-2.49,2.19-3.69,1.44-2.43,3.13-4.67,4.53-6.99.74-1.14,1.5-2.25,2.28-3.35.4-.54.8-1.08,1.19-1.62l.61-.8.55-.82c1.49-2.17,3.06-4.25,4.73-6.27.87-.99,1.57-2.04,2.38-3.04.79-1,1.61-1.99,2.44-2.97.83-.98,1.69-1.94,2.56-2.89.8-.97,1.62-1.93,2.45-2.88,1.67-1.9,3.45-3.75,5.24-5.58,1.68-1.86,3.43-3.69,5.25-5.49,14.36-14.41,30.29-28.09,45.27-42.96-.94-.96-1.86-1.92-2.81-2.89-3.75,3.62-7.59,7.32-11.56,11.16-.92.92-1.94,1.83-2.93,2.73-.98.9-1.96,1.8-2.96,2.72-1.96,1.81-3.88,3.61-5.77,5.41-.92.9-1.93,1.79-2.92,2.68-.97.88-1.94,1.77-2.93,2.68-1.93,1.78-3.81,3.57-5.64,5.37-1.95,1.78-3.87,3.56-5.71,5.36-1.88,1.79-3.56,3.63-5.48,5.43-1.86,1.81-3.65,3.64-5.37,5.5-.42.47-.85.93-1.28,1.4-.45.46-.9.92-1.36,1.39-.9.93-1.77,1.87-2.63,2.82-3.29,3.84-6.87,7.67-9.91,11.81-6.53,8.15-12.53,17.02-18.48,27.34Z"/>
        <path class="cls-6" d="M629.79,207.51l-3.8,2.2c.94,1.64,1.85,3.26,2.74,4.88.44.81.87,1.61,1.3,2.41.42.81.79,1.63,1.17,2.44,1.51,3.25,2.91,6.46,4.2,9.6.32.79.63,1.57.95,2.35.3.79.55,1.59.82,2.37.53,1.58,1.03,3.14,1.5,4.69.93,3.11,1.83,6.13,2.51,9.14.63,3.04,1.17,6.01,1.61,8.93.43,2.92.85,5.76.96,8.62.16,2.84.23,5.62.23,8.35,0,2.72-.05,5.38-.35,8.03-.26,2.64-.58,5.23-.97,7.76-.2,1.26-.41,2.52-.63,3.75-.12.62-.24,1.23-.35,1.85-.15.62-.3,1.23-.44,1.84-1.23,4.9-2.68,9.58-4.33,14.09-3.64,9.07-7.95,17.39-13.31,25.28,1.09.97,2.17,1.94,3.25,2.91,2.69-4.04,5.31-8.22,7.71-12.57,2.25-4.32,4.35-8.81,6.26-13.49,3.6-9.33,6.28-19.43,7.21-30.36.63-5.51.52-11.13.21-17.06-.08-1.48-.19-2.97-.31-4.48-.17-1.5-.39-3-.62-4.52-.47-3.04-1.03-6.15-1.69-9.31-.17-.79-.33-1.59-.52-2.39-.21-.79-.43-1.58-.65-2.37-.44-1.59-.91-3.19-1.41-4.81-.5-1.62-1.02-3.25-1.58-4.9-.55-1.65-1.12-3.32-1.82-4.96-1.35-3.29-2.82-6.65-4.4-10.06-.4-.85-.81-1.7-1.22-2.56-.45-.84-.91-1.68-1.36-2.53-.92-1.69-1.88-3.4-2.87-5.11Z"/>
        <path class="cls-6" d="M547,486.94l3.8,2.2c.69-1.2,1.38-2.37,2.09-3.51.36-.57.71-1.14,1.06-1.7.35-.57.66-1.15.99-1.71,1.31-2.27,2.67-4.44,4.06-6.54.35-.52.7-1.04,1.05-1.55.33-.53.66-1.05.98-1.57.65-1.04,1.32-2.05,2-3.05,1.34-2,2.79-3.91,4.16-5.8,1.32-1.91,2.69-3.76,4.1-5.55,1.4-1.8,2.92-3.51,4.26-5.26,1.39-1.73,2.83-3.42,4.31-5.06,1.48-1.65,3.04-3.24,4.45-4.87,1.46-1.61,2.97-3.18,4.52-4.74.79-.78,1.58-1.55,2.35-2.31.4-.38.8-.76,1.2-1.14l1.15-1.15c3.06-3.07,6.3-6.07,9.67-9.04,6.41-6.02,13.5-11.96,20.38-18.31-.81-1.19-1.62-2.37-2.44-3.55-3.49,3.15-6.99,6.31-10.55,9.52-3.57,3.09-7.02,6.14-10.31,9.21-6.79,6.09-13.11,12.22-19.26,18.69-2.91,3.28-6.09,6.55-8.91,10.06-.71.88-1.41,1.76-2.1,2.66-.72.88-1.46,1.78-2.2,2.68-1.45,1.81-2.85,3.68-4.2,5.61-.33.48-.67.97-1.01,1.46-.36.48-.72.96-1.08,1.45-.71.97-1.42,1.97-2.11,2.98-.69,1.01-1.37,2.04-2.04,3.09-.66,1.05-1.31,2.13-2.05,3.17-1.42,2.12-2.8,4.32-4.14,6.62-.33.58-.66,1.16-1,1.74-.36.57-.72,1.15-1.08,1.73-.72,1.16-1.42,2.35-2.12,3.57Z"/>
        <path class="cls-6" d="M667.77,185.54l-3.8,2.2c1.42,2.46,2.78,4.91,4.1,7.34,1.32,2.43,2.44,4.93,3.59,7.36,2.24,4.91,4.45,9.67,6.1,14.53.87,2.41,1.69,4.8,2.47,7.17.38,1.19.76,2.36,1.14,3.53.18.59.36,1.17.54,1.75.16.59.31,1.18.47,1.77,1.23,4.72,2.29,9.34,3.21,13.86.5,2.24.76,4.54,1.08,6.77.3,2.24.57,4.45.81,6.63.23,2.19.44,4.34.6,6.47.09,2.15.15,4.28.18,6.38.05,4.2,0,8.28-.21,12.27-.32,4.01-.75,7.91-1.28,11.7-.26,1.89-.55,3.76-.86,5.6-.34,1.84-.77,3.67-1.18,5.47-.84,3.59-1.76,7.08-2.76,10.46-.93,3.37-2.24,6.67-3.46,9.86-1.25,3.19-2.56,6.27-3.92,9.26-.65,1.49-1.42,2.97-2.18,4.42-.76,1.45-1.53,2.88-2.31,4.28-1.56,2.81-3.15,5.53-4.78,8.16-.41.66-.82,1.31-1.22,1.96-.44.65-.88,1.29-1.31,1.93-.88,1.28-1.76,2.53-2.65,3.77-1.78,2.47-3.57,4.87-5.37,7.19.99,1.18,1.97,2.35,2.97,3.55,3.68-4.74,7.34-9.77,10.9-15.15.91-1.35,1.72-2.71,2.54-4.1.82-1.39,1.63-2.8,2.43-4.24,1.6-2.87,3.17-5.84,4.69-8.91.79-1.54,1.45-3.09,2.13-4.67.67-1.58,1.33-3.19,1.97-4.83,1.29-3.27,2.52-6.65,3.67-10.14,1.04-3.47,1.98-7.05,2.85-10.75.84-3.69,1.73-7.53,2.21-11.42.54-3.9.99-7.93,1.32-12.06.07-1.04.15-2.08.22-3.13.02-1.04.05-2.09.07-3.14.03-2.11.04-4.25,0-6.42.02-8.72-1.08-17.71-2.63-27.19-3.53-18.8-10.55-39.04-22.37-59.48Z"/>
      </g>
      <g>
        <g>
          <path class="cls-6" d="M508.87,620.49c1.8-5.95,3.17-12.06,4.53-17.83,1.4-5.72,2.49-11.57,3.66-17.13,1.22-5.5,2.22-11.11,3.4-16.47,1.25-5.29,2.29-10.76,3.7-15.92.35-1.28.7-2.58,1.06-3.89.33-1.32.68-2.64,1.04-3.94.73-2.61,1.52-5.19,2.4-7.73.83-2.59,1.65-5.23,2.62-7.79.48-1.29.98-2.57,1.51-3.85.55-1.26.99-2.63,1.53-3.93,1.05-2.63,2.2-5.24,3.47-7.85,1.16-2.69,2.42-5.39,3.82-8.08,1.47-2.65,2.76-5.51,4.33-8.3.77-1.4,1.58-2.81,2.43-4.23.77-1.46,1.58-2.93,2.43-4.41l-3.8-2.2c-.85,1.48-1.66,2.96-2.44,4.43-.85,1.42-1.67,2.84-2.44,4.25-1.56,2.82-2.89,5.67-4.36,8.34-1.42,2.7-2.64,5.44-3.85,8.11-1.28,2.62-2.43,5.25-3.47,7.9-.26.67-.51,1.33-.76,1.99-.27.65-.54,1.3-.8,1.94-.53,1.29-1.03,2.58-1.5,3.88s-.93,2.61-1.36,3.92c-.21.66-.42,1.32-.63,1.98-.22.65-.45,1.29-.67,1.92-1.78,5.11-3.07,10.5-4.52,15.68-.68,2.63-1.31,5.3-1.89,8.01-.61,2.69-1.26,5.32-1.84,8.05-.59,2.72-1.14,5.49-1.68,8.29-.61,2.73-1.19,5.5-1.77,8.33-.59,2.89-1.17,5.76-1.75,8.62-.66,2.9-1.32,5.79-1.99,8.68-.68,2.94-1.37,5.96-2.13,8.98-.8,2.96-1.63,5.97-2.52,9.04-.9,3.08-1.83,6.27-2.87,9.41-1.07,3.1-2.22,6.25-3.45,9.43-.61,1.59-1.25,3.2-1.91,4.81-.66,1.62-1.34,3.24-2.09,4.8-1.47,3.16-3.05,6.35-4.75,9.57-.85,1.61-1.73,3.23-2.63,4.85-.92,1.6-1.9,3.14-2.9,4.73-2.01,3.15-4.15,6.31-6.44,9.49-1.13,1.61-2.35,3.13-3.6,4.65-1.25,1.52-2.54,3.05-3.87,4.57s-2.71,3.04-4.12,4.56c-.71.76-1.43,1.52-2.16,2.27-.75.72-1.5,1.44-2.26,2.16-3.06,2.88-6.31,5.74-9.74,8.56-1.71,1.45-3.51,2.72-5.35,4.05-1.84,1.31-3.73,2.62-5.67,3.91-1.94,1.29-3.93,2.57-5.98,3.82-2.06,1.17-4.18,2.33-6.35,3.47-2.17,1.14-4.39,2.26-6.67,3.36-1.14.54-2.29,1.11-3.46,1.62-1.18.48-2.37.97-3.56,1.46-19.15,7.95-42.19,13.1-68.4,13.11v4.39c27.04-.04,50.79-5.3,70.51-13.52,19.76-8.23,35.58-19.2,48.09-31.13,3.12-3.02,6.01-6.17,8.75-9.27,1.37-1.55,2.69-3.11,3.98-4.66,1.28-1.57,2.48-3.23,3.66-4.83,2.35-3.24,4.55-6.46,6.6-9.67,1.04-1.58,1.99-3.27,2.92-4.92.93-1.65,1.83-3.3,2.7-4.94,1.73-3.3,3.37-6.5,4.84-9.78,1.45-3.32,2.79-6.61,4.05-9.85,2.57-6.4,4.56-12.99,6.39-19.27Z"/>
          <path class="cls-6" d="M512.82,467.17l-3.8-2.2c-6.87,11.86-12.09,22.91-16.31,34.11-.53,1.4-.98,2.85-1.49,4.24-.53,1.37-1.02,2.76-1.49,4.17-.94,2.81-1.73,5.72-2.65,8.48-.88,2.8-1.61,5.72-2.38,8.59-.81,2.82-1.55,5.7-2.24,8.63-.17.74-.34,1.48-.5,2.21-.18.72-.37,1.44-.55,2.16-.36,1.44-.71,2.89-1.06,4.36-.34,1.5-.67,2.97-.99,4.44-.16.75-.32,1.5-.48,2.25-.18.73-.35,1.46-.52,2.18-1.41,5.81-2.59,11.97-4.06,17.82-.72,3.06-1.42,6.06-2.11,9.02-.74,2.98-1.54,5.9-2.32,8.89-.8,2.97-1.59,5.99-2.46,8.95-.9,2.9-1.82,5.82-2.79,8.73-.93,2.78-1.87,5.62-2.91,8.35-1.05,2.69-2.15,5.38-3.3,8.07-1.15,2.68-2.35,5.38-3.63,8.01-1.31,2.57-2.69,5.12-4.14,7.66-1.45,2.54-2.97,5.07-4.58,7.56-1.65,2.4-3.38,4.78-5.2,7.13-1.83,2.34-3.74,4.7-5.77,6.95-2.06,2.18-4.22,4.33-6.5,6.44-9.09,8.53-20.26,15.57-33.85,21.09-13.63,5.15-29.74,8.55-48.36,8.64v4.39c19.33-.08,36.05-3.61,50.15-8.97,3.51-1.44,6.88-2.96,10.09-4.54,1.6-.81,3.19-1.56,4.71-2.46,1.52-.89,3.01-1.8,4.46-2.72,2.9-1.84,5.67-3.74,8.3-5.69,2.61-2.04,5.08-4.19,7.43-6.34,1.18-1.08,2.32-2.17,3.44-3.27,1.12-1.1,2.21-2.19,3.25-3.38,2.09-2.35,4.07-4.72,5.95-7.13,3.8-4.71,7.05-9.93,10.03-15.1,3.02-5.09,5.56-10.63,7.93-16.09,2.4-5.39,4.41-11.16,6.31-16.84,1.96-5.66,3.57-11.69,5.16-17.55.39-1.45.78-2.91,1.18-4.39.39-1.46.72-3,1.08-4.48.69-2.91,1.4-5.88,2.12-8.9.74-2.89,1.35-5.94,2.01-8.91.66-2.97,1.33-5.9,2.04-8.79.63-2.99,1.28-5.95,1.97-8.84.35-1.45.71-2.89,1.08-4.31.34-1.45.68-2.91,1.02-4.39.69-2.92,1.48-5.74,2.27-8.58.72-2.91,1.52-5.77,2.4-8.56.22-.69.45-1.39.68-2.09.21-.71.42-1.43.63-2.15.43-1.43.88-2.84,1.36-4.24.47-1.4,1-2.77,1.5-4.16.47-1.43.96-2.84,1.49-4.25,4.24-11.2,9.51-22.28,16.4-34.19Z"/>
        </g>
        <path class="cls-6" d="M346.39,558.95v4.39c12-.06,22.68.61,32.98,2.13,2.56.32,5.11.79,7.65,1.29,2.5.37,5,.85,7.5,1.41,1.24.26,2.51.63,3.73.86,1.23.25,2.46.52,3.69.81,2.46.57,4.95,1.27,7.41,1.94,19.6,5.12,39.37,12.14,59.73,17.73.35-1.31.7-2.61,1.05-3.94-20.69-5.57-40.74-12.73-60.52-18-2.45-.56-4.98-1.36-7.46-1.95-1.24-.31-2.49-.59-3.73-.86-.62-.13-1.24-.25-1.86-.38-.62-.13-1.26-.3-1.88-.45-2.52-.6-5.03-1.1-7.55-1.5-1.25-.16-2.54-.46-3.82-.69-1.28-.23-2.57-.44-3.85-.62-10.33-1.54-21.03-2.23-33.08-2.18Z"/>
        <path class="cls-6" d="M629.79,534.84l-3.8-2.2c-.94,1.64-1.89,3.24-2.84,4.82-.92,1.59-2.01,3.05-3.02,4.54-2.05,2.94-4.11,5.76-6.18,8.45-2.12,2.66-4.36,5.12-6.55,7.51-2.21,2.36-4.34,4.68-6.69,6.71-2.3,2.07-4.6,4.03-6.89,5.87-1.16.92-2.27,1.84-3.45,2.67-1.19.83-2.37,1.64-3.56,2.42-4.74,3.12-9.36,5.91-14.23,8.07-4.82,2.2-9.47,4.15-14.36,5.51-2.41.71-4.8,1.34-7.18,1.9-1.19.28-2.37.54-3.56.79-1.19.24-2.41.42-3.61.6-4.82.71-9.56,1.19-14.27,1.43-4.8.12-9.54.04-14.22-.21-.3,1.41-.55,2.89-.88,4.27,19.45,1.31,39.43-.76,59.39-9.96,2.49-1.16,5-2.39,7.51-3.75,2.44-1.42,4.89-2.95,7.35-4.58,1.23-.82,2.46-1.66,3.7-2.53.61-.44,1.23-.88,1.86-1.32.61-.46,1.2-.94,1.8-1.42,2.39-1.93,4.78-3.97,7.18-6.13,1.19-1.09,2.42-2.18,3.58-3.35,1.15-1.18,2.3-2.39,3.44-3.63,2.29-2.49,4.6-5.09,6.87-7.84,2.17-2.82,4.33-5.77,6.47-8.85,1.05-1.55,2.18-3.09,3.17-4.75,1-1.65,1.99-3.33,2.98-5.05Z"/>
        <path class="cls-6" d="M346.39,602.82v4.39c2.77-.08,5.46-.08,8.1,0,1.32.04,2.62.1,3.91.18,1.29.03,2.55.05,3.81.08,2.51.09,4.97.25,7.39.49,1.21.15,2.4.18,3.58.27,1.18.09,2.35.19,3.52.31,2.32.23,4.62.58,6.88.92,2.25.25,4.47.58,6.68.96,2.2.36,4.4.88,6.56,1.29,2.15.39,4.29.84,6.42,1.35,2.13.5,4.27,1.08,6.38,1.65,2.1.5,4.2,1.06,6.31,1.66s4.22,1.24,6.33,1.93c2.12.7,4.2,1.25,6.32,1.94,2.11.66,4.24,1.36,6.39,2.09,2.15.73,4.32,1.5,6.46,2.16,4.31,1.39,8.71,2.87,13.24,4.41.65-1.27,1.23-2.64,1.84-3.94-18.46-5.98-35.14-12.04-52.45-16.11-2.17-.53-4.35-1.01-6.53-1.43-1.1-.23-2.18-.36-3.3-.62-1.11-.24-2.23-.46-3.35-.66-2.24-.41-4.5-.76-6.78-1.03-.57-.07-1.14-.13-1.72-.2-.58-.09-1.16-.18-1.74-.26-1.16-.17-2.34-.32-3.52-.45-2.36-.27-4.75-.42-7.19-.58-2.45-.25-4.95-.43-7.49-.52-1.27-.05-2.56-.07-3.86-.08-1.3-.06-2.63-.14-3.96-.18-2.67-.09-5.41-.09-8.22,0Z"/>
        <path class="cls-6" d="M667.76,556.81l-3.8-2.2c-11.38,19.66-24.88,35.23-38.82,47.26-3.56,2.95-7.11,5.71-10.63,8.31-.88.64-1.76,1.28-2.64,1.91-.9.61-1.81,1.19-2.71,1.78-1.81,1.16-3.6,2.28-5.39,3.36-7.07,4.41-14.41,7.77-21.42,10.7-1.74.75-3.54,1.38-5.32,1.99-1.78.61-3.55,1.19-5.3,1.74-1.75.55-3.49,1.06-5.22,1.55-1.73.48-3.42.96-5.18,1.32-3.48.76-6.9,1.4-10.26,1.95-1.68.27-3.35.52-5,.74-1.65.23-3.35.34-5,.48-13.18,1.14-25.67.45-37.38-1.2-.54,1.42-1.08,2.84-1.63,4.27,3,.45,6.09.89,9.19,1.21,3.08.27,6.21.49,9.42.64,3.2.14,6.49.25,9.79.21,3.27-.09,6.6-.26,10-.52,13.63-.98,27.81-4.1,42.63-9.76,3.65-1.47,7.31-3.14,11.03-4.93,1.86-.9,3.73-1.84,5.61-2.82,1.84-1.02,3.67-2.1,5.52-3.21,3.68-2.25,7.47-4.59,11.15-7.24,3.64-2.68,7.31-5.55,11-8.6,14.49-12.4,28.53-28.52,40.35-48.95Z"/>
      </g>
      <g>
        <g>
          <path class="cls-6" d="M211.69,636.54c3.06-.77,6.03-1.5,8.98-2.34,2.92-.88,5.83-1.75,8.74-2.63,2.8-.87,5.6-1.73,8.42-2.6,2.74-.92,5.49-1.84,8.25-2.78,2.71-.9,5.38-1.77,8.02-2.61,2.68-.94,5.32-1.83,7.94-2.68,2.62-.86,5.21-1.62,7.81-2.41,2.62-.85,5.22-1.65,7.82-2.37,10.37-2.81,20.85-5.42,31.97-6.74,11.2-1.69,23.07-2.29,36.75-2.2v-4.39c-13.76-.08-25.68.52-36.93,2.18-2.79.32-5.55.74-8.28,1.26-2.77.54-5.46,1.07-8.08,1.58-2.66.56-5.31,1.21-7.96,1.93-2.62.63-5.23,1.28-7.85,2.04-1.31.37-2.62.76-3.94,1.17-1.32.41-2.64.85-3.94,1.2-2.61.76-5.23,1.58-7.89,2.45-5.34,1.83-10.63,3.46-16.12,5.32-5.53,1.93-11.05,3.59-16.85,5.39-5.83,1.87-11.72,3.4-17.93,4.95-6.32,1.64-12.72,2.83-19.49,3.91-1.69.27-3.4.52-5.13.76-1.73.24-3.43.37-5.18.54-3.48.31-7.04.55-10.68.69-3.67.19-7.3.1-11.04-.04-3.74-.15-7.55-.42-11.45-.8-3.82-.49-7.71-1.12-11.69-1.89-1.99-.38-3.99-.81-6.02-1.26-1.99-.5-3.98-1.06-6-1.66-4.02-1.2-8.16-2.53-12.29-4.11-4.06-1.65-8.19-3.49-12.38-5.53-1.04-.52-2.09-1.04-3.15-1.57-1.02-.57-2.05-1.15-3.08-1.73-2.06-1.18-4.13-2.42-6.21-3.71-2.08-1.3-4.19-2.62-6.26-4.05-2.04-1.46-4.08-2.98-6.13-4.56-16.41-12.58-32.41-29.87-45.61-52.68l-3.8,2.2c13.61,23.53,30.12,41.35,47.03,54.29,2.12,1.62,4.19,3.21,6.32,4.68,2.16,1.45,4.31,2.83,6.45,4.16,4.28,2.66,8.47,5.14,12.81,7.19,4.31,2.09,8.5,4.04,12.72,5.68,4.27,1.59,8.48,2.99,12.6,4.23,1.03.3,2.06.6,3.08.89,1.03.28,2.08.51,3.12.75,2.07.48,4.13.91,6.16,1.31s4.04.76,6.04,1.09c1,.16,1.99.31,2.97.46,1.01.11,2.01.22,3,.33,7.99.78,15.52,1.22,23.02.83,3.72-.14,7.34-.38,10.89-.68,3.58-.36,7.13-.88,10.56-1.41,3.45-.55,6.8-1.11,10.11-1.78,3.34-.73,6.6-1.5,9.79-2.29Z"/>
          <path class="cls-6" d="M346.39,563.34v-4.39c-13.86-.05-26,1.03-37.75,2.95-11.72,1.92-23.04,4.83-34.52,8.24-2.85.82-5.69,1.6-8.58,2.51-1.46.47-2.91.93-4.34,1.38-1.45.46-2.86.85-4.31,1.29-2.88.87-5.79,1.79-8.72,2.74-1.48.5-2.91.9-4.37,1.33-1.47.44-2.93.88-4.38,1.31-2.93.87-5.91,1.83-8.86,2.67-3,.82-5.96,1.63-8.87,2.42-6.01,1.7-11.91,3.01-17.95,4.27-5.83,1.28-11.5,2.08-17.33,2.81-5.87.78-11.58,1.03-17.46,1.09-5.92.12-11.68-.36-17.61-1.13-5.99-.7-11.75-2.15-17.73-3.92-1.48-.46-3.01-.91-4.47-1.46-1.46-.55-2.92-1.14-4.39-1.75-2.94-1.23-5.9-2.6-8.88-4.1-2.93-1.55-5.8-3.32-8.72-5.2-1.46-.94-2.92-1.93-4.38-2.95-1.48-1.01-2.84-2.16-4.27-3.3-2.83-2.3-5.66-4.76-8.5-7.4-2.72-2.73-5.43-5.64-8.14-8.72-2.77-3.04-5.22-6.49-7.79-10.03-1.27-1.78-2.53-3.61-3.79-5.48-1.18-1.92-2.35-3.9-3.51-5.92l-3.8,2.2c1.21,2.1,2.42,4.15,3.65,6.14,1.3,1.95,2.61,3.84,3.93,5.69,2.64,3.69,5.22,7.23,8.08,10.4,2.82,3.2,5.57,6.25,8.44,9.04,2.93,2.74,5.86,5.3,8.78,7.68.73.59,1.46,1.18,2.19,1.76.74.57,1.51,1.1,2.26,1.63,1.51,1.06,3.02,2.08,4.52,3.07,1.5.98,3,1.92,4.49,2.83.75.45,1.5.89,2.24,1.33.77.4,1.54.8,2.3,1.2,6.16,3.1,12.09,5.77,18.29,7.56,3.06.94,6.09,1.76,9.1,2.46,3.03.68,6.13,1.15,9.15,1.57,3.03.41,6.03.73,9.02.96,3.05.14,6.07.2,9.07.19,3-.02,5.96-.09,8.93-.27,3.01-.24,6-.54,8.97-.89,2.97-.36,5.9-.74,8.85-1.21,2.99-.53,5.95-1.11,8.9-1.72,2.98-.63,5.91-1.23,8.88-1.95,2.93-.77,5.9-1.54,8.91-2.33,1.46-.39,2.92-.79,4.4-1.18,1.46-.39,2.91-.78,4.4-1.25,2.88-.86,5.8-1.74,8.78-2.64,1.43-.42,2.88-.85,4.33-1.28,1.44-.46,2.9-.92,4.37-1.39,2.91-.93,5.79-1.82,8.64-2.67,1.42-.4,2.87-.88,4.31-1.35,1.42-.44,2.85-.89,4.31-1.34,1.43-.43,2.85-.85,4.27-1.25.7-.2,1.41-.39,2.13-.59.71-.22,1.43-.44,2.16-.67,2.87-.87,5.72-1.67,8.55-2.37,1.41-.32,2.86-.77,4.29-1.15,1.43-.38,2.87-.74,4.29-1.08,1.43-.34,2.85-.63,4.28-.92,1.45-.36,2.9-.7,4.34-1,1.45-.31,2.9-.58,4.35-.82.72-.12,1.45-.23,2.18-.35.73-.14,1.47-.29,2.21-.43,11.77-1.91,23.96-2.91,37.87-2.89Z"/>
        </g>
        <path class="cls-6" d="M183.75,464.97l-3.8,2.2c5.95,10.28,10.7,19.9,14.54,29.62,1.04,2.36,1.97,4.77,2.81,7.22.21.62.41,1.23.62,1.84.22.6.45,1.19.67,1.79.44,1.19.85,2.4,1.25,3.61,1.5,4.95,3.1,9.67,4.35,14.69.3,1.27.66,2.47,1,3.69.34,1.22.66,2.45.98,3.7.31,1.27.61,2.52.91,3.76.3,1.26.56,2.55.89,3.77.63,2.47,1.22,4.98,1.79,7.52.28,1.29.56,2.57.83,3.84.27,1.29.6,2.51.88,3.78,2.29,10.16,4.58,20.44,7.22,30.66,1.31-.36,2.62-.71,3.95-1.07-5.48-20.72-9.28-41.67-14.7-61.46-.65-2.51-1.3-5.03-2.05-7.48-.37-1.23-.76-2.44-1.16-3.64-.36-1.24-.72-2.49-1.11-3.72-.76-2.48-1.67-4.84-2.54-7.28-.83-2.48-1.74-4.91-2.77-7.29-3.85-9.76-8.59-19.41-14.56-29.72Z"/>
        <path class="cls-6" d="M346.39,698.47v-4.39c-3.77-.08-7.44-.24-11.01-.48-1.78-.12-3.54-.26-5.28-.41-1.73-.21-3.44-.48-5.12-.74-3.36-.53-6.62-1.13-9.78-1.79-1.58-.3-3.13-.76-4.65-1.18-1.52-.43-3.02-.87-4.5-1.33-2.95-.93-5.8-1.86-8.55-2.93-2.74-1.14-5.38-2.34-7.93-3.57-2.54-1.26-5.01-2.46-7.36-3.88-2.34-1.43-4.6-2.9-6.77-4.39-2.17-1.51-4.26-3.01-6.26-4.61-1.98-1.66-3.88-3.36-5.71-5.07s-3.58-3.46-5.26-5.22c-1.69-1.75-3.25-3.7-4.78-5.57-1.52-1.89-2.98-3.81-4.38-5.73-1.4-1.92-2.74-3.85-3.99-5.93-2.51-4.08-4.81-8.21-6.95-12.36-1.38.46-2.73.87-4.12,1.31,8.56,17.52,20.35,33.82,38.34,46.5,2.25,1.56,4.6,3.08,7.03,4.56,1.22.73,2.45,1.51,3.73,2.16,1.28.66,2.58,1.32,3.91,1.96,2.65,1.28,5.4,2.52,8.26,3.71.72.29,1.44.58,2.16.88.73.25,1.47.51,2.21.77,1.49.5,3,.99,4.54,1.47,3.08.94,6.26,1.87,9.56,2.66,3.3.69,6.71,1.32,10.23,1.87,1.76.28,3.55.54,5.36.78,1.81.19,3.66.31,5.52.44,3.74.25,7.58.42,11.53.5Z"/>
        <path class="cls-6" d="M145.78,486.94l-3.8,2.2c.69,1.2,1.35,2.39,1.98,3.58.6,1.21,1.35,2.31,1.98,3.46,1.3,2.28,2.5,4.55,3.6,6.81,1.16,2.23,2.34,4.38,3.37,6.57,1.06,2.17,1.95,4.41,2.99,6.48.99,2.11,1.89,4.23,2.73,6.37.43,1.06.8,2.15,1.23,3.19.43,1.03.84,2.07,1.24,3.11,1.6,4.16,2.87,8.46,4.24,12.57,1.32,4.15,2.33,8.5,3.49,12.66.55,2.11,1.06,4.25,1.54,6.42.24,1.1.47,2.19.7,3.27.25,1.08.5,2.16.74,3.22.99,4.3,1.87,8.74,2.74,13.27.97,4.41,1.89,8.95,2.84,13.62,1.43-.09,2.84-.16,4.3-.33-4.02-18.99-7.11-36.5-12.27-53.54-.64-2.14-1.35-4.24-2.08-6.34-.67-2.16-1.4-4.31-2.19-6.43-.4-1.06-.81-2.12-1.24-3.18-.22-.52-.44-1.05-.66-1.58-.21-.54-.41-1.08-.62-1.63-.84-2.17-1.74-4.33-2.73-6.48-.5-1.06-1.01-2.14-1.53-3.23-.48-1.11-.99-2.22-1.51-3.33-1.05-2.22-2.2-4.43-3.42-6.66-1.11-2.3-2.32-4.6-3.64-6.92-.64-1.17-1.38-2.29-2.01-3.51-.64-1.21-1.31-2.42-2.01-3.63Z"/>
        <path class="cls-6" d="M346.39,742.34v-4.39c-22.61-.05-42.86-3.95-60.27-10.02-4.35-1.58-8.55-3.19-12.56-4.94-4-1.87-7.83-3.81-11.51-5.8-1.83-1.02-3.65-1.95-5.39-3.07-1.74-1.09-3.45-2.2-5.11-3.31-3.33-2.24-6.53-4.46-9.55-6.82-12.02-9.62-21.6-20.02-29.14-30.95-1.89-2.73-3.67-5.45-5.35-8.16-.42-.68-.83-1.36-1.24-2.03-.4-.69-.79-1.4-1.17-2.09-.77-1.4-1.51-2.79-2.24-4.18-2.89-5.56-5.48-10.94-7.62-16.54-1.51.24-3,.49-4.53.73,1.11,2.82,2.28,5.68,3.54,8.57,1.26,2.88,2.68,5.63,4.14,8.49,1.47,2.84,3.04,5.7,4.71,8.58,1.67,2.86,3.52,5.59,5.44,8.41,1.93,2.8,3.97,5.62,6.14,8.42,2.21,2.7,4.55,5.4,7.02,8.1,4.9,5.5,10.51,10.5,16.67,15.53,3.07,2.57,6.38,4.8,9.81,7.13,1.72,1.15,3.48,2.29,5.28,3.42.9.56,1.81,1.12,2.73,1.68.92.56,1.87,1.05,2.81,1.57,3.8,2.05,7.77,4.05,11.9,5.99,2.06,1,4.19,1.84,6.36,2.69,2.17.85,4.38,1.68,6.63,2.49,18.01,6.36,39.03,10.45,62.51,10.49Z"/>
      </g>
      <g>
        <g>
          <path class="cls-6" d="M49.21,387.2c4.48,4.53,8.88,8.78,13.14,12.87,4.32,3.9,8.62,7.8,13,11.76,4.28,3.79,8.58,7.48,12.55,11.2.98.93,2.03,1.85,3.06,2.77,1.01.92,2.02,1.84,3.04,2.77,2,1.85,3.94,3.73,5.82,5.63,1.94,1.89,3.92,3.77,5.78,5.71.94.97,1.86,1.95,2.76,2.94.91.99,1.77,2,2.73,2.99,1.87,1.99,3.68,4.04,5.41,6.16.89,1.05,1.67,2.15,2.59,3.22.9,1.07,1.79,2.16,2.66,3.27,6.79,8.95,13.43,18.86,20.23,30.65l3.8-2.2c-.85-1.49-1.72-2.93-2.6-4.34-.46-.7-.87-1.41-1.27-2.12-.41-.7-.82-1.4-1.23-2.1-.83-1.38-1.67-2.72-2.53-4.04-.87-1.31-1.75-2.58-2.53-3.89-1.62-2.57-3.32-5.03-5.08-7.38-1.68-2.39-3.32-4.72-5.09-6.94-.87-1.12-1.78-2.2-2.68-3.28-.84-1.1-1.7-2.18-2.58-3.24-1.76-2.13-3.58-4.18-5.48-6.18-1.77-2.04-3.6-4.03-5.5-5.98-1.88-1.95-3.94-3.84-5.79-5.76-7.75-7.61-16.07-14.9-24.67-22.58-2.18-1.96-4.34-3.91-6.5-5.85l-3.34-2.99c-1.12-1.01-2.16-2.03-3.26-3.07-2.2-2.11-4.39-4.23-6.6-6.35-2.21-2.17-4.55-4.4-6.66-6.7-2.18-2.33-4.39-4.72-6.6-7.2-1.1-1.25-2.21-2.51-3.32-3.78-.55-.64-1.1-1.29-1.66-1.94-.52-.66-1.05-1.31-1.57-1.97-2.09-2.66-4.17-5.4-6.23-8.26-2.03-2.85-4.17-5.81-5.99-8.88-1.87-3.07-3.71-6.26-5.5-9.57-.89-1.65-1.78-3.34-2.63-5.06-.8-1.71-1.58-3.46-2.34-5.24-1.53-3.56-2.98-7.25-4.35-11.08-1.34-3.83-2.39-7.77-3.44-11.87-2.2-8.22-3.29-16.91-4.07-26.25-.19-4.62-.24-9.39-.12-14.31.04-1.23.08-2.47.12-3.72.08-1.24.2-2.48.31-3.73.24-2.51.52-5.05.85-7.63,2.73-20.55,9.76-43.1,22.95-65.92l-3.8-2.2c-13.61,23.54-20.85,46.8-23.63,67.97-.68,5.31-1.24,10.44-1.3,15.52-.07,2.53-.1,5.02-.08,7.47.04,2.46,0,4.85.23,7.26.36,4.79.87,9.43,1.51,13.91.17,1.12.31,2.23.52,3.33.23,1.11.45,2.2.67,3.3.46,2.18.96,4.32,1.47,6.42,1.94,8.39,4.93,16.25,8,23.52.39.91.79,1.81,1.18,2.7.44.89.87,1.78,1.3,2.66.88,1.76,1.77,3.48,2.68,5.17,1.81,3.38,3.68,6.64,5.59,9.77,4.09,6.28,8.25,12.08,12.58,17.49,4.51,5.41,8.97,10.44,13.48,15.17Z"/>
          <path class="cls-6" d="M179.95,467.16l3.8-2.2c-6.85-11.87-13.78-21.85-21.37-31.03-1.88-2.3-3.94-4.5-5.79-6.73-.96-1.11-1.95-2.2-2.97-3.28-.99-1.09-2.12-2.13-3.06-3.22-1.96-2.15-4.03-4.26-6.18-6.34-.53-.52-1.1-1.03-1.61-1.56-.52-.53-1.03-1.05-1.54-1.57-1.04-1.04-2.1-2.08-3.18-3.11-4.45-4.11-8.61-8.24-13.19-12.35-.57-.52-1.15-1.03-1.71-1.54-.55-.52-1.09-1.04-1.63-1.55-1.12-1.05-2.22-2.09-3.31-3.11-2.32-2.13-4.58-4.21-6.81-6.26-4.32-4.21-8.85-8.48-13.27-12.84-4.23-4.36-8.56-8.82-12.69-13.42-3.8-4.39-7.53-8.91-11.13-13.59-3.41-4.66-6.63-9.5-9.68-14.55-2.93-5.04-5.47-10.28-7.84-15.81-.61-1.39-1.11-2.77-1.6-4.17-.49-1.4-.97-2.83-1.42-4.27-.91-2.88-1.73-5.84-2.47-8.88-.68-3.02-1.16-6.1-1.6-9.27-.21-1.59-.4-3.19-.56-4.82-.16-1.63-.32-3.29-.33-4.93-.08-3.3-.04-6.69.12-10.18.1-1.73.15-3.52.38-5.27.21-1.76.46-3.54.74-5.35,2.09-14.49,7.39-30.11,16.72-46.27l-3.8-2.2c-1.21,2.1-2.37,4.18-3.48,6.24-.57,1.02-1.09,2.06-1.57,3.11-.48,1.05-.96,2.09-1.44,3.12-.94,2.07-1.83,4.11-2.68,6.14-.86,2.02-1.67,4.02-2.32,6.06-1.37,4.04-2.57,7.99-3.61,11.85-.96,3.89-1.65,7.74-2.26,11.47-.29,1.87-.57,3.71-.78,5.53-.16,1.85-.28,3.67-.37,5.47-.18,3.6-.23,7.1-.17,10.51.19,3.45.51,6.81.93,10.08.44,3.27.88,6.43,1.68,9.57,2.86,12.48,7.65,23.71,13.73,34.06,1.55,2.59,3.15,5.12,4.79,7.6.82,1.24,1.65,2.47,2.49,3.68.84,1.21,1.79,2.43,2.69,3.62,1.83,2.39,3.69,4.74,5.58,7.05,1.91,2.31,3.74,4.58,5.84,6.83,2.07,2.27,4.15,4.51,6.24,6.72,1.04,1.09,2.09,2.19,3.14,3.29.52.54,1.04,1.09,1.57,1.63.55.54,1.1,1.08,1.66,1.62,2.17,2.11,4.37,4.24,6.6,6.42,2.21,2.12,4.28,4.23,6.61,6.31,2.19,2.03,4.42,4.1,6.7,6.22,1.08,1.02,2.16,2.05,3.26,3.1,1.12,1.01,2.25,2.03,3.39,3.07,2.24,2.05,4.42,4.09,6.54,6.15,2.15,2.05,4.44,4.08,6.54,6.15,4.11,4.16,8.59,8.26,12.42,12.59,2.11,2.12,4.12,4.28,6.03,6.5.47.56.94,1.12,1.41,1.68.49.55.99,1.11,1.5,1.67.99,1.12,1.95,2.25,2.88,3.41,7.58,9.21,14.52,19.24,21.4,31.16Z"/>
        </g>
        <path class="cls-6" d="M183.75,277.37l-3.8-2.2c-.74,1.29-1.5,2.54-2.28,3.77-.79,1.22-1.43,2.49-2.19,3.69-1.44,2.43-3.13,4.67-4.53,6.99-.74,1.14-1.5,2.25-2.28,3.35-.4.54-.8,1.08-1.19,1.62l-.61.8-.55.82c-1.49,2.17-3.06,4.25-4.73,6.27-.87.99-1.57,2.04-2.38,3.04-.79,1-1.61,1.99-2.44,2.97-.83.98-1.69,1.94-2.56,2.89-.8.97-1.62,1.93-2.45,2.88-1.67,1.9-3.45,3.75-5.24,5.58-1.68,1.86-3.43,3.69-5.25,5.49-14.36,14.41-30.29,28.09-45.28,42.96.94.96,1.86,1.92,2.81,2.89,3.75-3.62,7.59-7.32,11.56-11.16.92-.92,1.94-1.83,2.93-2.73.98-.9,1.96-1.8,2.96-2.72,1.96-1.81,3.89-3.61,5.77-5.41.92-.9,1.93-1.79,2.92-2.68.97-.88,1.94-1.77,2.93-2.68,1.93-1.78,3.81-3.57,5.64-5.37,1.95-1.78,3.87-3.56,5.71-5.36,1.88-1.79,3.56-3.63,5.48-5.43,1.86-1.81,3.66-3.64,5.37-5.5.42-.47.85-.93,1.28-1.4.45-.46.9-.92,1.36-1.39.9-.93,1.77-1.87,2.63-2.82,3.29-3.84,6.87-7.67,9.91-11.81,6.53-8.15,12.53-17.02,18.48-27.34Z"/>
        <path class="cls-6" d="M62.99,534.83l3.8-2.2c-.94-1.64-1.85-3.26-2.74-4.88-.44-.81-.87-1.61-1.3-2.41-.42-.81-.79-1.63-1.17-2.44-1.51-3.25-2.91-6.46-4.2-9.6-.32-.79-.63-1.57-.95-2.35-.3-.79-.55-1.59-.82-2.37-.53-1.58-1.03-3.14-1.5-4.69-.93-3.11-1.83-6.13-2.51-9.14-.63-3.04-1.17-6.01-1.61-8.93-.43-2.92-.85-5.76-.96-8.62-.16-2.84-.23-5.62-.23-8.35,0-2.72.05-5.38.35-8.03.26-2.64.58-5.23.97-7.76.2-1.26.41-2.52.63-3.75.12-.62.24-1.23.35-1.85.15-.62.3-1.23.44-1.84,1.23-4.9,2.68-9.58,4.33-14.09,3.64-9.07,7.94-17.39,13.31-25.28-1.09-.97-2.17-1.94-3.25-2.91-2.69,4.04-5.3,8.23-7.71,12.57-2.25,4.32-4.35,8.81-6.26,13.49-3.6,9.33-6.28,19.43-7.21,30.36-.63,5.51-.52,11.13-.21,17.06.08,1.48.19,2.97.31,4.48.17,1.5.39,3,.62,4.52.47,3.04,1.03,6.15,1.69,9.31.17.79.33,1.59.52,2.39.21.79.43,1.58.65,2.37.44,1.59.91,3.19,1.41,4.81.5,1.62,1.02,3.25,1.58,4.9.55,1.65,1.12,3.32,1.82,4.96,1.35,3.29,2.82,6.65,4.4,10.05.4.85.81,1.7,1.22,2.56.45.84.91,1.68,1.36,2.53.92,1.69,1.88,3.4,2.87,5.11Z"/>
        <path class="cls-6" d="M145.78,255.4l-3.8-2.2c-.69,1.2-1.38,2.37-2.09,3.51-.36.57-.71,1.14-1.06,1.7-.35.57-.66,1.15-.99,1.71-1.31,2.27-2.67,4.44-4.06,6.54-.35.52-.7,1.04-1.05,1.55-.33.53-.66,1.05-.98,1.57-.65,1.04-1.32,2.05-2,3.05-1.34,2-2.79,3.91-4.16,5.8-1.32,1.91-2.69,3.76-4.1,5.55-1.4,1.8-2.92,3.51-4.26,5.26-1.39,1.73-2.83,3.42-4.31,5.06-1.48,1.65-3.04,3.24-4.45,4.87-1.46,1.61-2.97,3.18-4.52,4.74-.79.78-1.58,1.55-2.36,2.31-.4.38-.8.76-1.2,1.14l-1.15,1.15c-3.07,3.07-6.3,6.07-9.67,9.04-6.41,6.02-13.5,11.96-20.38,18.31.81,1.19,1.62,2.37,2.44,3.55,3.49-3.15,6.99-6.31,10.55-9.52,3.57-3.09,7.02-6.14,10.31-9.21,6.79-6.09,13.11-12.22,19.26-18.69,2.91-3.28,6.09-6.55,8.91-10.06.71-.88,1.41-1.76,2.1-2.66.72-.88,1.46-1.78,2.2-2.68,1.45-1.81,2.85-3.68,4.2-5.61.33-.48.67-.97,1.01-1.46.36-.48.72-.96,1.08-1.45.71-.97,1.42-1.97,2.11-2.98s1.37-2.04,2.04-3.09c.66-1.05,1.31-2.13,2.05-3.17,1.42-2.12,2.8-4.32,4.14-6.62.33-.58.66-1.16,1-1.74.36-.57.72-1.15,1.08-1.73.72-1.16,1.42-2.35,2.12-3.57Z"/>
        <path class="cls-6" d="M25.02,556.8l3.8-2.2c-1.42-2.46-2.78-4.91-4.1-7.34-1.32-2.43-2.44-4.93-3.59-7.36-2.24-4.91-4.45-9.66-6.1-14.53-.87-2.41-1.69-4.8-2.47-7.17-.38-1.19-.76-2.36-1.14-3.53-.18-.59-.36-1.17-.54-1.75-.16-.59-.31-1.18-.47-1.77-1.23-4.72-2.29-9.34-3.21-13.85-.5-2.24-.76-4.54-1.08-6.77-.3-2.24-.57-4.45-.81-6.63-.23-2.18-.44-4.34-.6-6.47-.09-2.15-.15-4.28-.18-6.38-.05-4.2,0-8.28.21-12.27.32-4.01.75-7.91,1.28-11.7.26-1.89.55-3.76.86-5.6.34-1.84.77-3.67,1.18-5.47.84-3.59,1.76-7.08,2.76-10.46.93-3.37,2.24-6.67,3.46-9.86,1.25-3.19,2.56-6.27,3.92-9.26.65-1.49,1.42-2.97,2.18-4.42.76-1.45,1.53-2.88,2.31-4.28,1.56-2.81,3.15-5.53,4.78-8.16.41-.66.82-1.31,1.22-1.96.44-.65.87-1.29,1.31-1.93.88-1.28,1.76-2.53,2.65-3.77,1.78-2.47,3.57-4.87,5.37-7.19-.99-1.18-1.97-2.35-2.97-3.55-3.68,4.74-7.34,9.77-10.9,15.15-.91,1.35-1.72,2.71-2.54,4.1-.82,1.39-1.63,2.8-2.43,4.24-1.6,2.87-3.17,5.84-4.69,8.91-.79,1.54-1.45,3.09-2.12,4.67-.67,1.58-1.33,3.19-1.97,4.83-1.29,3.27-2.52,6.65-3.67,10.14-1.04,3.47-1.98,7.05-2.85,10.75-.84,3.69-1.73,7.53-2.21,11.42-.54,3.9-.99,7.92-1.32,12.06-.07,1.04-.15,2.08-.22,3.13-.02,1.04-.05,2.09-.07,3.14-.03,2.11-.04,4.25,0,6.42-.02,8.71,1.08,17.71,2.63,27.19,3.53,18.8,10.55,39.04,22.37,59.48Z"/>
      </g>
      <g>
        <g>
          <path class="cls-6" d="M183.91,121.85c-1.8,5.95-3.17,12.06-4.53,17.83-1.4,5.72-2.49,11.57-3.66,17.13-1.22,5.5-2.22,11.12-3.4,16.47-1.25,5.29-2.29,10.76-3.7,15.92-.35,1.28-.7,2.58-1.06,3.89-.33,1.32-.68,2.64-1.04,3.94-.73,2.61-1.52,5.19-2.4,7.73-.83,2.59-1.65,5.23-2.62,7.79-.48,1.29-.98,2.57-1.51,3.85-.55,1.26-.99,2.63-1.53,3.93-1.05,2.63-2.2,5.24-3.47,7.85-1.16,2.69-2.42,5.39-3.82,8.08-1.47,2.65-2.76,5.51-4.33,8.3-.77,1.4-1.58,2.81-2.43,4.23-.77,1.46-1.58,2.93-2.43,4.41l3.8,2.2c.85-1.48,1.66-2.96,2.44-4.43.85-1.42,1.67-2.84,2.44-4.25,1.56-2.82,2.89-5.67,4.36-8.34,1.42-2.7,2.64-5.44,3.85-8.11,1.28-2.62,2.43-5.25,3.47-7.9.26-.67.51-1.33.76-1.99.27-.65.54-1.3.8-1.94.53-1.29,1.03-2.58,1.5-3.88.48-1.3.93-2.61,1.36-3.92.21-.66.42-1.32.63-1.98.22-.65.45-1.29.67-1.92,1.78-5.11,3.07-10.5,4.52-15.68.68-2.63,1.31-5.3,1.89-8.01.61-2.69,1.26-5.32,1.84-8.05.59-2.72,1.14-5.49,1.68-8.29.61-2.73,1.19-5.5,1.77-8.33.59-2.89,1.17-5.76,1.75-8.62.66-2.9,1.32-5.79,1.99-8.68.68-2.94,1.37-5.96,2.13-8.98.8-2.96,1.63-5.97,2.52-9.04.9-3.08,1.83-6.27,2.87-9.41,1.07-3.1,2.22-6.25,3.45-9.43.61-1.59,1.25-3.2,1.91-4.81.66-1.62,1.34-3.24,2.09-4.8,1.47-3.16,3.05-6.35,4.75-9.57.85-1.61,1.73-3.23,2.63-4.85.92-1.6,1.9-3.14,2.9-4.73,2.01-3.15,4.15-6.31,6.44-9.49,1.13-1.61,2.35-3.13,3.6-4.65,1.25-1.52,2.54-3.05,3.87-4.57,1.33-1.52,2.71-3.04,4.12-4.56.71-.76,1.43-1.52,2.16-2.27.75-.72,1.5-1.44,2.26-2.16,3.06-2.88,6.31-5.74,9.74-8.56,1.71-1.45,3.51-2.72,5.35-4.05,1.84-1.31,3.73-2.62,5.67-3.91,1.94-1.29,3.93-2.57,5.98-3.82,2.06-1.17,4.18-2.33,6.35-3.47,2.17-1.14,4.39-2.26,6.67-3.36,1.14-.54,2.29-1.11,3.46-1.62,1.18-.48,2.37-.97,3.56-1.46,19.15-7.95,42.18-13.1,68.4-13.11V0c-27.04.04-50.79,5.3-70.51,13.52-19.76,8.23-35.58,19.2-48.09,31.13-3.12,3.02-6.01,6.17-8.75,9.27-1.37,1.55-2.69,3.11-3.98,4.66-1.28,1.57-2.48,3.23-3.66,4.83-2.35,3.24-4.55,6.46-6.6,9.67-1.04,1.58-1.99,3.27-2.92,4.92-.93,1.65-1.83,3.3-2.7,4.94-1.73,3.3-3.37,6.5-4.84,9.78-1.45,3.32-2.79,6.61-4.05,9.85-2.57,6.4-4.56,12.99-6.39,19.27Z"/>
          <path class="cls-6" d="M179.96,275.17l3.8,2.2c6.87-11.86,12.09-22.91,16.31-34.11.53-1.4.98-2.85,1.49-4.24.53-1.37,1.02-2.76,1.49-4.17.94-2.81,1.73-5.72,2.65-8.48.88-2.8,1.61-5.72,2.38-8.59.81-2.82,1.55-5.7,2.24-8.63.17-.74.34-1.48.5-2.21.18-.72.37-1.44.55-2.16.36-1.44.72-2.89,1.06-4.36.34-1.5.67-2.97.99-4.44.16-.75.32-1.5.48-2.25.18-.73.35-1.46.52-2.18,1.41-5.81,2.59-11.97,4.06-17.82.72-3.06,1.42-6.06,2.11-9.02.74-2.99,1.54-5.9,2.32-8.89.8-2.97,1.59-5.99,2.46-8.95.9-2.9,1.82-5.82,2.79-8.73.93-2.78,1.87-5.62,2.91-8.35,1.05-2.69,2.15-5.38,3.3-8.07,1.15-2.68,2.35-5.38,3.63-8.01,1.31-2.57,2.69-5.12,4.14-7.66,1.45-2.54,2.97-5.07,4.58-7.56,1.65-2.4,3.38-4.78,5.2-7.13,1.83-2.34,3.74-4.7,5.77-6.95,2.06-2.18,4.22-4.33,6.5-6.44,9.09-8.53,20.26-15.57,33.85-21.09,13.63-5.15,29.74-8.55,48.37-8.64v-4.39c-19.33.08-36.05,3.61-50.15,8.97-3.51,1.44-6.88,2.96-10.09,4.54-1.6.81-3.19,1.56-4.71,2.46-1.52.89-3.01,1.8-4.46,2.72-2.9,1.84-5.67,3.74-8.3,5.69-2.61,2.04-5.08,4.19-7.43,6.34-1.18,1.08-2.32,2.17-3.44,3.27-1.12,1.1-2.21,2.19-3.25,3.38-2.09,2.35-4.07,4.72-5.95,7.13-3.8,4.71-7.05,9.93-10.03,15.1-3.02,5.09-5.56,10.63-7.93,16.09-2.4,5.39-4.41,11.16-6.31,16.84-1.96,5.66-3.57,11.69-5.16,17.55-.39,1.45-.78,2.91-1.18,4.39-.39,1.46-.72,3-1.08,4.48-.69,2.91-1.4,5.88-2.12,8.9-.74,2.89-1.35,5.94-2.01,8.91-.66,2.97-1.33,5.9-2.04,8.79-.63,2.99-1.28,5.95-1.97,8.85-.35,1.45-.71,2.89-1.08,4.31-.34,1.45-.68,2.91-1.02,4.39-.69,2.92-1.48,5.74-2.27,8.58-.72,2.91-1.52,5.77-2.4,8.56-.22.69-.45,1.39-.68,2.09-.21.71-.42,1.43-.63,2.15-.43,1.43-.88,2.84-1.36,4.24-.47,1.4-1,2.77-1.5,4.16-.47,1.43-.96,2.84-1.49,4.25-4.24,11.2-9.51,22.28-16.41,34.19Z"/>
        </g>
        <path class="cls-6" d="M346.39,183.39v-4.39c-12,.06-22.68-.61-32.98-2.13-2.56-.32-5.11-.79-7.65-1.29-2.5-.37-5-.85-7.5-1.41-1.24-.26-2.51-.63-3.73-.86-1.23-.25-2.46-.52-3.69-.81-2.46-.57-4.95-1.27-7.41-1.94-19.61-5.12-39.37-12.14-59.73-17.73-.35,1.31-.7,2.61-1.05,3.94,20.69,5.57,40.74,12.73,60.52,18,2.45.56,4.98,1.36,7.46,1.95,1.24.31,2.49.59,3.73.86.62.13,1.24.25,1.86.38.62.12,1.26.3,1.88.45,2.52.6,5.03,1.1,7.55,1.5,1.25.16,2.54.46,3.82.69,1.28.23,2.57.44,3.85.62,10.33,1.54,21.04,2.23,33.08,2.18Z"/>
        <path class="cls-6" d="M62.99,207.5l3.8,2.2c.94-1.64,1.89-3.24,2.84-4.82.92-1.59,2.01-3.05,3.02-4.54,2.05-2.94,4.11-5.76,6.18-8.45,2.12-2.66,4.36-5.12,6.55-7.51,2.21-2.36,4.34-4.68,6.69-6.71,2.3-2.07,4.6-4.03,6.89-5.87,1.16-.92,2.27-1.84,3.45-2.67,1.19-.83,2.37-1.64,3.56-2.42,4.74-3.12,9.36-5.91,14.23-8.07,4.82-2.2,9.47-4.15,14.36-5.51,2.41-.71,4.8-1.34,7.18-1.9,1.19-.28,2.37-.54,3.56-.79,1.19-.24,2.41-.42,3.61-.6,4.82-.71,9.56-1.19,14.27-1.43,4.8-.12,9.54-.04,14.22.21.3-1.41.55-2.89.88-4.27-19.45-1.31-39.43.76-59.39,9.96-2.49,1.16-5,2.39-7.51,3.75-2.44,1.42-4.89,2.95-7.35,4.58-1.23.82-2.46,1.66-3.7,2.53-.62.44-1.23.88-1.86,1.32-.61.46-1.2.94-1.8,1.42-2.39,1.93-4.78,3.97-7.18,6.13-1.19,1.09-2.42,2.18-3.58,3.34-1.15,1.18-2.3,2.39-3.44,3.63-2.29,2.49-4.6,5.09-6.87,7.84-2.17,2.82-4.33,5.77-6.47,8.85-1.05,1.55-2.18,3.09-3.17,4.75-1,1.65-1.99,3.33-2.98,5.05Z"/>
        <path class="cls-6" d="M346.39,139.52v-4.39c-2.77.08-5.46.08-8.1,0-1.32-.04-2.62-.1-3.91-.18-1.29-.03-2.55-.05-3.81-.08-2.51-.09-4.97-.25-7.39-.49-1.21-.15-2.4-.18-3.58-.27-1.18-.09-2.35-.19-3.52-.31-2.32-.23-4.62-.58-6.88-.92-2.25-.25-4.47-.58-6.68-.96-2.2-.36-4.4-.88-6.56-1.29-2.15-.39-4.29-.84-6.42-1.35-2.13-.5-4.27-1.08-6.38-1.65-2.1-.5-4.2-1.06-6.31-1.66s-4.22-1.24-6.33-1.93c-2.12-.7-4.2-1.25-6.32-1.94-2.11-.66-4.24-1.36-6.39-2.09-2.15-.73-4.32-1.5-6.46-2.16-4.31-1.39-8.71-2.87-13.24-4.41-.65,1.27-1.23,2.64-1.84,3.94,18.46,5.98,35.14,12.04,52.45,16.11,2.17.53,4.35,1.01,6.53,1.43,1.1.23,2.18.36,3.3.62,1.11.24,2.23.46,3.35.66,2.24.41,4.5.76,6.78,1.03.57.07,1.14.13,1.72.2.58.09,1.16.18,1.74.26,1.16.17,2.34.32,3.52.45,2.36.27,4.75.43,7.19.58,2.45.25,4.95.43,7.49.52,1.27.05,2.56.07,3.86.08,1.3.06,2.63.14,3.96.18,2.67.09,5.41.09,8.22,0Z"/>
        <path class="cls-6" d="M25.02,185.53l3.8,2.2c11.38-19.66,24.88-35.23,38.82-47.26,3.56-2.95,7.11-5.71,10.63-8.31.88-.64,1.76-1.28,2.64-1.91.9-.61,1.81-1.19,2.71-1.78,1.81-1.16,3.6-2.28,5.39-3.36,7.07-4.41,14.41-7.77,21.42-10.7,1.74-.75,3.54-1.38,5.32-1.99,1.78-.61,3.55-1.19,5.3-1.74,1.75-.55,3.49-1.06,5.22-1.55,1.73-.48,3.42-.96,5.18-1.32,3.48-.76,6.9-1.4,10.26-1.95,1.68-.27,3.35-.52,5-.74,1.65-.23,3.35-.34,5-.48,13.18-1.14,25.67-.45,37.38,1.2.54-1.42,1.08-2.84,1.63-4.27-3-.45-6.09-.89-9.19-1.21-3.08-.27-6.21-.49-9.42-.64-3.2-.14-6.49-.25-9.79-.21-3.27.09-6.6.26-10,.52-13.63.98-27.81,4.1-42.63,9.76-3.65,1.47-7.31,3.14-11.03,4.93-1.86.9-3.73,1.84-5.61,2.82-1.84,1.02-3.67,2.1-5.52,3.21-3.68,2.25-7.47,4.59-11.15,7.24-3.64,2.68-7.31,5.55-11,8.6-14.49,12.4-28.53,28.52-40.36,48.95Z"/>
      </g>
    </g>
    <g>
      <path class="cls-18" d="M489.06,152.19c-5,1.02-10,2.18-14.95,3.46,5.31,20.44,9.12,41.07,14.5,60.73,2.69,9.86,5.78,19.52,9.69,29.17,3.91,9.67,8.65,19.31,14.6,29.59l34.18-19.77c-5.62-9.7-10.27-18.6-14.13-27.28-3.86-8.67-6.94-17.11-9.52-25.65-5.17-17.04-8.26-34.57-12.32-53.5-7.39.65-14.72,1.78-22.04,3.27Z"/>
      <path class="cls-3" d="M481.13,105.72c5.31-1.32,10.8-2.5,16.46-3.49-4.4-10.99-10.04-22.15-17.62-33.01-7.58-10.85-17.1-21.41-29.17-30.89-12.05-9.47-26.68-17.87-44.12-23.99-17.41-6.12-37.68-9.95-60.28-9.95v39.48c15.8,0,29.91,2.33,42.21,6.17,12.32,3.85,22.86,9.22,31.85,15.53,18,12.68,29.8,28.95,38.34,46.52,7.15-2.26,14.55-4.44,22.33-6.38Z"/>
      <path class="cls-8" d="M346.39,179v-39.48c13.76.02,25.7-.66,36.94-2.2,11.22-1.53,21.71-3.9,32.2-6.86,10.48-2.96,20.93-6.5,31.88-10.12,10.95-3.62,22.4-7.31,34.79-10.34,12.51-3.05,25.98-5.41,40.48-5.88,14.48-.47,30.01.96,46.22,5.64,16.18,4.68,33.07,12.65,49.52,25.26,16.41,12.59,32.41,29.88,45.62,52.69l-34.18,19.77c-9.72-16.77-21.11-29.51-32.92-38.94-11.83-9.44-24.09-15.59-36.27-19.4-12.2-3.8-24.34-5.25-36.33-5.19-12,.07-23.86,1.64-35.65,4.08-11.91,2.47-23.73,5.82-35.38,9.36-11.66,3.54-23.13,7.26-34.54,10.56-11.42,3.3-22.75,6.16-34.5,8.11-11.79,1.96-23.97,2.97-37.88,2.95Z"/>
      <path class="cls-7" d="M607.33,385.28c-3.38-3.82-6.9-7.56-10.49-11.22-15.03,14.88-30.95,28.55-45.26,42.98-7.18,7.23-13.98,14.69-20.37,22.84-6.41,8.16-12.37,17.04-18.32,27.32l34.18,19.77c5.61-9.71,11-18.16,16.59-25.82,5.58-7.66,11.35-14.52,17.45-21.01,12.16-12.97,25.77-24.42,40.11-37.44-4.27-6.06-8.93-11.84-13.89-17.43Z"/>
      <path class="cls-9" d="M643.59,355.14c3.79,3.93,7.57,8.1,11.25,12.49,7.31-9.29,14.16-19.74,19.78-31.71,5.62-11.97,10.02-25.48,12.22-40.66,2.19-15.17,2.18-32.03-1.22-50.22-3.4-18.16-10.2-37.67-21.58-57.34l-34.18,19.77c7.94,13.73,12.98,27.13,15.79,39.72,2.82,12.61,3.42,24.43,2.44,35.37-2.01,21.92-10.23,40.26-21.19,56.44,5.53,5.06,11.12,10.38,16.68,16.15Z"/>
      <path class="cls-16" d="M512.9,275.13l34.18-19.77c6.85,11.86,13.39,21.86,20.33,30.81,6.92,8.95,14.21,16.86,22.01,24.47,7.79,7.6,16.08,14.9,24.68,22.58,8.6,7.69,17.52,15.76,26.34,24.97,8.89,9.3,17.69,19.75,25.37,32.04,7.67,12.28,14.23,26.43,18.3,42.83,4.06,16.37,5.61,35.04,2.89,55.65-2.72,20.56-9.76,43.12-22.95,65.93l-34.18-19.77c9.7-16.78,15.07-33.04,17.35-47.99,2.28-14.98,1.48-28.71-1.32-41.17-2.82-12.47-7.65-23.71-13.71-34.06-6.08-10.35-13.4-19.81-21.42-28.79-8.11-9.07-16.93-17.66-25.81-26-8.89-8.35-17.85-16.45-26.4-24.7-8.56-8.26-16.69-16.65-24.24-25.86-7.57-9.22-14.52-19.25-21.41-31.18Z"/>
      <path class="cls-13" d="M464.67,604.26c1.61-4.84,3.09-9.75,4.45-14.69-20.37-5.58-40.13-12.57-59.77-17.78-9.85-2.61-19.7-4.79-29.97-6.25-10.29-1.47-20.99-2.21-32.99-2.2v39.48c11.26,0,21.3.44,30.74,1.45,9.43,1.01,18.26,2.58,26.93,4.64,17.31,4.07,34.02,10.16,52.45,16.08,3.12-6.73,5.79-13.65,8.16-20.73Z"/>
      <path class="cls-10" d="M508.91,620.55c-1.5,5.26-3.21,10.61-5.18,16,11.72,1.66,24.2,2.34,37.38,1.19,13.17-1.15,27.05-4.11,41.27-9.79,14.2-5.68,28.75-14.09,42.78-26.08,14-11.97,27.49-27.56,38.88-47.23l-34.18-19.77c-7.94,13.72-17.04,24.76-26.53,33.47-9.51,8.72-19.43,15.13-29.38,19.75-19.96,9.2-39.94,11.29-59.43,9.93-1.6,7.32-3.4,14.83-5.61,22.53Z"/>
      <path class="cls-14" d="M512.89,467.21l34.18,19.77c-6.87,11.85-12.29,22.52-16.59,33.02-4.31,10.48-7.54,20.77-10.22,31.34-2.69,10.56-4.85,21.39-7.18,32.69-2.34,11.3-4.84,23.06-8.39,35.31-3.59,12.36-8.26,25.22-15.08,38.03-6.82,12.79-15.82,25.55-28.01,37.26-12.17,11.69-27.58,22.34-46.79,30.27-19.16,7.9-42.19,13.04-68.41,13.05v-39.48c19.32-.01,36.06-3.46,50.15-8.95,14.11-5.5,25.61-13.03,35.01-21.69,9.41-8.66,16.74-18.46,22.68-28.88,5.93-10.43,10.48-21.5,14.24-32.93,3.8-11.56,6.78-23.47,9.53-35.34,2.75-11.87,5.26-23.69,8.13-35.24,2.87-11.57,6.11-22.84,10.35-34.03,4.24-11.21,9.51-22.29,16.41-34.2Z"/>
      <path class="cls-4" d="M203.72,590.15c5-1.02,10-2.18,14.95-3.46-5.31-20.44-9.12-41.07-14.5-60.73-2.69-9.86-5.78-19.52-9.69-29.17-3.91-9.67-8.65-19.31-14.6-29.59l-34.18,19.77c5.62,9.7,10.27,18.6,14.13,27.28,3.86,8.67,6.94,17.11,9.52,25.65,5.17,17.04,8.25,34.57,12.32,53.5,7.38-.65,14.72-1.78,22.04-3.27Z"/>
      <path class="cls-15" d="M211.65,636.62c-5.31,1.32-10.8,2.5-16.46,3.49,4.4,10.99,10.04,22.15,17.62,33.01,7.58,10.85,17.1,21.41,29.17,30.89,12.06,9.47,26.68,17.87,44.12,23.99,17.41,6.12,37.68,9.95,60.28,9.95v-39.48c-15.8,0-29.91-2.33-42.21-6.17-12.32-3.85-22.86-9.22-31.85-15.53-18-12.68-29.8-28.95-38.34-46.52-7.15,2.26-14.55,4.44-22.33,6.38Z"/>
      <path class="cls-5" d="M346.39,563.34v39.48c-13.76-.01-25.7.67-36.94,2.2-11.22,1.53-21.71,3.9-32.2,6.86-10.48,2.96-20.93,6.5-31.88,10.12-10.95,3.62-22.4,7.31-34.79,10.34-12.51,3.05-25.98,5.41-40.48,5.88-14.48.47-30.01-.96-46.22-5.65-16.18-4.68-33.07-12.65-49.52-25.26-16.41-12.59-32.41-29.88-45.62-52.69l34.18-19.77c9.72,16.77,21.11,29.51,32.92,38.94,11.83,9.44,24.09,15.59,36.27,19.4,12.2,3.8,24.34,5.25,36.33,5.19,12-.07,23.86-1.64,35.65-4.08,11.91-2.47,23.73-5.82,35.38-9.36,11.66-3.54,23.13-7.26,34.54-10.56,11.42-3.3,22.75-6.16,34.5-8.11,11.79-1.96,23.97-2.97,37.88-2.95Z"/>
      <path class="cls-2" d="M85.44,357.06c3.38,3.82,6.9,7.56,10.49,11.22,15.03-14.88,30.95-28.55,45.26-42.98,7.18-7.23,13.98-14.69,20.37-22.84,6.41-8.16,12.38-17.04,18.32-27.32l-34.18-19.77c-5.61,9.71-11,18.16-16.59,25.82-5.58,7.66-11.35,14.52-17.45,21.01-12.16,12.97-25.77,24.42-40.12,37.44,4.27,6.06,8.93,11.84,13.89,17.43Z"/>
      <path class="cls-11" d="M49.19,387.2c-3.79-3.93-7.57-8.1-11.25-12.49-7.31,9.29-14.16,19.74-19.78,31.71-5.62,11.97-10.02,25.48-12.22,40.66-2.19,15.17-2.18,32.03,1.22,50.22,3.4,18.16,10.2,37.67,21.58,57.34l34.18-19.77c-7.94-13.73-12.98-27.12-15.79-39.72-2.82-12.61-3.42-24.43-2.44-35.37,2.01-21.92,10.22-40.26,21.18-56.44-5.53-5.06-11.12-10.38-16.68-16.15Z"/>
      <path class="cls-1" d="M179.88,467.2l-34.18,19.77c-6.85-11.86-13.39-21.86-20.33-30.81-6.92-8.95-14.21-16.86-22.01-24.47-7.79-7.6-16.08-14.9-24.69-22.58-8.6-7.69-17.52-15.76-26.34-24.97-8.9-9.3-17.69-19.75-25.37-32.05-7.67-12.28-14.23-26.43-18.3-42.83-4.06-16.37-5.61-35.04-2.89-55.65,2.72-20.56,9.77-43.12,22.96-65.93l34.18,19.77c-9.7,16.78-15.07,33.04-17.35,47.99-2.28,14.98-1.48,28.71,1.32,41.17,2.82,12.47,7.64,23.71,13.71,34.06,6.08,10.35,13.4,19.81,21.42,28.8,8.11,9.07,16.93,17.65,25.81,25.99,8.89,8.35,17.85,16.45,26.4,24.7,8.56,8.26,16.69,16.65,24.24,25.86,7.58,9.22,14.52,19.25,21.41,31.18Z"/>
      <path class="cls-17" d="M228.11,138.08c-1.61,4.84-3.09,9.75-4.45,14.69,20.37,5.58,40.13,12.57,59.77,17.78,9.85,2.61,19.7,4.79,29.97,6.25,10.29,1.47,21,2.21,32.99,2.2v-39.48c-11.26,0-21.3-.44-30.74-1.45-9.43-1.01-18.26-2.58-26.93-4.63-17.31-4.07-34.02-10.16-52.46-16.08-3.12,6.73-5.79,13.65-8.16,20.73Z"/>
      <path class="cls-12" d="M183.88,121.79c1.5-5.26,3.21-10.61,5.18-16-11.72-1.66-24.2-2.34-37.38-1.19-13.17,1.15-27.05,4.11-41.27,9.79-14.2,5.68-28.75,14.09-42.78,26.08-14,11.97-27.49,27.56-38.88,47.22l34.18,19.77c7.95-13.72,17.04-24.75,26.53-33.47,9.51-8.72,19.43-15.13,29.38-19.74,19.96-9.2,39.94-11.29,59.43-9.92,1.6-7.32,3.4-14.83,5.61-22.53Z"/>
      <path class="cls-20" d="M179.88,275.13l-34.18-19.77c6.87-11.85,12.29-22.52,16.6-33.02,4.31-10.48,7.54-20.77,10.23-31.34,2.7-10.56,4.85-21.39,7.18-32.69,2.34-11.3,4.84-23.06,8.39-35.31,3.59-12.36,8.26-25.22,15.08-38.03,6.82-12.79,15.82-25.55,28.01-37.26,12.17-11.69,27.58-22.34,46.79-30.27,19.16-7.9,42.19-13.04,68.41-13.05v39.48c-19.32.01-36.07,3.46-50.15,8.95-14.11,5.5-25.61,13.04-35.01,21.69-9.41,8.66-16.74,18.46-22.68,28.88-5.93,10.43-10.48,21.5-14.24,32.93-3.8,11.56-6.78,23.47-9.53,35.34-2.75,11.87-5.26,23.69-8.13,35.24-2.87,11.57-6.11,22.84-10.35,34.03-4.24,11.21-9.51,22.29-16.42,34.2Z"/>
    </g>
  </g>
</svg>