<?xml version="1.0" encoding="UTF-8"?><svg id="Layer_2" xmlns="http://www.w3.org/2000/svg" viewBox="0 0 200 200"><defs><style>.cls-1{fill:#fff;}.cls-2{fill:#fff;}.cls-3{fill:none;}</style></defs><g id="Layer_1-2"><g id="Layer_1-2"><rect class="cls-3" width="200" height="200"/></g><path class="cls-2" d="M100,53.03c25.9,0,46.97,21.07,46.97,46.97s-21.07,46.98-46.97,46.98-46.97-21.07-46.97-46.98,21.07-46.97,46.97-46.97m0-12c-32.57,0-58.97,26.4-58.97,58.97s26.4,58.98,58.97,58.98,58.97-26.4,58.97-58.98-26.4-58.97-58.97-58.97h0Z"/><path class="cls-1" d="M116.39,96.97c1.06,.65,1.7,1.79,1.7,3.03s-.64,2.39-1.7,3.03l-21.31,13.02c-1.09,.67-2.47,.7-3.59,.07s-1.81-1.81-1.81-3.1v-26.04c0-1.29,.7-2.47,1.81-3.1s2.49-.6,3.59,.07l21.31,13.02Z"/></g></svg>