<?xml version="1.0" encoding="UTF-8"?>
<svg id="Layer_2" xmlns="http://www.w3.org/2000/svg" version="1.1" viewBox="0 0 155.3 159.8">
  <!-- Generator: Adobe Illustrator 29.3.1, SVG Export Plug-In . SVG Version: 2.1.0 Build 151)  -->
  <defs>
    <style>
      .st0 {
        fill: none;
      }

      .st1 {
        fill: #00539f;
      }
    </style>
  </defs>
  <g id="Main_layer">
    <rect class="st0" width="155.3" height="141.8"/>
    <polygon class="st1" points="44 50.1 44 39 15 39 15 50.1 21.7 50.1 21.7 73.8 15 73.8 15 84.9 44 84.9 44 73.8 37.4 73.8 37.4 50.1 44 50.1"/>
    <path class="st1" d="M76,56.6c-1.8-.5-11-3.2-12.6-3.7s-2.9-1.3-2.9-2.2,1.5-2,4.4-2c9.3,0,13.8,5.8,13.8,5.8,0,0,.5.7.7.9h9v-15.7h-9.7v2.9c-.7-.5-6.2-4.1-14.7-4.1s-17.4,5.8-17.4,14.5,7.8,12.2,10,13.2,10.7,3.3,14.4,4.5,5,1.9,5,2.5-1.6,2.1-6.2,2.1c-7.9,0-12-4.7-12.8-5.6h0c-.2-.3-.5-.7-.6-.8-.1-.2-.3-.5-.5-.8h-9v16.8h10.1v-3.5c1.2.8,7.2,4.6,14.4,4.6s18.4-3.5,18.4-14.5-12.2-14.3-14-14.8h0Z"/>
    <path class="st1" d="M115.7,38.3c-13.5,0-24.5,6.7-24.5,23.9s12,23.6,24.6,23.6,24.5-6.4,24.5-23.5-11.9-24.1-24.5-24.1h0ZM115.8,74.4c-4.6,0-7.6-1.1-7.6-12.2s2.2-12.4,7.7-12.4,7.4.2,7.4,12-3,12.6-7.6,12.6h0Z"/>
    <g>
      <path class="st1" d="M34.3,33.9c3-4.5,6.8-8.4,11-11.7,1.7,1.3,3.6,2.4,5.5,3.5-3.2,3.6-6.1,7.6-6.6,8.3h1.9c1.2-1.6,3.6-4.7,6.1-7.5,2.8,1.4,5.7,2.5,8.8,3.3-.8,1.7-1.4,3.3-1.8,4.2h1.7c.4-1,1-2.3,1.7-3.8,3.9,1,8,1.5,12.2,1.6v2.2h1.6v-2.2c4.2,0,8.3-.5,12.2-1.4.7,1.4,1.2,2.7,1.6,3.6h1.7c-.3-.9-.9-2.3-1.7-4,3.1-.8,6.1-1.9,9-3.2,2.4,2.7,4.7,5.7,5.8,7.2h1.9c-.5-.7-3.2-4.4-6.3-8,2.1-1.1,4.2-2.4,6.1-3.8,4.3,3.3,8,7.2,11,11.7h1.9c-9.2-14.3-25.3-23.7-43.6-23.7s-34.3,9.5-43.6,23.7h1.9ZM61.8,28.3c-2.9-.8-5.7-1.8-8.4-3.1.4-.4.7-.7,1.1-1.1,3.6-3.5,9.6-7.3,10.9-8.2,1.1.6,2.2,1.1,3.4,1.5-1,1.2-2.8,3.8-4.9,7-.8,1.3-1.5,2.6-2.2,3.8h0ZM74.9,30.1c-4,0-7.8-.6-11.5-1.5.6-1.1,1.2-2.3,1.9-3.4,2.3-3.7,4.5-6.5,5.2-7.4,1.4.3,2.9.5,4.4.6v11.7h0ZM76.4,30.1v-11.6c1.5,0,3-.2,4.4-.5.8,1,2.8,3.7,5.1,7.3.7,1.2,1.4,2.4,2,3.6-3.7.8-7.5,1.2-11.5,1.3h0ZM89.5,28.5c-.7-1.3-1.4-2.7-2.3-4-1.9-3.1-3.7-5.5-4.7-6.8,1.3-.4,2.5-.9,3.7-1.4,1.8,1.2,7.2,4.7,10.5,7.9.4.4.9.9,1.3,1.4-2.7,1.2-5.6,2.3-8.5,3ZM105.4,21.2c-1.8,1.3-3.8,2.5-5.9,3.5-.6-.6-1.2-1.2-1.7-1.8-3.1-3-7.8-6.2-10.1-7.7.8-.5,1.5-1.1,2.1-1.7,5.7,1.6,10.9,4.2,15.5,7.6ZM76,11.7c4.1,0,8.1.5,12,1.4-2.9,2.4-7.3,3.8-12,3.8s-9.1-1.4-12-3.8c3.8-.9,7.9-1.4,12-1.4ZM62.2,13.7c.5.5,1.1.9,1.7,1.4-2.1,1.3-7.2,4.7-10.5,8-.5.5-1,1-1.5,1.5-1.8-1-3.6-2-5.3-3.2,4.7-3.4,9.9-5.9,15.5-7.6h0Z"/>
      <path class="st1" d="M117.7,90.2c-3,4.4-6.6,8.3-10.8,11.5-2-1.5-4.1-2.8-6.3-4,2.7-3.1,5.1-6.3,6-7.5h-1.9c-1.2,1.6-3.3,4.3-5.5,6.8-2.8-1.3-5.8-2.4-9-3.2.7-1.4,1.2-2.7,1.5-3.6h-1.7c-.4.9-.8,2-1.4,3.2-3.9-.9-8-1.4-12.2-1.4v-1.8h-1.6v1.8c-4.2,0-8.3.6-12.2,1.6-.6-1.3-1.1-2.5-1.5-3.4h-1.7c.4.9.9,2.3,1.6,3.8-3.1.8-6,2-8.8,3.3-2.3-2.6-4.5-5.4-5.8-7.1h-2c.9,1.3,3.5,4.7,6.3,7.8-2,1.1-4,2.3-5.8,3.7-4.2-3.2-7.8-7.1-10.8-11.5h-1.9c9.2,14.3,25.3,23.7,43.5,23.7s34.3-9.5,43.6-23.7h-1.9,0ZM89.5,95.2c3,.8,5.8,1.8,8.6,3-.4.5-.9.9-1.3,1.4-3.3,3.2-8.6,6.7-10.5,7.9-1.1-.6-2.4-1.1-3.7-1.4,1-1.3,2.8-3.8,4.7-6.8.8-1.3,1.6-2.7,2.3-4h0ZM76.4,93.5c3.9,0,7.8.5,11.5,1.3-.6,1.2-1.3,2.4-2,3.6-2.2,3.5-4.2,6.2-5.1,7.2-1.4-.3-2.9-.4-4.4-.5v-11.7h0ZM74.9,93.5v11.7c-1.5,0-3,.3-4.4.6-.7-.9-2.8-3.7-5.2-7.4-.7-1.1-1.3-2.3-1.9-3.4,3.7-.9,7.6-1.4,11.5-1.4h0ZM61.8,95.4c.6,1.3,1.4,2.6,2.2,3.8,2,3.2,3.9,5.8,4.9,7-1.2.4-2.4.9-3.4,1.5-1.3-.8-7.3-4.7-10.9-8.2-.4-.3-.7-.7-1.1-1.1,2.7-1.3,5.5-2.3,8.4-3.1h0ZM46.4,102.7c1.7-1.3,3.6-2.4,5.6-3.5.5.5,1,1,1.5,1.5,3.3,3.2,8.4,6.6,10.5,7.9-.7.5-1.4,1.1-2,1.7-5.6-1.7-10.9-4.3-15.5-7.7h0ZM76,112.3c-4.3,0-8.4-.5-12.4-1.5,2.9-2.5,7.5-4.1,12.4-4.1s9.5,1.5,12.4,4.1c-4,1-8.1,1.5-12.4,1.5ZM90.1,110.3c-.7-.7-1.5-1.4-2.4-2,2.3-1.5,6.9-4.7,10.1-7.7.6-.6,1.2-1.2,1.7-1.8,2.2,1.1,4.2,2.3,6.1,3.8-4.6,3.4-9.9,6-15.5,7.7Z"/>
    </g>
    <g>
      <path class="st1" d="M37.5,152c0-4.4,2.7-7.8,7.1-7.8s5.6,2,6,4.8h-1.8c-.4-1.9-1.8-3.1-4.2-3.1s-5.1,2.7-5.1,6.2,2,6.1,5.2,6.1,4.2-1.9,4.4-4.1h1.9c0,1.5-.7,3.2-1.8,4.2-1,1-2.6,1.6-4.5,1.6-4.3,0-7-3.2-7-7.8h0Z"/>
      <path class="st1" d="M52,154.1c0-3.1,2.1-5.7,5.1-5.7s5,2.5,5,6.1h-8.4c.1,2.2,1.3,3.9,3.5,3.9s2.6-.8,3-2.2h1.7c-.5,2.3-2.2,3.6-4.7,3.6s-5.2-2.6-5.2-5.7h0ZM53.8,153.2h6.5c0-2.2-1.2-3.5-3.2-3.5s-3.1,1.5-3.4,3.5Z"/>
      <path class="st1" d="M65.6,150.4h0c.7-1.1,1.8-1.9,3.2-1.9s.5,0,.7.1v1.6h0c-.2,0-.4-.1-.8-.1-1.7,0-3.2,1.3-3.2,3.3v6h-1.7v-10.9h1.7v1.8h0Z"/>
      <path class="st1" d="M70.4,148.6h1.6v-3.4h1.7v3.4h2.1v1.4h-2.1v7.1c0,.8.4,1,1.1,1s.7,0,.9-.1h0v1.5c-.4,0-.9.1-1.4.1-1.4,0-2.4-.6-2.4-2.1v-7.4h-1.6s0-1.4,0-1.4Z"/>
      <path class="st1" d="M77.5,144.5h1.7v2.1h-1.7v-2.1ZM77.5,148.6h1.7v10.9h-1.7v-10.9Z"/>
      <path class="st1" d="M80.8,148.6h1.5v-1.7c0-1.9,1.1-2.5,2.9-2.5s.6,0,.9,0v1.4c-.3,0-.4,0-.6,0-1.1,0-1.5.3-1.5,1.2v1.7h2v1.4h-2v9.5h-1.7v-9.5h-1.5v-1.4h0ZM87.5,144.5h1.7v2.1h-1.7v-2.1ZM87.5,148.6h1.7v10.9h-1.7v-10.9Z"/>
      <path class="st1" d="M90.9,154.1c0-3.1,2.1-5.7,5.1-5.7s5,2.5,5,6.1h-8.4c.1,2.2,1.3,3.9,3.5,3.9s2.6-.8,3-2.2h1.7c-.5,2.3-2.2,3.6-4.7,3.6s-5.2-2.6-5.2-5.7h0ZM92.7,153.2h6.5c0-2.2-1.2-3.5-3.2-3.5s-3.1,1.5-3.4,3.5Z"/>
      <path class="st1" d="M102.1,154.1c0-3.6,2.1-5.7,4.8-5.7s2.7.8,3.4,1.8h0v-5.7h1.7v15h-1.7v-1.3h0c-.8,1.1-1.8,1.6-3.4,1.6-3,0-4.8-2.2-4.8-5.7h0ZM110.4,154.1c0-2.5-1.2-4.3-3.5-4.3s-3.1,1.9-3.1,4.3,1.1,4.3,3.1,4.3,3.4-1.8,3.4-4.3Z"/>
    </g>
  </g>
  <g>
    <path class="st1" d="M43.6,137.8h0c0-2.2,1.1-5.2,5.4-8.7,2.8-2.3,3.8-3.2,3.8-5.4s-.9-3.4-3.2-3.4-3.3,1.5-3.6,3.8h-2.3c.2-3,1.9-5.8,6-5.8s5.6,2.4,5.6,5.3-1.4,4.2-4.7,6.9c-2.3,1.9-3.7,3.7-4.2,5.2h9.4l-.3,2.1h-12Z"/>
    <path class="st1" d="M69.4,118.7v1.9c-3.4,4.7-6.2,11.3-7.5,17.2h-2.5c1.3-6.3,4.6-13.1,7.5-17.1h-9.4v-2.1h11.9Z"/>
    <path class="st1" d="M83.8,127.8c0,5.2-1.2,10.3-6.2,10.3s-6.2-5.3-6.2-10.3,1.6-9.4,6.2-9.4,6.1,4.3,6.1,9.4ZM73.9,127.8c0,4.7.8,8.3,3.8,8.3s3.7-3.7,3.7-8.3-.8-7.5-3.7-7.5-3.8,3.5-3.8,7.5Z"/>
    <path class="st1" d="M99,127.8c0,5.2-1.2,10.3-6.2,10.3s-6.2-5.3-6.2-10.3,1.6-9.4,6.2-9.4,6.1,4.3,6.1,9.4ZM89.1,127.8c0,4.7.8,8.3,3.8,8.3s3.7-3.7,3.7-8.3-.8-7.5-3.7-7.5-3.8,3.5-3.8,7.5Z"/>
    <path class="st1" d="M104.5,137.8v-16.3c-.7.4-2.5,1-3.3,1.1v-1.9c1.4-.3,3-1.2,4-2.1h1.7v19.2h-2.4Z"/>
  </g>
</svg>