<?xml version="1.0" encoding="UTF-8"?>
<svg id="Layer_2" data-name="Layer 2" xmlns="http://www.w3.org/2000/svg" viewBox="0 0 155.28 159.81">
  <defs>
    <style>
      .cls-1 {
        fill: none;
      }

      .cls-1, .cls-2 {
        stroke-width: 0px;
      }

      .cls-2 {
        fill: #00539f;
      }
    </style>
  </defs>
  <g id="Main_layer" data-name="Main layer">
    <rect class="cls-1" width="155.28" height="141.78"/>
    <polygon class="cls-2" points="44.01 50.09 44.01 38.98 15.02 38.98 15.02 50.09 21.67 50.09 21.67 73.84 15.02 73.84 15.02 84.95 44.01 84.95 44.01 73.84 37.36 73.84 37.36 50.09 44.01 50.09"/>
    <path class="cls-2" d="m76,56.62c-1.79-.52-11.01-3.16-12.61-3.68s-2.9-1.27-2.9-2.22,1.47-1.95,4.43-1.95c9.35,0,13.84,5.77,13.84,5.77,0,0,.51.67.68.92h9.02v-15.73h-9.68v2.86c-.74-.51-6.2-4.07-14.67-4.07-11.17,0-17.4,5.8-17.4,14.46s7.85,12.25,10.03,13.16,10.72,3.32,14.37,4.46,4.98,1.95,4.98,2.54-1.6,2.12-6.16,2.12c-7.94,0-12.04-4.68-12.75-5.59h0c-.23-.31-.5-.67-.59-.81-.11-.16-.35-.51-.52-.75h-9.02v16.8h10.13v-3.51c1.18.78,7.21,4.55,14.45,4.55,8.08,0,18.37-3.52,18.37-14.5s-12.22-14.3-14.01-14.82Z"/>
    <path class="cls-2" d="m115.72,38.35c-13.47,0-24.51,6.73-24.51,23.92s11.99,23.63,24.57,23.63,24.46-6.38,24.46-23.45-11.87-24.1-24.51-24.1Zm.12,36.09c-4.61,0-7.56-1.06-7.56-12.23s2.19-12.35,7.74-12.35c3.37,0,7.44.24,7.44,11.99s-3.01,12.58-7.62,12.58Z"/>
    <g>
      <path class="cls-2" d="m34.34,33.91c3.03-4.47,6.75-8.43,11.02-11.72,1.73,1.28,3.56,2.43,5.49,3.46-3.23,3.6-6.13,7.59-6.61,8.26h1.94c1.16-1.57,3.57-4.72,6.11-7.52,2.77,1.36,5.72,2.48,8.8,3.33-.82,1.74-1.44,3.26-1.8,4.19h1.68c.39-.96.95-2.31,1.66-3.79,3.92.96,8.04,1.5,12.24,1.58v2.21h1.56v-2.21c4.18-.03,8.27-.51,12.18-1.4.67,1.41,1.2,2.68,1.57,3.61h1.68c-.35-.9-.93-2.33-1.71-3.99,3.13-.81,6.14-1.9,8.97-3.24,2.44,2.72,4.72,5.72,5.85,7.23h1.94c-.46-.65-3.21-4.43-6.33-7.95,2.14-1.11,4.18-2.37,6.08-3.77,4.27,3.29,7.99,7.25,11.02,11.72h1.88c-9.25-14.27-25.32-23.74-43.56-23.74s-34.31,9.46-43.56,23.74h1.88Zm27.45-5.62c-2.93-.79-5.73-1.83-8.38-3.09.36-.37.72-.74,1.07-1.08,3.62-3.5,9.59-7.33,10.89-8.16,1.06.58,2.22,1.08,3.45,1.47-.96,1.25-2.83,3.8-4.88,7.03-.8,1.26-1.52,2.58-2.16,3.84Zm13.09,1.84c-3.96-.08-7.83-.57-11.53-1.45.58-1.13,1.22-2.3,1.92-3.4,2.35-3.72,4.48-6.51,5.19-7.42,1.41.33,2.9.54,4.42.61v11.66h0Zm1.56,0v-11.65c1.51-.03,2.98-.19,4.39-.47.81,1.05,2.83,3.74,5.06,7.26.73,1.16,1.41,2.39,2.01,3.57-3.69.82-7.54,1.25-11.47,1.28Zm13.04-1.65c-.66-1.32-1.42-2.72-2.26-4.04-1.94-3.06-3.73-5.51-4.72-6.82,1.31-.37,2.54-.85,3.68-1.42,1.83,1.18,7.16,4.69,10.51,7.91.44.43.89.89,1.34,1.36-2.7,1.25-5.57,2.26-8.55,3.01Zm15.88-7.28c-1.83,1.32-3.79,2.51-5.86,3.55-.58-.62-1.16-1.22-1.73-1.77-3.13-3.02-7.78-6.18-10.07-7.67.78-.5,1.48-1.06,2.12-1.66,5.65,1.61,10.89,4.19,15.54,7.55Zm-29.35-9.47c4.13,0,8.14.5,11.99,1.45-2.92,2.37-7.29,3.76-11.99,3.76s-9.08-1.39-11.99-3.76c3.84-.94,7.86-1.45,11.99-1.45Zm-13.8,1.93c.51.49,1.08.95,1.69,1.38-2.07,1.33-7.16,4.72-10.5,7.95-.48.46-.97.96-1.45,1.47-1.85-.97-3.61-2.05-5.27-3.25,4.65-3.35,9.89-5.93,15.54-7.55Z"/>
      <path class="cls-2" d="m117.69,90.16c-2.96,4.38-6.59,8.27-10.75,11.52-1.98-1.49-4.1-2.82-6.35-3.98,2.71-3.05,5.13-6.31,6.03-7.53h-1.95c-1.2,1.6-3.3,4.32-5.54,6.82-2.83-1.34-5.83-2.43-8.97-3.24.66-1.42,1.19-2.67,1.54-3.57h-1.69c-.36.87-.83,1.98-1.41,3.19-3.91-.89-8-1.37-12.18-1.4v-1.79h-1.56v1.8c-4.21.08-8.32.62-12.24,1.58-.61-1.28-1.12-2.46-1.49-3.38h-1.69c.37.94.93,2.27,1.64,3.78-3.08.85-6.03,1.96-8.8,3.33-2.33-2.57-4.55-5.44-5.8-7.1h-1.95c.93,1.27,3.49,4.71,6.31,7.85-2.03,1.09-3.96,2.31-5.76,3.67-4.16-3.25-7.79-7.14-10.75-11.52h-1.88c9.25,14.27,25.32,23.74,43.55,23.74s34.31-9.46,43.55-23.74h-1.88Zm-28.21,5.01c2.98.76,5.85,1.77,8.55,3.01-.45.47-.9.93-1.34,1.36-3.33,3.21-8.64,6.72-10.49,7.9-1.13-.58-2.37-1.06-3.69-1.43,1-1.32,2.78-3.76,4.71-6.81.84-1.32,1.6-2.72,2.26-4.04Zm-13.04-1.65c3.93.03,7.78.46,11.47,1.28-.6,1.19-1.28,2.42-2.01,3.58-2.23,3.52-4.25,6.21-5.06,7.25-1.41-.28-2.88-.44-4.4-.46v-11.65h0Zm-1.56,0v11.65c-1.53.07-3.02.28-4.43.6-.71-.92-2.83-3.7-5.18-7.41-.7-1.1-1.34-2.27-1.92-3.4,3.7-.88,7.57-1.37,11.54-1.45Zm-13.09,1.84c.64,1.26,1.36,2.58,2.16,3.84,2.04,3.23,3.92,5.77,4.87,7.02-1.23.39-2.39.88-3.45,1.47-1.31-.83-7.27-4.66-10.89-8.16-.36-.34-.72-.71-1.08-1.08,2.65-1.27,5.45-2.3,8.38-3.09Zm-15.4,7.29c1.74-1.28,3.6-2.44,5.56-3.46.48.51.97,1.01,1.45,1.47,3.34,3.22,8.43,6.62,10.5,7.95-.74.52-1.41,1.08-2.01,1.7-5.64-1.65-10.87-4.27-15.51-7.66Zm29.63,9.68c-4.26,0-8.41-.54-12.36-1.54,2.89-2.54,7.48-4.08,12.36-4.08s9.47,1.54,12.36,4.08c-3.96,1-8.1,1.54-12.36,1.54Zm14.12-2.02c-.71-.73-1.52-1.4-2.42-1.99,2.29-1.49,6.93-4.65,10.06-7.66.58-.56,1.16-1.15,1.73-1.77,2.17,1.1,4.22,2.35,6.14,3.76-4.63,3.39-9.87,6.01-15.51,7.66Z"/>
    </g>
    <g>
      <path class="cls-2" d="m18.01,130.48c.07,1.29.57,2.19,1.5,2.68.48.26,1.02.39,1.61.39,1.12,0,2.07-.47,2.86-1.4.79-.93,1.35-2.83,1.68-5.68-.52.82-1.17,1.4-1.93,1.74-.77.33-1.6.5-2.48.5-1.8,0-3.22-.56-4.27-1.68-1.05-1.12-1.57-2.56-1.57-4.32s.52-3.18,1.55-4.46,2.56-1.93,4.57-1.93c2.72,0,4.59,1.22,5.63,3.67.57,1.34.86,3.03.86,5.05,0,2.28-.34,4.3-1.03,6.06-1.14,2.93-3.06,4.4-5.78,4.4-1.82,0-3.21-.48-4.15-1.43-.95-.95-1.42-2.15-1.42-3.59h2.37Zm6.1-4.75c.77-.61,1.15-1.68,1.15-3.21,0-1.37-.35-2.39-1.04-3.06-.69-.67-1.57-1.01-2.64-1.01-1.15,0-2.06.38-2.73,1.15-.67.77-1.01,1.79-1.01,3.08,0,1.21.3,2.18.89,2.89.59.72,1.53,1.07,2.83,1.07.93,0,1.78-.31,2.55-.92Z"/>
      <path class="cls-2" d="m41.75,119.34c.83,1.54,1.25,3.64,1.25,6.32,0,2.54-.38,4.63-1.13,6.29-1.09,2.38-2.88,3.57-5.37,3.57-2.24,0-3.91-.97-5-2.92-.91-1.62-1.37-3.8-1.37-6.54,0-2.12.27-3.94.82-5.46,1.02-2.83,2.88-4.25,5.56-4.25,2.41,0,4.16.99,5.24,2.98Zm-2.36,12.42c.72-1.08,1.08-3.08,1.08-6.02,0-2.12-.26-3.86-.78-5.23-.52-1.37-1.54-2.05-3.04-2.05-1.38,0-2.39.65-3.03,1.95-.64,1.3-.96,3.21-.96,5.74,0,1.9.2,3.43.61,4.58.63,1.76,1.7,2.64,3.21,2.64,1.22,0,2.19-.54,2.91-1.62Z"/>
      <path class="cls-2" d="m56.58,119.34c.83,1.54,1.25,3.64,1.25,6.32,0,2.54-.38,4.63-1.13,6.29-1.09,2.38-2.88,3.57-5.37,3.57-2.24,0-3.91-.97-5-2.92-.91-1.62-1.37-3.8-1.37-6.54,0-2.12.27-3.94.82-5.46,1.02-2.83,2.88-4.25,5.56-4.25,2.41,0,4.16.99,5.24,2.98Zm-2.36,12.42c.72-1.08,1.08-3.08,1.08-6.02,0-2.12-.26-3.86-.78-5.23-.52-1.37-1.54-2.05-3.04-2.05-1.38,0-2.39.65-3.03,1.95-.64,1.3-.96,3.21-.96,5.74,0,1.9.2,3.43.61,4.58.63,1.76,1.7,2.64,3.21,2.64,1.22,0,2.19-.54,2.91-1.62Z"/>
      <path class="cls-2" d="m61.51,121.8v-1.8c1.69-.16,2.87-.44,3.54-.83.67-.39,1.17-1.3,1.5-2.74h1.85v18.57h-2.5v-13.2h-4.39Z"/>
      <path class="cls-2" d="m76.75,121.24h2.72v2.84h-2.72v-2.84Zm0,10.93h2.72v2.84h-2.72v-2.84Z"/>
      <path class="cls-2" d="m83.03,130.81c.58-1.19,1.7-2.27,3.38-3.24l2.5-1.45c1.12-.65,1.91-1.21,2.36-1.67.71-.72,1.07-1.55,1.07-2.48,0-1.09-.33-1.95-.98-2.59-.65-.64-1.52-.96-2.6-.96-1.61,0-2.72.61-3.33,1.83-.33.65-.51,1.56-.55,2.72h-2.38c.03-1.62.33-2.95.9-3.97,1.02-1.81,2.81-2.71,5.38-2.71,2.14,0,3.7.58,4.68,1.73.99,1.15,1.48,2.44,1.48,3.85,0,1.49-.53,2.77-1.58,3.83-.61.62-1.7,1.36-3.27,2.24l-1.78.99c-.85.47-1.52.92-2.01,1.34-.87.76-1.42,1.59-1.64,2.51h10.18v2.21h-12.8c.09-1.61.42-3,1-4.19Z"/>
      <path class="cls-2" d="m108.49,119.34c.83,1.54,1.25,3.64,1.25,6.32,0,2.54-.38,4.63-1.13,6.29-1.09,2.38-2.88,3.57-5.37,3.57-2.24,0-3.91-.97-5-2.92-.91-1.62-1.37-3.8-1.37-6.54,0-2.12.27-3.94.82-5.46,1.02-2.83,2.88-4.25,5.56-4.25,2.41,0,4.16.99,5.24,2.98Zm-2.36,12.42c.72-1.08,1.08-3.08,1.08-6.02,0-2.12-.26-3.86-.78-5.23-.52-1.37-1.53-2.05-3.04-2.05-1.38,0-2.39.65-3.03,1.95-.64,1.3-.96,3.21-.96,5.74,0,1.9.2,3.43.61,4.58.63,1.76,1.7,2.64,3.21,2.64,1.22,0,2.19-.54,2.91-1.62Z"/>
      <path class="cls-2" d="m113.42,121.8v-1.8c1.69-.16,2.87-.44,3.54-.83.67-.39,1.17-1.3,1.5-2.74h1.85v18.57h-2.5v-13.2h-4.39Z"/>
      <path class="cls-2" d="m129,130.25c.16,1.34.78,2.26,1.86,2.77.56.26,1.2.39,1.93.39,1.39,0,2.42-.44,3.09-1.33.67-.89,1-1.87,1-2.94,0-1.3-.4-2.31-1.19-3.02s-1.75-1.07-2.86-1.07c-.81,0-1.5.16-2.08.47-.58.31-1.07.75-1.48,1.3l-2.03-.12,1.42-10.04h9.69v2.27h-7.93l-.79,5.18c.43-.33.85-.58,1.24-.74.69-.29,1.5-.43,2.41-.43,1.71,0,3.16.55,4.35,1.65,1.19,1.1,1.78,2.5,1.78,4.19s-.54,3.32-1.63,4.66c-1.09,1.35-2.83,2.02-5.22,2.02-1.52,0-2.86-.43-4.03-1.28-1.17-.85-1.82-2.17-1.96-3.94h2.44Z"/>
    </g>
    <g>
      <path class="cls-2" d="m37.45,151.97c0-4.41,2.65-7.83,7.12-7.83,3.51,0,5.63,2.02,6.03,4.79h-1.85c-.36-1.87-1.85-3.15-4.22-3.15-3.3,0-5.14,2.67-5.14,6.19s2.04,6.15,5.17,6.15c2.83,0,4.18-1.93,4.37-4.14h1.87c-.02,1.49-.73,3.17-1.81,4.22-1.05,1.03-2.58,1.57-4.49,1.57-4.26,0-7.03-3.25-7.03-7.81Z"/>
      <path class="cls-2" d="m52.05,154.07c0-3.15,2.06-5.71,5.14-5.71,3.25,0,5,2.52,5,6.11h-8.4c.13,2.21,1.32,3.88,3.51,3.88,1.57,0,2.62-.76,3-2.23h1.66c-.5,2.33-2.2,3.65-4.66,3.65-3.32,0-5.25-2.56-5.25-5.71Zm1.78-.88h6.53c-.1-2.16-1.22-3.49-3.17-3.49s-3.11,1.51-3.36,3.49Z"/>
      <path class="cls-2" d="m65.55,150.44h.04c.65-1.05,1.78-1.93,3.23-1.93.31,0,.48.04.69.13v1.64h-.06c-.25-.08-.42-.1-.76-.1-1.68,0-3.15,1.26-3.15,3.3v6.03h-1.7v-10.85h1.7v1.8Z"/>
      <path class="cls-2" d="m70.36,148.64h1.57v-3.42h1.7v3.42h2.1v1.38h-2.1v7.05c0,.76.4,1.01,1.09,1.01.34,0,.71-.08.9-.15h.06v1.47c-.4.08-.86.15-1.36.15-1.39,0-2.39-.57-2.39-2.1v-7.43h-1.57v-1.38Z"/>
      <path class="cls-2" d="m77.5,144.48h1.7v2.1h-1.7v-2.1Zm0,4.16h1.7v10.85h-1.7v-10.85Z"/>
      <path class="cls-2" d="m80.82,148.64h1.49v-1.74c0-1.87,1.07-2.54,2.88-2.54.36,0,.63.02.86.04v1.45c-.29-.02-.38-.02-.55-.02-1.09,0-1.49.27-1.49,1.16v1.66h2.02v1.38h-2.02v9.47h-1.7v-9.47h-1.49v-1.38Zm6.66-4.16h1.7v2.1h-1.7v-2.1Zm0,4.16h1.7v10.85h-1.7v-10.85Z"/>
      <path class="cls-2" d="m90.88,154.07c0-3.15,2.06-5.71,5.14-5.71,3.25,0,5,2.52,5,6.11h-8.4c.13,2.21,1.32,3.88,3.51,3.88,1.57,0,2.62-.76,3-2.23h1.66c-.5,2.33-2.2,3.65-4.66,3.65-3.32,0-5.25-2.56-5.25-5.71Zm1.78-.88h6.53c-.1-2.16-1.22-3.49-3.17-3.49s-3.11,1.51-3.36,3.49Z"/>
      <path class="cls-2" d="m102.07,154.1c0-3.61,2.08-5.71,4.77-5.71,1.53,0,2.71.76,3.4,1.78h.04v-5.69h1.7v15.01h-1.7v-1.32h-.04c-.82,1.05-1.83,1.64-3.36,1.64-2.96,0-4.81-2.23-4.81-5.71Zm8.31.02c0-2.52-1.22-4.28-3.46-4.28-2.06,0-3.11,1.85-3.11,4.28s1.05,4.26,3.13,4.26c2.41,0,3.44-1.81,3.44-4.26Z"/>
    </g>
  </g>
</svg>