<?xml version="1.0" encoding="UTF-8"?>
<svg id="Layer_2" data-name="Layer 2" xmlns="http://www.w3.org/2000/svg" viewBox="0 0 207.36 51.95">
  <defs>
    <style>
      .cls-1 {
        fill: #11527f;
        stroke-width: 0px;
      }
    </style>
  </defs>
  <g id="Main_layer" data-name="Main layer">
    <g id="Layer_1-2" data-name="Layer 1-2">
      <path class="cls-1" d="m12.98,34.03c-5.17,0-9.5-1.98-12.98-5.94l5.76-4.54c1.72,2.97,4.11,4.45,7.17,4.45,1.54,0,2.75-.42,3.63-1.27.88-.85,1.32-1.88,1.32-3.08,0-.82-.35-1.53-1.04-2.13-.7-.6-1.36-1.03-2-1.27-.64-.24-1.72-.6-3.27-1.09-.24-.09-.42-.15-.54-.18-1.12-.33-2.03-.63-2.72-.89-.7-.26-1.52-.65-2.47-1.18-.95-.53-1.69-1.1-2.22-1.7-.53-.6-.99-1.4-1.38-2.38-.39-.98-.59-2.08-.59-3.29,0-2.69,1.04-4.95,3.13-6.78C6.85.92,9.48,0,12.66,0,15.17,0,17.28.42,18.99,1.25c1.71.83,3.32,2.02,4.83,3.56l-5.22,3.95c-1.39-2.09-3.36-3.13-5.9-3.13-1.42,0-2.53.34-3.34,1.02-.8.68-1.2,1.57-1.2,2.65s.49,1.88,1.47,2.47c.98.59,2.49,1.22,4.52,1.88.33.09.57.17.73.23,1.09.36,2,.69,2.75.98.74.29,1.58.71,2.52,1.27.94.56,1.69,1.16,2.27,1.79.57.64,1.06,1.45,1.45,2.45.39,1,.59,2.1.59,3.31,0,2.78-1.04,5.2-3.13,7.26-2.09,2.06-4.87,3.09-8.35,3.09Z"/>
      <g>
        <path class="cls-1" d="m37.98,34.03c-2.72,0-5.23-1.04-7.51-3.13-2.28-2.09-3.43-4.98-3.43-8.67,0-2.54.57-4.73,1.72-6.58,1.15-1.84,2.53-3.18,4.15-3.99,1.62-.82,3.33-1.23,5.15-1.23,2.81,0,5.07.89,6.76,2.68v-2.22h6.22v22.69h-6.22v-2.54c-1.69,2-3.98,3-6.85,3h0Zm1.22-5.72c1.66,0,3.05-.6,4.15-1.79,1.1-1.19,1.66-2.64,1.66-4.33s-.55-3.13-1.66-4.31c-1.1-1.18-2.49-1.77-4.15-1.77s-3.17.58-4.33,1.72c-1.16,1.15-1.75,2.6-1.75,4.36s.58,3.21,1.75,4.38c1.16,1.16,2.61,1.75,4.33,1.75Z"/>
        <path class="cls-1" d="m64.48,34.03c-2.72,0-5.23-1.04-7.51-3.13-2.28-2.09-3.43-4.98-3.43-8.67,0-2.54.57-4.73,1.72-6.58,1.15-1.84,2.53-3.18,4.15-3.99,1.62-.82,3.34-1.23,5.15-1.23,2.81,0,5.07.89,6.76,2.68v-2.22h6.22v22.69h-6.22v-2.54c-1.69,2-3.98,3-6.85,3h0Zm1.22-5.72c1.66,0,3.05-.6,4.15-1.79,1.1-1.19,1.66-2.64,1.66-4.33s-.55-3.13-1.66-4.31c-1.1-1.18-2.49-1.77-4.15-1.77s-3.17.58-4.33,1.72c-1.16,1.15-1.75,2.6-1.75,4.36s.58,3.21,1.75,4.38c1.16,1.16,2.61,1.75,4.33,1.75Z"/>
      </g>
      <path class="cls-1" d="m92.21,34.03c-5.17,0-9.5-1.98-12.98-5.94l5.76-4.54c1.72,2.97,4.11,4.45,7.17,4.45,1.54,0,2.75-.42,3.63-1.27.88-.85,1.32-1.88,1.32-3.08,0-.82-.35-1.53-1.04-2.13-.7-.6-1.36-1.03-2-1.27-.64-.24-1.72-.6-3.27-1.09-.24-.09-.42-.15-.54-.18-1.12-.33-2.03-.63-2.72-.89-.7-.26-1.52-.65-2.47-1.18-.95-.53-1.69-1.1-2.22-1.7-.53-.6-.99-1.4-1.38-2.38-.39-.98-.59-2.08-.59-3.29,0-2.69,1.04-4.95,3.13-6.78,2.09-1.83,4.72-2.75,7.9-2.75,2.51,0,4.62.42,6.33,1.25,1.71.83,3.32,2.02,4.83,3.56l-5.22,3.95c-1.39-2.09-3.36-3.13-5.9-3.13-1.42,0-2.53.34-3.34,1.02-.8.68-1.2,1.57-1.2,2.65s.49,1.88,1.47,2.47c.98.59,2.49,1.22,4.52,1.88.33.09.57.17.73.23,1.09.36,2,.69,2.75.98.74.29,1.58.71,2.52,1.27.94.56,1.69,1.16,2.27,1.79.57.63,1.06,1.45,1.45,2.45.39,1,.59,2.1.59,3.31,0,2.78-1.04,5.2-3.13,7.26-2.09,2.06-4.87,3.09-8.35,3.09h0Z"/>
      <path class="cls-1" d="m118.02,34.03c-3.27,0-6.04-1.15-8.33-3.45-2.28-2.3-3.43-5.08-3.43-8.35s1.14-6.05,3.43-8.35c2.28-2.3,5.06-3.45,8.33-3.45,2.54,0,4.77.65,6.69,1.95,1.92,1.3,3.34,3.04,4.24,5.22l-5.54,2.36c-.42-1.09-1.13-1.97-2.11-2.63-.98-.67-2.06-1-3.24-1-1.63,0-3.01.58-4.13,1.72-1.12,1.15-1.68,2.54-1.68,4.17s.56,3.03,1.68,4.17c1.12,1.15,2.5,1.72,4.13,1.72,1.18,0,2.26-.33,3.24-1,.98-.66,1.69-1.54,2.11-2.63l5.54,2.36c-.91,2.18-2.32,3.92-4.24,5.22-1.92,1.3-4.15,1.95-6.69,1.95h0Z"/>
      <g>
        <path class="cls-1" d="m141.26,34.03c-2.72,0-5.23-1.04-7.51-3.13-2.28-2.09-3.43-4.98-3.43-8.67,0-2.54.57-4.73,1.72-6.58,1.15-1.84,2.53-3.18,4.15-3.99,1.62-.82,3.34-1.23,5.15-1.23,2.81,0,5.07.89,6.76,2.68v-2.22h6.22v22.69h-6.22v-2.54c-1.69,2-3.98,3-6.85,3h0Zm1.23-5.72c1.66,0,3.05-.6,4.15-1.79,1.1-1.19,1.66-2.64,1.66-4.33s-.55-3.13-1.66-4.31c-1.1-1.18-2.49-1.77-4.15-1.77s-3.17.58-4.33,1.72c-1.16,1.15-1.75,2.6-1.75,4.36s.58,3.21,1.75,4.38c1.16,1.16,2.61,1.75,4.33,1.75Z"/>
        <path class="cls-1" d="m167.76,34.03c-2.72,0-5.23-1.04-7.51-3.13-2.28-2.09-3.43-4.98-3.43-8.67,0-2.54.57-4.73,1.72-6.58,1.15-1.84,2.53-3.18,4.15-3.99,1.62-.82,3.33-1.23,5.15-1.23,2.81,0,5.07.89,6.76,2.68V.45h6.22v33.13h-6.22v-2.54c-1.69,2-3.98,3-6.85,3h0Zm1.23-5.72c1.66,0,3.05-.6,4.15-1.79,1.1-1.19,1.66-2.64,1.66-4.33s-.55-3.13-1.66-4.31c-1.1-1.18-2.49-1.77-4.15-1.77s-3.17.58-4.33,1.72c-1.16,1.15-1.75,2.6-1.75,4.36s.58,3.21,1.75,4.38c1.16,1.16,2.61,1.75,4.33,1.75Z"/>
        <path class="cls-1" d="m194.26,34.03c-2.72,0-5.23-1.04-7.51-3.13-2.28-2.09-3.43-4.98-3.43-8.67,0-2.54.57-4.73,1.72-6.58,1.15-1.84,2.53-3.18,4.15-3.99,1.62-.82,3.33-1.23,5.15-1.23,2.81,0,5.07.89,6.76,2.68v-2.22h6.22v22.69h-6.22v-2.54c-1.69,2-3.98,3-6.85,3h0Zm1.23-5.72c1.66,0,3.05-.6,4.15-1.79,1.1-1.19,1.66-2.64,1.66-4.33s-.55-3.13-1.66-4.31c-1.1-1.18-2.49-1.77-4.15-1.77s-3.17.58-4.33,1.72c-1.16,1.15-1.75,2.6-1.75,4.36s.58,3.21,1.75,4.38c1.16,1.16,2.61,1.75,4.33,1.75Z"/>
      </g>
      <g>
        <path class="cls-1" d="m32.99,48.25c-.96,0-1.84-.37-2.65-1.1-.81-.74-1.21-1.76-1.21-3.06,0-.9.2-1.67.61-2.32.4-.65.89-1.12,1.46-1.41.57-.29,1.18-.43,1.82-.43.99,0,1.79.32,2.38.94v-4.46h2.19v11.68h-2.19v-.9c-.6.7-1.4,1.06-2.42,1.06h0Zm.43-2.02c.59,0,1.07-.21,1.46-.63.39-.42.58-.93.58-1.53s-.19-1.1-.58-1.52c-.39-.42-.88-.62-1.46-.62s-1.12.2-1.53.61c-.41.41-.62.92-.62,1.54s.21,1.13.62,1.54c.41.41.92.62,1.53.62Z"/>
        <path class="cls-1" d="m42.34,48.25c-.96,0-1.84-.37-2.65-1.1-.81-.74-1.21-1.76-1.21-3.06,0-.9.2-1.67.61-2.32.4-.65.89-1.12,1.46-1.41.57-.29,1.18-.43,1.82-.43.99,0,1.79.32,2.38.94v-.78h2.19v8h-2.19v-.9c-.6.7-1.4,1.06-2.42,1.06h0Zm.43-2.02c.59,0,1.07-.21,1.46-.63.39-.42.58-.93.58-1.53s-.19-1.1-.58-1.52c-.39-.42-.88-.62-1.46-.62s-1.12.2-1.53.61c-.41.41-.62.92-.62,1.54s.21,1.13.62,1.54c.41.41.92.62,1.53.62Z"/>
      </g>
      <path class="cls-1" d="m47.91,42.06v-1.97h1.36v-1.87l2.19-1.2v3.07h1.5v1.97h-1.5v2.55c0,.63.09,1.03.26,1.19.17.17.59.25,1.25.25v2.05h-.32c-1.27,0-2.15-.25-2.64-.76-.49-.51-.74-1.41-.74-2.71v-2.56h-1.36Z"/>
      <g>
        <path class="cls-1" d="m57.3,48.25c-.96,0-1.84-.37-2.65-1.1-.81-.74-1.21-1.76-1.21-3.06,0-.9.2-1.67.61-2.32.41-.65.89-1.12,1.46-1.41.57-.29,1.18-.43,1.82-.43.99,0,1.79.32,2.38.94v-.78h2.19v8h-2.19v-.9c-.6.7-1.4,1.06-2.42,1.06h0Zm.43-2.02c.59,0,1.07-.21,1.46-.63.39-.42.58-.93.58-1.53s-.2-1.1-.58-1.52c-.39-.42-.88-.62-1.46-.62s-1.12.2-1.53.61c-.41.41-.62.92-.62,1.54s.21,1.13.62,1.54c.41.41.92.62,1.53.62Z"/>
        <path class="cls-1" d="m70.57,48.25c-.96,0-1.84-.37-2.65-1.1-.81-.74-1.21-1.76-1.21-3.06,0-.9.2-1.67.61-2.32.4-.65.89-1.12,1.46-1.41.57-.29,1.18-.43,1.82-.43.99,0,1.79.32,2.38.94v-4.46h2.19v11.68h-2.19v-.9c-.6.7-1.4,1.06-2.42,1.06h0Zm.43-2.02c.59,0,1.07-.21,1.46-.63.39-.42.58-.93.58-1.53s-.2-1.1-.58-1.52c-.39-.42-.88-.62-1.46-.62s-1.12.2-1.53.61c-.41.41-.62.92-.62,1.54s.21,1.13.62,1.54c.41.41.92.62,1.53.62Z"/>
        <path class="cls-1" d="m76.29,48.09v-8h2.18v1.31c.42-.88,1.15-1.31,2.21-1.31h.88v2.13h-1.39c-.59,0-1.01.17-1.28.5-.27.33-.4.86-.4,1.6v3.78h-2.19,0Z"/>
        <path class="cls-1" d="m82.55,39.29v-2.19h2.19v2.19h-2.19Zm0,8.8v-8h2.19v8h-2.19Z"/>
      </g>
      <path class="cls-1" d="m88.58,48.09l-3.02-8h2.26l1.87,5.2,1.82-5.2h2.22l-2.94,8h-2.21Z"/>
      <g>
        <path class="cls-1" d="m97.85,48.25c-1.23,0-2.24-.4-3.03-1.2-.79-.8-1.19-1.79-1.19-2.96s.41-2.13,1.22-2.94c.81-.81,1.79-1.22,2.94-1.22s2.19.4,2.97,1.19c.77.79,1.16,1.78,1.16,2.95v.8h-6.18c.13.45.37.8.74,1.06.36.26.83.39,1.39.39.44,0,.83-.11,1.18-.34.35-.22.61-.53.79-.91l1.74,1.04c-.36.65-.86,1.17-1.5,1.55-.63.38-1.38.58-2.23.58h0Zm-.05-6.4c-.45,0-.85.11-1.19.34-.35.23-.61.54-.78.92h3.87c-.29-.84-.92-1.26-1.9-1.26h0Z"/>
        <path class="cls-1" d="m102.81,48.09v-8h2.18v.9c.55-.7,1.29-1.06,2.21-1.06s1.69.29,2.22.86c.53.58.8,1.38.8,2.42v4.88h-2.22v-4.59c0-.54-.13-.96-.38-1.26-.25-.29-.62-.44-1.1-.44-.45,0-.81.16-1.1.48-.28.32-.42.8-.42,1.44v4.37h-2.19Z"/>
      </g>
      <path class="cls-1" d="m119.16,48.25c-1.15,0-2.13-.41-2.94-1.22-.81-.81-1.21-1.79-1.21-2.94s.4-2.13,1.21-2.94c.81-.81,1.78-1.22,2.94-1.22.9,0,1.68.23,2.36.69.68.46,1.18,1.07,1.5,1.84l-1.95.83c-.15-.38-.4-.69-.74-.93-.35-.23-.73-.35-1.14-.35-.58,0-1.06.2-1.46.61-.39.41-.59.9-.59,1.47s.2,1.07.59,1.47c.39.4.88.61,1.46.61.42,0,.8-.12,1.14-.35.35-.23.59-.54.74-.93l1.95.83c-.32.77-.82,1.38-1.5,1.84-.68.46-1.46.69-2.36.69Z"/>
      <path class="cls-1" d="m130.58,47.04c-.81.81-1.78,1.22-2.94,1.22s-2.13-.41-2.94-1.22c-.81-.81-1.21-1.79-1.21-2.94s.4-2.13,1.21-2.94c.81-.81,1.78-1.22,2.94-1.22s2.13.4,2.94,1.22c.81.81,1.21,1.79,1.21,2.94s-.4,2.13-1.21,2.94Zm-2.94-.86c.55,0,1.03-.2,1.42-.62.39-.41.59-.9.59-1.46s-.2-1.05-.59-1.46c-.39-.41-.87-.62-1.42-.62s-1.04.2-1.42.61c-.38.41-.58.9-.58,1.47s.19,1.07.58,1.47c.38.4.86.61,1.42.61Z"/>
      <path class="cls-1" d="m132.67,48.09v-8h2.18v1.31c.42-.88,1.15-1.31,2.21-1.31h.88v2.13h-1.39c-.59,0-1.01.17-1.28.5-.27.33-.4.86-.4,1.6v3.78h-2.19,0Z"/>
      <path class="cls-1" d="m142.59,48.25c-1.23,0-2.24-.4-3.03-1.2-.79-.8-1.19-1.79-1.19-2.96s.41-2.13,1.22-2.94c.81-.81,1.79-1.22,2.94-1.22s2.19.4,2.97,1.19c.77.79,1.16,1.78,1.16,2.95v.8h-6.18c.13.45.37.8.74,1.06.36.26.83.39,1.39.39.44,0,.83-.11,1.18-.34.35-.22.61-.53.79-.91l1.74,1.04c-.36.65-.86,1.17-1.5,1.55-.63.38-1.38.58-2.23.58h0Zm-.05-6.4c-.45,0-.85.11-1.19.34-.35.23-.61.54-.78.92h3.87c-.29-.84-.92-1.26-1.9-1.26h0Z"/>
      <g>
        <path class="cls-1" d="m156.09,48.25c-1.06,0-1.87-.34-2.43-1.02v.86h-2.19v-11.68h2.19v4.56c.57-.69,1.37-1.04,2.4-1.04.47,0,.93.09,1.38.26.45.17.86.42,1.24.75.38.33.68.77.91,1.31.23.54.34,1.16.34,1.84,0,1.3-.4,2.32-1.2,3.06s-1.68,1.1-2.64,1.1h0Zm-.45-2.02c.61,0,1.12-.21,1.53-.62.41-.41.62-.92.62-1.54s-.21-1.13-.62-1.54c-.41-.41-.92-.61-1.53-.61s-1.08.21-1.46.62c-.39.42-.58.92-.58,1.52s.19,1.11.58,1.53c.39.42.88.63,1.46.63Z"/>
        <path class="cls-1" d="m164.45,48.25c-.96,0-1.84-.37-2.65-1.1-.81-.74-1.21-1.76-1.21-3.06,0-.9.2-1.67.61-2.32.41-.65.89-1.12,1.46-1.41.57-.29,1.18-.43,1.82-.43.99,0,1.79.32,2.38.94v-.78h2.19v8h-2.19v-.9c-.6.7-1.4,1.06-2.42,1.06Zm.43-2.02c.59,0,1.07-.21,1.46-.63.39-.42.58-.93.58-1.53s-.19-1.1-.58-1.52c-.39-.42-.88-.62-1.46-.62s-1.12.2-1.53.61c-.41.41-.62.92-.62,1.54s.21,1.13.62,1.54c.41.41.92.62,1.53.62Z"/>
      </g>
      <path class="cls-1" d="m170.25,48.09v-8h2.18v.9c.55-.7,1.29-1.06,2.21-1.06s1.69.29,2.22.86c.53.58.8,1.38.8,2.42v4.88h-2.22v-4.59c0-.54-.13-.96-.38-1.26-.25-.29-.62-.44-1.1-.44-.45,0-.81.16-1.1.48-.28.32-.42.8-.42,1.44v4.37h-2.19Z"/>
      <path class="cls-1" d="m184.22,48.09l-2.18-3.2-1.07,1.26v1.94h-2.19v-11.68h2.19v7.22l2.94-3.54h2.54l-2.91,3.46,3.07,4.54h-2.4Z"/>
      <g>
        <path class="cls-1" d="m187.3,39.29v-2.19h2.19v2.19h-2.19Zm0,8.8v-8h2.19v8h-2.19Z"/>
        <path class="cls-1" d="m190.61,48.09v-8h2.18v.9c.55-.7,1.29-1.06,2.21-1.06s1.69.29,2.22.86c.53.58.8,1.38.8,2.42v4.88h-2.22v-4.59c0-.54-.13-.96-.38-1.26-.25-.29-.62-.44-1.1-.44-.45,0-.81.16-1.1.48-.28.32-.42.8-.42,1.44v4.37h-2.19Z"/>
        <path class="cls-1" d="m202.75,48.25c-.96,0-1.84-.37-2.65-1.1-.81-.74-1.21-1.76-1.21-3.06,0-.9.2-1.67.61-2.32.41-.65.89-1.12,1.46-1.41.57-.29,1.18-.43,1.82-.43.98,0,1.78.34,2.38,1.02v-.86h2.19v7.78c0,1.18-.36,2.16-1.09,2.93-.73.77-1.74,1.15-3.04,1.15-.97,0-1.82-.22-2.55-.66-.73-.44-1.27-.99-1.61-1.65l1.94-1.09c.45.91,1.19,1.36,2.22,1.36.58,0,1.04-.19,1.4-.58.36-.38.54-.85.54-1.39v-.75c-.6.7-1.4,1.06-2.42,1.06h0Zm.43-2.02c.59,0,1.07-.21,1.46-.63.39-.42.58-.93.58-1.53s-.2-1.1-.58-1.52c-.39-.42-.88-.62-1.46-.62s-1.12.2-1.53.61c-.41.41-.62.92-.62,1.54s.21,1.13.62,1.54c.41.41.92.62,1.53.62Z"/>
      </g>
    </g>
  </g>
</svg>