<?xml version="1.0" encoding="UTF-8"?>
<svg id="Layer_2" data-name="Layer 2" xmlns="http://www.w3.org/2000/svg" viewBox="0 0 207.32 34.04">
  <defs>
    <style>
      .cls-1 {
        fill: #11527f;
      }
    </style>
  </defs>
  <g id="Layer_2-2" data-name="Layer 2">
    <path class="cls-1" d="M12.98,34.03c-5.17,0-9.5-1.98-12.98-5.94l5.76-4.54c1.72,2.97,4.11,4.45,7.17,4.45,1.54,0,2.75-.42,3.63-1.27.88-.85,1.32-1.88,1.32-3.08,0-.82-.35-1.53-1.04-2.13-.7-.6-1.36-1.03-2-1.27s-1.72-.6-3.27-1.09c-.24-.09-.42-.15-.54-.18-1.12-.33-2.03-.63-2.72-.89-.7-.26-1.52-.65-2.47-1.18-.95-.53-1.69-1.1-2.22-1.7-.53-.6-.99-1.4-1.38-2.38-.39-.98-.59-2.08-.59-3.29,0-2.69,1.04-4.95,3.13-6.78C6.85.92,9.48,0,12.66,0c2.51,0,4.62.42,6.33,1.25,1.71.83,3.32,2.02,4.83,3.56l-5.22,3.95c-1.39-2.09-3.36-3.13-5.9-3.13-1.42,0-2.53.34-3.34,1.02-.8.68-1.2,1.57-1.2,2.65s.49,1.88,1.47,2.47c.98.59,2.49,1.22,4.52,1.88.33.09.57.17.73.23,1.09.36,2,.69,2.75.98.74.29,1.58.71,2.52,1.27.94.56,1.69,1.16,2.27,1.79.57.64,1.06,1.45,1.45,2.45.39,1,.59,2.1.59,3.31,0,2.78-1.04,5.2-3.13,7.26s-4.87,3.09-8.35,3.09Z"/>
    <path class="cls-1" d="M37.98,34.03c-2.72,0-5.23-1.04-7.51-3.13s-3.43-4.98-3.43-8.67c0-2.54.57-4.73,1.72-6.58,1.15-1.84,2.53-3.18,4.15-3.99,1.62-.82,3.33-1.23,5.15-1.23,2.81,0,5.07.89,6.76,2.68v-2.22h6.22v22.69h-6.22v-2.54c-1.69,2-3.98,3-6.85,3h0ZM39.2,28.31c1.66,0,3.05-.6,4.15-1.79,1.1-1.19,1.66-2.64,1.66-4.33s-.55-3.13-1.66-4.31c-1.1-1.18-2.49-1.77-4.15-1.77s-3.17.58-4.33,1.72c-1.16,1.15-1.75,2.6-1.75,4.36s.58,3.21,1.75,4.38,2.61,1.75,4.33,1.75h0Z"/>
    <path class="cls-1" d="M64.48,34.03c-2.72,0-5.23-1.04-7.51-3.13-2.28-2.09-3.43-4.98-3.43-8.67,0-2.54.57-4.73,1.72-6.58,1.15-1.84,2.53-3.18,4.15-3.99,1.62-.82,3.34-1.23,5.15-1.23,2.81,0,5.07.89,6.76,2.68v-2.22h6.22v22.69h-6.22v-2.54c-1.69,2-3.98,3-6.85,3h0ZM65.7,28.31c1.66,0,3.05-.6,4.15-1.79,1.1-1.19,1.66-2.64,1.66-4.33s-.55-3.13-1.66-4.31c-1.1-1.18-2.49-1.77-4.15-1.77s-3.17.58-4.33,1.72c-1.16,1.15-1.75,2.6-1.75,4.36s.58,3.21,1.75,4.38,2.61,1.75,4.33,1.75h0Z"/>
    <path class="cls-1" d="M92.21,34.03c-5.17,0-9.5-1.98-12.98-5.94l5.76-4.54c1.72,2.97,4.11,4.45,7.17,4.45,1.54,0,2.75-.42,3.63-1.27s1.32-1.88,1.32-3.08c0-.82-.35-1.53-1.04-2.13-.7-.6-1.36-1.03-2-1.27s-1.72-.6-3.27-1.09c-.24-.09-.42-.15-.54-.18-1.12-.33-2.03-.63-2.72-.89-.7-.26-1.52-.65-2.47-1.18-.95-.53-1.69-1.1-2.22-1.7-.53-.6-.99-1.4-1.38-2.38-.39-.98-.59-2.08-.59-3.29,0-2.69,1.04-4.95,3.13-6.78C86.1.93,88.73,0,91.91,0c2.51,0,4.62.42,6.33,1.25,1.71.83,3.32,2.02,4.83,3.56l-5.22,3.95c-1.39-2.09-3.36-3.13-5.9-3.13-1.42,0-2.53.34-3.34,1.02-.8.68-1.2,1.57-1.2,2.65s.49,1.88,1.47,2.47,2.49,1.22,4.52,1.88c.33.09.57.17.73.23,1.09.36,2,.69,2.75.98.74.29,1.58.71,2.52,1.27.94.56,1.69,1.16,2.27,1.79.57.63,1.06,1.45,1.45,2.45s.59,2.1.59,3.31c0,2.78-1.04,5.2-3.13,7.26s-4.87,3.09-8.35,3.09h-.02Z"/>
    <path class="cls-1" d="M118.02,34.03c-3.27,0-6.04-1.15-8.33-3.45-2.28-2.3-3.43-5.08-3.43-8.35s1.14-6.05,3.43-8.35c2.28-2.3,5.06-3.45,8.33-3.45,2.54,0,4.77.65,6.69,1.95,1.92,1.3,3.34,3.04,4.24,5.22l-5.54,2.36c-.42-1.09-1.13-1.97-2.11-2.63-.98-.67-2.06-1-3.24-1-1.63,0-3.01.58-4.13,1.72-1.12,1.15-1.68,2.54-1.68,4.17s.56,3.03,1.68,4.17c1.12,1.15,2.5,1.72,4.13,1.72,1.18,0,2.26-.33,3.24-1,.98-.66,1.69-1.54,2.11-2.63l5.54,2.36c-.91,2.18-2.32,3.92-4.24,5.22-1.92,1.3-4.15,1.95-6.69,1.95h0v.02Z"/>
    <path class="cls-1" d="M141.26,34.03c-2.72,0-5.23-1.04-7.51-3.13s-3.43-4.98-3.43-8.67c0-2.54.57-4.73,1.72-6.58,1.15-1.84,2.53-3.18,4.15-3.99,1.62-.82,3.34-1.23,5.15-1.23,2.81,0,5.07.89,6.76,2.68v-2.22h6.22v22.69h-6.22v-2.54c-1.69,2-3.98,3-6.85,3h.01ZM142.49,28.31c1.66,0,3.05-.6,4.15-1.79,1.1-1.19,1.66-2.64,1.66-4.33s-.55-3.13-1.66-4.31c-1.1-1.18-2.49-1.77-4.15-1.77s-3.17.58-4.33,1.72c-1.16,1.15-1.75,2.6-1.75,4.36s.58,3.21,1.75,4.38c1.16,1.16,2.61,1.75,4.33,1.75h0Z"/>
    <path class="cls-1" d="M167.76,34.03c-2.72,0-5.23-1.04-7.51-3.13s-3.43-4.98-3.43-8.67c0-2.54.57-4.73,1.72-6.58,1.15-1.84,2.53-3.18,4.15-3.99,1.62-.82,3.33-1.23,5.15-1.23,2.81,0,5.07.89,6.76,2.68V.45h6.22v33.13h-6.22v-2.54c-1.69,2-3.98,3-6.85,3h.01ZM168.99,28.31c1.66,0,3.05-.6,4.15-1.79,1.1-1.19,1.66-2.64,1.66-4.33s-.55-3.13-1.66-4.31c-1.1-1.18-2.49-1.77-4.15-1.77s-3.17.58-4.33,1.72c-1.16,1.15-1.75,2.6-1.75,4.36s.58,3.21,1.75,4.38c1.16,1.16,2.61,1.75,4.33,1.75h0Z"/>
    <path class="cls-1" d="M194.26,34.03c-2.72,0-5.23-1.04-7.51-3.13s-3.43-4.98-3.43-8.67c0-2.54.57-4.73,1.72-6.58,1.15-1.84,2.53-3.18,4.15-3.99,1.62-.82,3.33-1.23,5.15-1.23,2.81,0,5.07.89,6.76,2.68v-2.22h6.22v22.69h-6.22v-2.54c-1.69,2-3.98,3-6.85,3h.01ZM195.49,28.31c1.66,0,3.05-.6,4.15-1.79,1.1-1.19,1.66-2.64,1.66-4.33s-.55-3.13-1.66-4.31c-1.1-1.18-2.49-1.77-4.15-1.77s-3.17.58-4.33,1.72c-1.16,1.15-1.75,2.6-1.75,4.36s.58,3.21,1.75,4.38c1.16,1.16,2.61,1.75,4.33,1.75h0Z"/>
  </g>
</svg>